<?xml version="1.0" encoding="utf-8" standalone="no"?>
<!DOCTYPE svg PUBLIC "-//W3C//DTD SVG 1.1//EN"
  "http://www.w3.org/Graphics/SVG/1.1/DTD/svg11.dtd">
<svg xmlns:xlink="http://www.w3.org/1999/xlink" width="1008pt" height="504pt" viewBox="0 0 1008 504" xmlns="http://www.w3.org/2000/svg" version="1.1">
 <metadata>
  <rdf:RDF xmlns:dc="http://purl.org/dc/elements/1.1/" xmlns:cc="http://creativecommons.org/ns#" xmlns:rdf="http://www.w3.org/1999/02/22-rdf-syntax-ns#">
   <cc:Work>
    <dc:type rdf:resource="http://purl.org/dc/dcmitype/StillImage"/>
    <dc:date>2024-12-01T17:43:05.102472</dc:date>
    <dc:format>image/svg+xml</dc:format>
    <dc:creator>
     <cc:Agent>
      <dc:title>Matplotlib v3.7.2, https://matplotlib.org/</dc:title>
     </cc:Agent>
    </dc:creator>
   </cc:Work>
  </rdf:RDF>
 </metadata>
 <defs>
  <style type="text/css">*{stroke-linejoin: round; stroke-linecap: butt}</style>
 </defs>
 <g id="figure_1">
  <g id="patch_1">
   <path d="M 0 504 
L 1008 504 
L 1008 0 
L 0 0 
z
" style="fill: #ffffff"/>
  </g>
  <g id="axes_1">
   <g id="patch_2">
    <path d="M 126 448.56 
L 907.2 448.56 
L 907.2 60.48 
L 126 60.48 
z
" style="fill: #ffffff"/>
   </g>
   <g id="PolyCollection_1">
    <defs>
     <path id="mc12eb95b9c" d="M 166.685121 -56.53209 
L 166.685121 -55.44 
L 170.184712 -55.44 
L 173.684303 -55.44 
L 177.183894 -55.44 
L 180.683485 -55.44 
L 184.183076 -55.44 
L 187.682667 -55.44 
L 191.182258 -55.44 
L 194.681848 -55.44 
L 198.181439 -55.44 
L 201.68103 -55.44 
L 205.180621 -55.44 
L 208.680212 -55.44 
L 212.179803 -55.44 
L 215.679394 -55.44 
L 219.178985 -55.44 
L 222.678576 -55.44 
L 226.178167 -55.44 
L 229.677758 -55.44 
L 233.177349 -55.44 
L 236.67694 -55.44 
L 240.176531 -55.44 
L 243.676122 -55.44 
L 247.175713 -55.44 
L 250.675303 -55.44 
L 254.174894 -55.44 
L 257.674485 -55.44 
L 261.174076 -55.44 
L 264.673667 -55.44 
L 268.173258 -55.44 
L 271.672849 -55.44 
L 275.17244 -55.44 
L 278.672031 -55.44 
L 282.171622 -55.44 
L 285.671213 -55.44 
L 289.170804 -55.44 
L 292.670395 -55.44 
L 296.169986 -55.44 
L 299.669577 -55.44 
L 303.169168 -55.44 
L 306.668759 -55.44 
L 310.168349 -55.44 
L 313.66794 -55.44 
L 317.167531 -55.44 
L 320.667122 -55.44 
L 324.166713 -55.44 
L 327.666304 -55.44 
L 331.165895 -55.44 
L 334.665486 -55.44 
L 338.165077 -55.44 
L 341.664668 -55.44 
L 345.164259 -55.44 
L 348.66385 -55.44 
L 352.163441 -55.44 
L 355.663032 -55.44 
L 359.162623 -55.44 
L 362.662214 -55.44 
L 366.161804 -55.44 
L 369.661395 -55.44 
L 373.160986 -55.44 
L 376.660577 -55.44 
L 380.160168 -55.44 
L 383.659759 -55.44 
L 387.15935 -55.44 
L 390.658941 -55.44 
L 394.158532 -55.44 
L 397.658123 -55.44 
L 401.157714 -55.44 
L 404.657305 -55.44 
L 408.156896 -55.44 
L 411.656487 -55.44 
L 415.156078 -55.44 
L 418.655669 -55.44 
L 422.155259 -55.44 
L 425.65485 -55.44 
L 429.154441 -55.44 
L 432.654032 -55.44 
L 436.153623 -55.44 
L 439.653214 -55.44 
L 443.152805 -55.44 
L 446.652396 -55.44 
L 450.151987 -55.44 
L 453.651578 -55.44 
L 457.151169 -55.44 
L 460.65076 -55.44 
L 464.150351 -55.44 
L 467.649942 -55.44 
L 471.149533 -55.44 
L 474.649124 -55.44 
L 478.148714 -55.44 
L 481.648305 -55.44 
L 485.147896 -55.44 
L 488.647487 -55.44 
L 492.147078 -55.44 
L 495.646669 -55.44 
L 499.14626 -55.44 
L 502.645851 -55.44 
L 506.145442 -55.44 
L 509.645033 -55.44 
L 513.144624 -55.44 
L 516.644215 -55.44 
L 520.143806 -55.44 
L 523.643397 -55.44 
L 527.142988 -55.44 
L 530.642579 -55.44 
L 534.142169 -55.44 
L 537.64176 -55.44 
L 541.141351 -55.44 
L 544.640942 -55.44 
L 548.140533 -55.44 
L 551.640124 -55.44 
L 555.139715 -55.44 
L 558.639306 -55.44 
L 562.138897 -55.44 
L 565.638488 -55.44 
L 569.138079 -55.44 
L 572.63767 -55.44 
L 576.137261 -55.44 
L 579.636852 -55.44 
L 583.136443 -55.44 
L 586.636034 -55.44 
L 590.135624 -55.44 
L 593.635215 -55.44 
L 597.134806 -55.44 
L 600.634397 -55.44 
L 604.133988 -55.44 
L 607.633579 -55.44 
L 611.13317 -55.44 
L 614.632761 -55.44 
L 618.132352 -55.44 
L 621.631943 -55.44 
L 625.131534 -55.44 
L 628.631125 -55.44 
L 632.130716 -55.44 
L 635.630307 -55.44 
L 639.129898 -55.44 
L 642.629489 -55.44 
L 646.129079 -55.44 
L 649.62867 -55.44 
L 653.128261 -55.44 
L 656.627852 -55.44 
L 660.127443 -55.44 
L 663.627034 -55.44 
L 667.126625 -55.44 
L 670.626216 -55.44 
L 674.125807 -55.44 
L 677.625398 -55.44 
L 681.124989 -55.44 
L 684.62458 -55.44 
L 688.124171 -55.44 
L 691.623762 -55.44 
L 695.123353 -55.44 
L 698.622944 -55.44 
L 702.122534 -55.44 
L 705.622125 -55.44 
L 709.121716 -55.44 
L 712.621307 -55.44 
L 716.120898 -55.44 
L 719.620489 -55.44 
L 723.12008 -55.44 
L 726.619671 -55.44 
L 730.119262 -55.44 
L 733.618853 -55.44 
L 737.118444 -55.44 
L 740.618035 -55.44 
L 744.117626 -55.44 
L 747.617217 -55.44 
L 751.116808 -55.44 
L 754.616399 -55.44 
L 758.11599 -55.44 
L 761.61558 -55.44 
L 765.115171 -55.44 
L 768.614762 -55.44 
L 772.114353 -55.44 
L 775.613944 -55.44 
L 779.113535 -55.44 
L 782.613126 -55.44 
L 786.112717 -55.44 
L 789.612308 -55.44 
L 793.111899 -55.44 
L 796.61149 -55.44 
L 800.111081 -55.44 
L 803.610672 -55.44 
L 807.110263 -55.44 
L 810.609854 -55.44 
L 814.109445 -55.44 
L 817.609035 -55.44 
L 821.108626 -55.44 
L 824.608217 -55.44 
L 828.107808 -55.44 
L 831.607399 -55.44 
L 835.10699 -55.44 
L 838.606581 -55.44 
L 842.106172 -55.44 
L 845.605763 -55.44 
L 849.105354 -55.44 
L 852.604945 -55.44 
L 856.104536 -55.44 
L 859.604127 -55.44 
L 863.103718 -55.44 
L 863.103718 -55.442467 
L 863.103718 -55.442467 
L 859.604127 -55.463414 
L 856.104536 -55.570832 
L 852.604945 -55.88068 
L 849.105354 -56.371934 
L 845.605763 -56.766673 
L 842.106172 -56.859424 
L 838.606581 -56.752661 
L 835.10699 -56.619908 
L 831.607399 -56.524531 
L 828.107808 -56.463823 
L 824.608217 -56.426715 
L 821.108626 -56.402553 
L 817.609035 -56.381964 
L 814.109445 -56.364582 
L 810.609854 -56.353694 
L 807.110263 -56.346866 
L 803.610672 -56.340841 
L 800.111081 -56.335503 
L 796.61149 -56.331574 
L 793.111899 -56.328385 
L 789.612308 -56.323267 
L 786.112717 -56.315816 
L 782.613126 -56.31026 
L 779.113535 -56.309398 
L 775.613944 -56.31196 
L 772.114353 -56.316294 
L 768.614762 -56.321491 
L 765.115171 -56.327298 
L 761.61558 -56.333279 
L 758.11599 -56.338148 
L 754.616399 -56.34171 
L 751.116808 -56.344379 
L 747.617217 -56.34682 
L 744.117626 -56.349883 
L 740.618035 -56.353038 
L 737.118444 -56.356422 
L 733.618853 -56.361275 
L 730.119262 -56.368682 
L 726.619671 -56.379481 
L 723.12008 -56.391723 
L 719.620489 -56.400924 
L 716.120898 -56.404552 
L 712.621307 -56.408315 
L 709.121716 -56.417982 
L 705.622125 -56.430238 
L 702.122534 -56.44053 
L 698.622944 -56.448247 
L 695.123353 -56.457284 
L 691.623762 -56.471647 
L 688.124171 -56.489467 
L 684.62458 -56.507053 
L 681.124989 -56.522461 
L 677.625398 -56.537659 
L 674.125807 -56.554714 
L 670.626216 -56.570742 
L 667.126625 -56.584703 
L 663.627034 -56.599095 
L 660.127443 -56.614209 
L 656.627852 -56.629882 
L 653.128261 -56.647958 
L 649.62867 -56.671544 
L 646.129079 -56.699862 
L 642.629489 -56.725146 
L 639.129898 -56.741803 
L 635.630307 -56.752138 
L 632.130716 -56.761552 
L 628.631125 -56.775286 
L 625.131534 -56.795578 
L 621.631943 -56.821534 
L 618.132352 -56.849175 
L 614.632761 -56.871582 
L 611.13317 -56.889897 
L 607.633579 -56.911463 
L 604.133988 -56.937804 
L 600.634397 -56.967944 
L 597.134806 -57.00043 
L 593.635215 -57.032023 
L 590.135624 -57.060161 
L 586.636034 -57.085571 
L 583.136443 -57.110963 
L 579.636852 -57.137568 
L 576.137261 -57.166673 
L 572.63767 -57.199422 
L 569.138079 -57.232317 
L 565.638488 -57.261442 
L 562.138897 -57.289614 
L 558.639306 -57.320062 
L 555.139715 -57.354126 
L 551.640124 -57.391681 
L 548.140533 -57.429811 
L 544.640942 -57.467073 
L 541.141351 -57.503425 
L 537.64176 -57.541003 
L 534.142169 -57.583414 
L 530.642579 -57.629187 
L 527.142988 -57.672037 
L 523.643397 -57.708612 
L 520.143806 -57.74258 
L 516.644215 -57.778736 
L 513.144624 -57.821079 
L 509.645033 -57.87206 
L 506.145442 -57.929098 
L 502.645851 -57.985466 
L 499.14626 -58.035826 
L 495.646669 -58.083947 
L 492.147078 -58.136591 
L 488.647487 -58.192731 
L 485.147896 -58.249775 
L 481.648305 -58.308335 
L 478.148714 -58.367913 
L 474.649124 -58.425575 
L 471.149533 -58.480293 
L 467.649942 -58.537766 
L 464.150351 -58.604889 
L 460.65076 -58.677434 
L 457.151169 -58.743497 
L 453.651578 -58.801877 
L 450.151987 -58.86244 
L 446.652396 -58.93357 
L 443.152805 -59.017176 
L 439.653214 -59.1059 
L 436.153623 -59.19329 
L 432.654032 -59.28156 
L 429.154441 -59.369633 
L 425.65485 -59.451164 
L 422.155259 -59.5286 
L 418.655669 -59.616356 
L 415.156078 -59.722138 
L 411.656487 -59.837271 
L 408.156896 -59.951412 
L 404.657305 -60.064935 
L 401.157714 -60.181576 
L 397.658123 -60.298084 
L 394.158532 -60.409544 
L 390.658941 -60.519711 
L 387.15935 -60.639297 
L 383.659759 -60.771895 
L 380.160168 -60.909628 
L 376.660577 -61.049751 
L 373.160986 -61.198096 
L 369.661395 -61.355624 
L 366.161804 -61.514802 
L 362.662214 -61.672246 
L 359.162623 -61.844265 
L 355.663032 -62.038478 
L 352.163441 -62.233442 
L 348.66385 -62.424578 
L 345.164259 -62.627981 
L 341.664668 -62.844778 
L 338.165077 -63.072024 
L 334.665486 -63.310728 
L 331.165895 -63.555872 
L 327.666304 -63.809822 
L 324.166713 -64.087881 
L 320.667122 -64.392435 
L 317.167531 -64.708877 
L 313.66794 -65.032341 
L 310.168349 -65.374139 
L 306.668759 -65.753559 
L 303.169168 -66.177834 
L 299.669577 -66.63964 
L 296.169986 -67.142521 
L 292.670395 -67.685771 
L 289.170804 -68.246575 
L 285.671213 -68.817167 
L 282.171622 -69.429319 
L 278.672031 -70.125843 
L 275.17244 -70.91793 
L 271.672849 -71.793275 
L 268.173258 -72.762661 
L 264.673667 -73.841323 
L 261.174076 -75.01565 
L 257.674485 -76.296619 
L 254.174894 -77.74322 
L 250.675303 -79.395598 
L 247.175713 -81.252487 
L 243.676122 -83.320065 
L 240.176531 -85.636909 
L 236.67694 -88.256284 
L 233.177349 -91.221758 
L 229.677758 -94.563233 
L 226.178167 -98.321744 
L 222.678576 -102.547885 
L 219.178985 -107.281933 
L 215.679394 -112.571792 
L 212.179803 -118.527977 
L 208.680212 -125.37226 
L 205.180621 -133.478047 
L 201.68103 -143.523223 
L 198.181439 -156.835085 
L 194.681848 -176.267783 
L 191.182258 -207.742836 
L 187.682667 -254.472333 
L 184.183076 -291.058841 
L 180.683485 -264.8561 
L 177.183894 -177.454698 
L 173.684303 -98.782653 
L 170.184712 -64.49472 
L 166.685121 -56.53209 
z
" style="stroke: #ffd700"/>
    </defs>
    <g clip-path="url(#p6ab2b382b1)">
     <use xlink:href="#mc12eb95b9c" x="0" y="504" style="fill: #ffd700; fill-opacity: 0.8; stroke: #ffd700"/>
    </g>
   </g>
   <g id="PolyCollection_2">
    <defs>
     <path id="m457f9a0575" d="M 161.509091 -55.456476 
L 161.509091 -55.44 
L 165.061062 -55.44 
L 168.613032 -55.44 
L 172.165003 -55.44 
L 175.716973 -55.44 
L 179.268944 -55.44 
L 182.820915 -55.44 
L 186.372885 -55.44 
L 189.924856 -55.44 
L 193.476826 -55.44 
L 197.028797 -55.44 
L 200.580768 -55.44 
L 204.132738 -55.44 
L 207.684709 -55.44 
L 211.236679 -55.44 
L 214.78865 -55.44 
L 218.340621 -55.44 
L 221.892591 -55.44 
L 225.444562 -55.44 
L 228.996532 -55.44 
L 232.548503 -55.44 
L 236.100474 -55.44 
L 239.652444 -55.44 
L 243.204415 -55.44 
L 246.756385 -55.44 
L 250.308356 -55.44 
L 253.860327 -55.44 
L 257.412297 -55.44 
L 260.964268 -55.44 
L 264.516238 -55.44 
L 268.068209 -55.44 
L 271.62018 -55.44 
L 275.17215 -55.44 
L 278.724121 -55.44 
L 282.276091 -55.44 
L 285.828062 -55.44 
L 289.380033 -55.44 
L 292.932003 -55.44 
L 296.483974 -55.44 
L 300.035944 -55.44 
L 303.587915 -55.44 
L 307.139886 -55.44 
L 310.691856 -55.44 
L 314.243827 -55.44 
L 317.795797 -55.44 
L 321.347768 -55.44 
L 324.899739 -55.44 
L 328.451709 -55.44 
L 332.00368 -55.44 
L 335.55565 -55.44 
L 339.107621 -55.44 
L 342.659592 -55.44 
L 346.211562 -55.44 
L 349.763533 -55.44 
L 353.315503 -55.44 
L 356.867474 -55.44 
L 360.419445 -55.44 
L 363.971415 -55.44 
L 367.523386 -55.44 
L 371.075357 -55.44 
L 374.627327 -55.44 
L 378.179298 -55.44 
L 381.731268 -55.44 
L 385.283239 -55.44 
L 388.83521 -55.44 
L 392.38718 -55.44 
L 395.939151 -55.44 
L 399.491121 -55.44 
L 403.043092 -55.44 
L 406.595063 -55.44 
L 410.147033 -55.44 
L 413.699004 -55.44 
L 417.250974 -55.44 
L 420.802945 -55.44 
L 424.354916 -55.44 
L 427.906886 -55.44 
L 431.458857 -55.44 
L 435.010827 -55.44 
L 438.562798 -55.44 
L 442.114769 -55.44 
L 445.666739 -55.44 
L 449.21871 -55.44 
L 452.77068 -55.44 
L 456.322651 -55.44 
L 459.874622 -55.44 
L 463.426592 -55.44 
L 466.978563 -55.44 
L 470.530533 -55.44 
L 474.082504 -55.44 
L 477.634475 -55.44 
L 481.186445 -55.44 
L 484.738416 -55.44 
L 488.290386 -55.44 
L 491.842357 -55.44 
L 495.394328 -55.44 
L 498.946298 -55.44 
L 502.498269 -55.44 
L 506.050239 -55.44 
L 509.60221 -55.44 
L 513.154181 -55.44 
L 516.706151 -55.44 
L 520.258122 -55.44 
L 523.810092 -55.44 
L 527.362063 -55.44 
L 530.914034 -55.44 
L 534.466004 -55.44 
L 538.017975 -55.44 
L 541.569945 -55.44 
L 545.121916 -55.44 
L 548.673887 -55.44 
L 552.225857 -55.44 
L 555.777828 -55.44 
L 559.329798 -55.44 
L 562.881769 -55.44 
L 566.43374 -55.44 
L 569.98571 -55.44 
L 573.537681 -55.44 
L 577.089652 -55.44 
L 580.641622 -55.44 
L 584.193593 -55.44 
L 587.745563 -55.44 
L 591.297534 -55.44 
L 594.849505 -55.44 
L 598.401475 -55.44 
L 601.953446 -55.44 
L 605.505416 -55.44 
L 609.057387 -55.44 
L 612.609358 -55.44 
L 616.161328 -55.44 
L 619.713299 -55.44 
L 623.265269 -55.44 
L 626.81724 -55.44 
L 630.369211 -55.44 
L 633.921181 -55.44 
L 637.473152 -55.44 
L 641.025122 -55.44 
L 644.577093 -55.44 
L 648.129064 -55.44 
L 651.681034 -55.44 
L 655.233005 -55.44 
L 658.784975 -55.44 
L 662.336946 -55.44 
L 665.888917 -55.44 
L 669.440887 -55.44 
L 672.992858 -55.44 
L 676.544828 -55.44 
L 680.096799 -55.44 
L 683.64877 -55.44 
L 687.20074 -55.44 
L 690.752711 -55.44 
L 694.304681 -55.44 
L 697.856652 -55.44 
L 701.408623 -55.44 
L 704.960593 -55.44 
L 708.512564 -55.44 
L 712.064534 -55.44 
L 715.616505 -55.44 
L 719.168476 -55.44 
L 722.720446 -55.44 
L 726.272417 -55.44 
L 729.824387 -55.44 
L 733.376358 -55.44 
L 736.928329 -55.44 
L 740.480299 -55.44 
L 744.03227 -55.44 
L 747.58424 -55.44 
L 751.136211 -55.44 
L 754.688182 -55.44 
L 758.240152 -55.44 
L 761.792123 -55.44 
L 765.344093 -55.44 
L 768.896064 -55.44 
L 772.448035 -55.44 
L 776.000005 -55.44 
L 779.551976 -55.44 
L 783.103947 -55.44 
L 786.655917 -55.44 
L 790.207888 -55.44 
L 793.759858 -55.44 
L 797.311829 -55.44 
L 800.8638 -55.44 
L 804.41577 -55.44 
L 807.967741 -55.44 
L 811.519711 -55.44 
L 815.071682 -55.44 
L 818.623653 -55.44 
L 822.175623 -55.44 
L 825.727594 -55.44 
L 829.279564 -55.44 
L 832.831535 -55.44 
L 836.383506 -55.44 
L 839.935476 -55.44 
L 843.487447 -55.44 
L 847.039417 -55.44 
L 850.591388 -55.44 
L 854.143359 -55.44 
L 857.695329 -55.44 
L 861.2473 -55.44 
L 864.79927 -55.44 
L 868.351241 -55.44 
L 868.351241 -57.676074 
L 868.351241 -57.676074 
L 864.79927 -66.626307 
L 861.2473 -96.556737 
L 857.695329 -166.733415 
L 854.143359 -278.059626 
L 850.591388 -386.416323 
L 847.039417 -424.879296 
L 843.487447 -370.950253 
L 839.935476 -269.466377 
L 836.383506 -179.555699 
L 832.831535 -125.020929 
L 829.279564 -98.428532 
L 825.727594 -86.04065 
L 822.175623 -79.534796 
L 818.623653 -75.487582 
L 815.071682 -72.654499 
L 811.519711 -70.5341 
L 807.967741 -68.879027 
L 804.41577 -67.547256 
L 800.8638 -66.451171 
L 797.311829 -65.535121 
L 793.759858 -64.762383 
L 790.207888 -64.105628 
L 786.655917 -63.540924 
L 783.103947 -63.047248 
L 779.551976 -62.609755 
L 776.000005 -62.220921 
L 772.448035 -61.876668 
L 768.896064 -61.571754 
L 765.344093 -61.298821 
L 761.792123 -61.050365 
L 758.240152 -60.821541 
L 754.688182 -60.611735 
L 751.136211 -60.42232 
L 747.58424 -60.252594 
L 744.03227 -60.099327 
L 740.480299 -59.959171 
L 736.928329 -59.828892 
L 733.376358 -59.704528 
L 729.824387 -59.583148 
L 726.272417 -59.465064 
L 722.720446 -59.353038 
L 719.168476 -59.249398 
L 715.616505 -59.153993 
L 712.064534 -59.06498 
L 708.512564 -58.981535 
L 704.960593 -58.90504 
L 701.408623 -58.837005 
L 697.856652 -58.77595 
L 694.304681 -58.717666 
L 690.752711 -58.660203 
L 687.20074 -58.606735 
L 683.64877 -58.560205 
L 680.096799 -58.517184 
L 676.544828 -58.471228 
L 672.992858 -58.42104 
L 669.440887 -58.371943 
L 665.888917 -58.329991 
L 662.336946 -58.296561 
L 658.784975 -58.267659 
L 655.233005 -58.23702 
L 651.681034 -58.20144 
L 648.129064 -58.163969 
L 644.577093 -58.130183 
L 641.025122 -58.102234 
L 637.473152 -58.079011 
L 633.921181 -58.059911 
L 630.369211 -58.044926 
L 626.81724 -58.032304 
L 623.265269 -58.018545 
L 619.713299 -58.000553 
L 616.161328 -57.977786 
L 612.609358 -57.952648 
L 609.057387 -57.927764 
L 605.505416 -57.903282 
L 601.953446 -57.878878 
L 598.401475 -57.857301 
L 594.849505 -57.843181 
L 591.297534 -57.838405 
L 587.745563 -57.839562 
L 584.193593 -57.839706 
L 580.641622 -57.833048 
L 577.089652 -57.818994 
L 573.537681 -57.801988 
L 569.98571 -57.787202 
L 566.43374 -57.776303 
L 562.881769 -57.767548 
L 559.329798 -57.759421 
L 555.777828 -57.752832 
L 552.225857 -57.749659 
L 548.673887 -57.750065 
L 545.121916 -57.75143 
L 541.569945 -57.750172 
L 538.017975 -57.744856 
L 534.466004 -57.736672 
L 530.914034 -57.727004 
L 527.362063 -57.716364 
L 523.810092 -57.706077 
L 520.258122 -57.699003 
L 516.706151 -57.6972 
L 513.154181 -57.699661 
L 509.60221 -57.703178 
L 506.050239 -57.704684 
L 502.498269 -57.702757 
L 498.946298 -57.698389 
L 495.394328 -57.694527 
L 491.842357 -57.693665 
L 488.290386 -57.695533 
L 484.738416 -57.697544 
L 481.186445 -57.697423 
L 477.634475 -57.695183 
L 474.082504 -57.692523 
L 470.530533 -57.690884 
L 466.978563 -57.690745 
L 463.426592 -57.691825 
L 459.874622 -57.692969 
L 456.322651 -57.692711 
L 452.77068 -57.690682 
L 449.21871 -57.68803 
L 445.666739 -57.686342 
L 442.114769 -57.686302 
L 438.562798 -57.6871 
L 435.010827 -57.687028 
L 431.458857 -57.684984 
L 427.906886 -57.681416 
L 424.354916 -57.677803 
L 420.802945 -57.675742 
L 417.250974 -57.676045 
L 413.699004 -57.677827 
L 410.147033 -57.679066 
L 406.595063 -57.67856 
L 403.043092 -57.677012 
L 399.491121 -57.676648 
L 395.939151 -57.679775 
L 392.38718 -57.686386 
L 388.83521 -57.693148 
L 385.283239 -57.69585 
L 381.731268 -57.693051 
L 378.179298 -57.687054 
L 374.627327 -57.681459 
L 371.075357 -57.678165 
L 367.523386 -57.677003 
L 363.971415 -57.677494 
L 360.419445 -57.679705 
L 356.867474 -57.683774 
L 353.315503 -57.689712 
L 349.763533 -57.697111 
L 346.211562 -57.704488 
L 342.659592 -57.709994 
L 339.107621 -57.713125 
L 335.55565 -57.714717 
L 332.00368 -57.715347 
L 328.451709 -57.71523 
L 324.899739 -57.71549 
L 321.347768 -57.717812 
L 317.795797 -57.722917 
L 314.243827 -57.730054 
L 310.691856 -57.737689 
L 307.139886 -57.745062 
L 303.587915 -57.753034 
L 300.035944 -57.762577 
L 296.483974 -57.773075 
L 292.932003 -57.783241 
L 289.380033 -57.793211 
L 285.828062 -57.80478 
L 282.276091 -57.819766 
L 278.724121 -57.838855 
L 275.17215 -57.861848 
L 271.62018 -57.888226 
L 268.068209 -57.917224 
L 264.516238 -57.948072 
L 260.964268 -57.98101 
L 257.412297 -58.017711 
L 253.860327 -58.059652 
L 250.308356 -58.10632 
L 246.756385 -58.156385 
L 243.204415 -58.209723 
L 239.652444 -58.266231 
L 236.100474 -58.324232 
L 232.548503 -58.381851 
L 228.996532 -58.437511 
L 225.444562 -58.488289 
L 221.892591 -58.530311 
L 218.340621 -58.561159 
L 214.78865 -58.581706 
L 211.236679 -58.596929 
L 207.684709 -58.615924 
L 204.132738 -58.654047 
L 200.580768 -58.739413 
L 197.028797 -58.915822 
L 193.476826 -59.217983 
L 189.924856 -59.589397 
L 186.372885 -59.789188 
L 182.820915 -59.477296 
L 179.268944 -58.54844 
L 175.716973 -57.335769 
L 172.165003 -56.329626 
L 168.613032 -55.755562 
L 165.061062 -55.523685 
L 161.509091 -55.456476 
z
" style="stroke: #32cd32"/>
    </defs>
    <g clip-path="url(#p6ab2b382b1)">
     <use xlink:href="#m457f9a0575" x="0" y="504" style="fill: #32cd32; fill-opacity: 0.8; stroke: #32cd32"/>
    </g>
   </g>
   <g id="PolyCollection_3">
    <defs>
     <path id="m63fa3c1fb9" d="M 164.855578 -55.456359 
L 164.855578 -55.44 
L 168.407515 -55.44 
L 171.959451 -55.44 
L 175.511387 -55.44 
L 179.063324 -55.44 
L 182.61526 -55.44 
L 186.167196 -55.44 
L 189.719133 -55.44 
L 193.271069 -55.44 
L 196.823005 -55.44 
L 200.374942 -55.44 
L 203.926878 -55.44 
L 207.478814 -55.44 
L 211.030751 -55.44 
L 214.582687 -55.44 
L 218.134623 -55.44 
L 221.68656 -55.44 
L 225.238496 -55.44 
L 228.790432 -55.44 
L 232.342369 -55.44 
L 235.894305 -55.44 
L 239.446241 -55.44 
L 242.998178 -55.44 
L 246.550114 -55.44 
L 250.10205 -55.44 
L 253.653987 -55.44 
L 257.205923 -55.44 
L 260.757859 -55.44 
L 264.309796 -55.44 
L 267.861732 -55.44 
L 271.413668 -55.44 
L 274.965605 -55.44 
L 278.517541 -55.44 
L 282.069477 -55.44 
L 285.621414 -55.44 
L 289.17335 -55.44 
L 292.725286 -55.44 
L 296.277223 -55.44 
L 299.829159 -55.44 
L 303.381095 -55.44 
L 306.933032 -55.44 
L 310.484968 -55.44 
L 314.036904 -55.44 
L 317.588841 -55.44 
L 321.140777 -55.44 
L 324.692713 -55.44 
L 328.24465 -55.44 
L 331.796586 -55.44 
L 335.348522 -55.44 
L 338.900459 -55.44 
L 342.452395 -55.44 
L 346.004331 -55.44 
L 349.556268 -55.44 
L 353.108204 -55.44 
L 356.66014 -55.44 
L 360.212077 -55.44 
L 363.764013 -55.44 
L 367.315949 -55.44 
L 370.867886 -55.44 
L 374.419822 -55.44 
L 377.971758 -55.44 
L 381.523695 -55.44 
L 385.075631 -55.44 
L 388.627567 -55.44 
L 392.179504 -55.44 
L 395.73144 -55.44 
L 399.283376 -55.44 
L 402.835313 -55.44 
L 406.387249 -55.44 
L 409.939185 -55.44 
L 413.491122 -55.44 
L 417.043058 -55.44 
L 420.594994 -55.44 
L 424.146931 -55.44 
L 427.698867 -55.44 
L 431.250803 -55.44 
L 434.80274 -55.44 
L 438.354676 -55.44 
L 441.906612 -55.44 
L 445.458549 -55.44 
L 449.010485 -55.44 
L 452.562422 -55.44 
L 456.114358 -55.44 
L 459.666294 -55.44 
L 463.218231 -55.44 
L 466.770167 -55.44 
L 470.322103 -55.44 
L 473.87404 -55.44 
L 477.425976 -55.44 
L 480.977912 -55.44 
L 484.529849 -55.44 
L 488.081785 -55.44 
L 491.633721 -55.44 
L 495.185658 -55.44 
L 498.737594 -55.44 
L 502.28953 -55.44 
L 505.841467 -55.44 
L 509.393403 -55.44 
L 512.945339 -55.44 
L 516.497276 -55.44 
L 520.049212 -55.44 
L 523.601148 -55.44 
L 527.153085 -55.44 
L 530.705021 -55.44 
L 534.256957 -55.44 
L 537.808894 -55.44 
L 541.36083 -55.44 
L 544.912766 -55.44 
L 548.464703 -55.44 
L 552.016639 -55.44 
L 555.568575 -55.44 
L 559.120512 -55.44 
L 562.672448 -55.44 
L 566.224384 -55.44 
L 569.776321 -55.44 
L 573.328257 -55.44 
L 576.880193 -55.44 
L 580.43213 -55.44 
L 583.984066 -55.44 
L 587.536002 -55.44 
L 591.087939 -55.44 
L 594.639875 -55.44 
L 598.191811 -55.44 
L 601.743748 -55.44 
L 605.295684 -55.44 
L 608.84762 -55.44 
L 612.399557 -55.44 
L 615.951493 -55.44 
L 619.503429 -55.44 
L 623.055366 -55.44 
L 626.607302 -55.44 
L 630.159238 -55.44 
L 633.711175 -55.44 
L 637.263111 -55.44 
L 640.815047 -55.44 
L 644.366984 -55.44 
L 647.91892 -55.44 
L 651.470856 -55.44 
L 655.022793 -55.44 
L 658.574729 -55.44 
L 662.126665 -55.44 
L 665.678602 -55.44 
L 669.230538 -55.44 
L 672.782474 -55.44 
L 676.334411 -55.44 
L 679.886347 -55.44 
L 683.438283 -55.44 
L 686.99022 -55.44 
L 690.542156 -55.44 
L 694.094092 -55.44 
L 697.646029 -55.44 
L 701.197965 -55.44 
L 704.749901 -55.44 
L 708.301838 -55.44 
L 711.853774 -55.44 
L 715.40571 -55.44 
L 718.957647 -55.44 
L 722.509583 -55.44 
L 726.061519 -55.44 
L 729.613456 -55.44 
L 733.165392 -55.44 
L 736.717328 -55.44 
L 740.269265 -55.44 
L 743.821201 -55.44 
L 747.373137 -55.44 
L 750.925074 -55.44 
L 754.47701 -55.44 
L 758.028946 -55.44 
L 761.580883 -55.44 
L 765.132819 -55.44 
L 768.684755 -55.44 
L 772.236692 -55.44 
L 775.788628 -55.44 
L 779.340564 -55.44 
L 782.892501 -55.44 
L 786.444437 -55.44 
L 789.996373 -55.44 
L 793.54831 -55.44 
L 797.100246 -55.44 
L 800.652182 -55.44 
L 804.204119 -55.44 
L 807.756055 -55.44 
L 811.307991 -55.44 
L 814.859928 -55.44 
L 818.411864 -55.44 
L 821.9638 -55.44 
L 825.515737 -55.44 
L 829.067673 -55.44 
L 832.619609 -55.44 
L 836.171546 -55.44 
L 839.723482 -55.44 
L 843.275418 -55.44 
L 846.827355 -55.44 
L 850.379291 -55.44 
L 853.931227 -55.44 
L 857.483164 -55.44 
L 861.0351 -55.44 
L 864.587036 -55.44 
L 868.138973 -55.44 
L 871.690909 -55.44 
L 871.690909 -57.680459 
L 871.690909 -57.680459 
L 868.138973 -66.646679 
L 864.587036 -96.623766 
L 861.0351 -166.888176 
L 857.483164 -278.305851 
L 853.931227 -386.675562 
L 850.379291 -425.04 
L 846.827355 -370.977614 
L 843.275418 -269.420396 
L 839.723482 -179.50439 
L 836.171546 -124.983653 
L 832.619609 -98.395029 
L 829.067673 -86.002034 
L 825.515737 -79.489696 
L 821.9638 -75.437077 
L 818.411864 -72.60014 
L 814.859928 -70.478629 
L 811.307991 -68.826536 
L 807.756055 -67.502086 
L 804.204119 -66.415966 
L 800.652182 -65.509231 
L 797.100246 -64.742855 
L 793.54831 -64.090613 
L 789.996373 -63.531363 
L 786.444437 -63.044977 
L 782.892501 -62.614446 
L 779.340564 -62.228548 
L 775.788628 -61.880838 
L 772.236692 -61.566816 
L 768.684755 -61.282834 
L 765.132819 -61.027773 
L 761.580883 -60.802763 
L 758.028946 -60.605368 
L 754.47701 -60.426037 
L 750.925074 -60.254572 
L 747.373137 -60.08838 
L 743.821201 -59.931419 
L 740.269265 -59.787492 
L 736.717328 -59.657499 
L 733.165392 -59.541617 
L 729.613456 -59.440044 
L 726.061519 -59.35003 
L 722.509583 -59.264885 
L 718.957647 -59.178317 
L 715.40571 -59.089046 
L 711.853774 -59.000688 
L 708.301838 -58.918128 
L 704.749901 -58.844361 
L 701.197965 -58.779683 
L 697.646029 -58.722358 
L 694.094092 -58.669533 
L 690.542156 -58.618131 
L 686.99022 -58.565916 
L 683.438283 -58.512318 
L 679.886347 -58.458523 
L 676.334411 -58.407208 
L 672.782474 -58.361804 
L 669.230538 -58.324495 
L 665.678602 -58.29407 
L 662.126665 -58.266043 
L 658.574729 -58.235624 
L 655.022793 -58.201412 
L 651.470856 -58.166479 
L 647.91892 -58.135512 
L 644.366984 -58.110513 
L 640.815047 -58.089161 
L 637.263111 -58.067283 
L 633.711175 -58.042628 
L 630.159238 -58.016263 
L 626.607302 -57.991414 
L 623.055366 -57.971327 
L 619.503429 -57.956367 
L 615.951493 -57.942871 
L 612.399557 -57.927123 
L 608.84762 -57.909955 
L 605.295684 -57.894966 
L 601.743748 -57.883261 
L 598.191811 -57.872138 
L 594.639875 -57.858452 
L 591.087939 -57.842164 
L 587.536002 -57.826343 
L 583.984066 -57.813942 
L 580.43213 -57.805283 
L 576.880193 -57.798633 
L 573.328257 -57.792156 
L 569.776321 -57.78532 
L 566.224384 -57.778955 
L 562.672448 -57.773088 
L 559.120512 -57.765403 
L 555.568575 -57.754156 
L 552.016639 -57.741659 
L 548.464703 -57.732323 
L 544.912766 -57.72787 
L 541.36083 -57.726251 
L 537.808894 -57.724377 
L 534.256957 -57.720493 
L 530.705021 -57.714922 
L 527.153085 -57.709688 
L 523.601148 -57.706684 
L 520.049212 -57.705573 
L 516.497276 -57.704459 
L 512.945339 -57.702937 
L 509.393403 -57.70248 
L 505.841467 -57.702785 
L 502.28953 -57.700493 
L 498.737594 -57.693271 
L 495.185658 -57.68317 
L 491.633721 -57.675155 
L 488.081785 -57.673333 
L 484.529849 -57.677336 
L 480.977912 -57.681765 
L 477.425976 -57.681421 
L 473.87404 -57.676995 
L 470.322103 -57.673524 
L 466.770167 -57.674499 
L 463.218231 -57.679623 
L 459.666294 -57.686717 
L 456.114358 -57.693265 
L 452.562422 -57.69653 
L 449.010485 -57.694484 
L 445.458549 -57.687672 
L 441.906612 -57.679462 
L 438.354676 -57.673901 
L 434.80274 -57.672946 
L 431.250803 -57.675143 
L 427.698867 -57.677322 
L 424.146931 -57.677878 
L 420.594994 -57.677763 
L 417.043058 -57.67834 
L 413.491122 -57.679222 
L 409.939185 -57.678609 
L 406.387249 -57.675605 
L 402.835313 -57.672046 
L 399.283376 -57.671273 
L 395.73144 -57.674547 
L 392.179504 -57.679903 
L 388.627567 -57.685179 
L 385.075631 -57.690032 
L 381.523695 -57.69409 
L 377.971758 -57.695971 
L 374.419822 -57.695609 
L 370.867886 -57.695169 
L 367.315949 -57.696287 
L 363.764013 -57.698153 
L 360.212077 -57.699198 
L 356.66014 -57.699314 
L 353.108204 -57.69979 
L 349.556268 -57.701813 
L 346.004331 -57.705529 
L 342.452395 -57.710403 
L 338.900459 -57.715639 
L 335.348522 -57.719799 
L 331.796586 -57.721452 
L 328.24465 -57.72101 
L 324.692713 -57.720552 
L 321.140777 -57.721885 
L 317.588841 -57.726017 
L 314.036904 -57.733504 
L 310.484968 -57.744233 
L 306.933032 -57.757469 
L 303.381095 -57.771766 
L 299.829159 -57.784828 
L 296.277223 -57.795324 
L 292.725286 -57.805004 
L 289.17335 -57.817321 
L 285.621414 -57.834233 
L 282.069477 -57.855168 
L 278.517541 -57.878365 
L 274.965605 -57.902974 
L 271.413668 -57.930022 
L 267.861732 -57.960859 
L 264.309796 -57.995102 
L 260.757859 -58.031006 
L 257.205923 -58.067618 
L 253.653987 -58.105876 
L 250.10205 -58.147585 
L 246.550114 -58.19415 
L 242.998178 -58.246267 
L 239.446241 -58.302899 
L 235.894305 -58.360391 
L 232.342369 -58.41495 
L 228.790432 -58.465415 
L 225.238496 -58.511085 
L 221.68656 -58.548438 
L 218.134623 -58.573615 
L 214.582687 -58.588752 
L 211.030751 -58.606037 
L 207.478814 -58.647663 
L 203.926878 -58.744443 
L 200.374942 -58.934039 
L 196.823005 -59.241191 
L 193.271069 -59.60496 
L 189.719133 -59.789702 
L 186.167196 -59.465531 
L 182.61526 -58.533356 
L 179.063324 -57.324532 
L 175.511387 -56.32386 
L 171.959451 -55.753426 
L 168.407515 -55.523103 
L 164.855578 -55.456359 
z
" style="stroke: #4682b4"/>
    </defs>
    <g clip-path="url(#p6ab2b382b1)">
     <use xlink:href="#m63fa3c1fb9" x="0" y="504" style="fill: #4682b4; fill-opacity: 0.8; stroke: #4682b4"/>
    </g>
   </g>
   <g id="matplotlib.axis_1">
    <g id="xtick_1">
     <g id="line2d_1">
      <defs>
       <path id="md1933df5ad" d="M 0 0 
L 0 3.5 
" style="stroke: #000000; stroke-width: 0.8"/>
      </defs>
      <g>
       <use xlink:href="#md1933df5ad" x="180.470491" y="448.56" style="stroke: #000000; stroke-width: 0.8"/>
      </g>
     </g>
     <g id="text_1">
      <!-- 0.0 -->
      <g transform="translate(172.518928 463.158437) scale(0.1 -0.1)">
       <defs>
        <path id="DejaVuSans-30" d="M 2034 4250 
Q 1547 4250 1301 3770 
Q 1056 3291 1056 2328 
Q 1056 1369 1301 889 
Q 1547 409 2034 409 
Q 2525 409 2770 889 
Q 3016 1369 3016 2328 
Q 3016 3291 2770 3770 
Q 2525 4250 2034 4250 
z
M 2034 4750 
Q 2819 4750 3233 4129 
Q 3647 3509 3647 2328 
Q 3647 1150 3233 529 
Q 2819 -91 2034 -91 
Q 1250 -91 836 529 
Q 422 1150 422 2328 
Q 422 3509 836 4129 
Q 1250 4750 2034 4750 
z
" transform="scale(0.015625)"/>
        <path id="DejaVuSans-2e" d="M 684 794 
L 1344 794 
L 1344 0 
L 684 0 
L 684 794 
z
" transform="scale(0.015625)"/>
       </defs>
       <use xlink:href="#DejaVuSans-30"/>
       <use xlink:href="#DejaVuSans-2e" x="63.623047"/>
       <use xlink:href="#DejaVuSans-30" x="95.410156"/>
      </g>
     </g>
    </g>
    <g id="xtick_2">
     <g id="line2d_2">
      <g>
       <use xlink:href="#md1933df5ad" x="314.256424" y="448.56" style="stroke: #000000; stroke-width: 0.8"/>
      </g>
     </g>
     <g id="text_2">
      <!-- 0.2 -->
      <g transform="translate(306.304861 463.158437) scale(0.1 -0.1)">
       <defs>
        <path id="DejaVuSans-32" d="M 1228 531 
L 3431 531 
L 3431 0 
L 469 0 
L 469 531 
Q 828 903 1448 1529 
Q 2069 2156 2228 2338 
Q 2531 2678 2651 2914 
Q 2772 3150 2772 3378 
Q 2772 3750 2511 3984 
Q 2250 4219 1831 4219 
Q 1534 4219 1204 4116 
Q 875 4013 500 3803 
L 500 4441 
Q 881 4594 1212 4672 
Q 1544 4750 1819 4750 
Q 2544 4750 2975 4387 
Q 3406 4025 3406 3419 
Q 3406 3131 3298 2873 
Q 3191 2616 2906 2266 
Q 2828 2175 2409 1742 
Q 1991 1309 1228 531 
z
" transform="scale(0.015625)"/>
       </defs>
       <use xlink:href="#DejaVuSans-30"/>
       <use xlink:href="#DejaVuSans-2e" x="63.623047"/>
       <use xlink:href="#DejaVuSans-32" x="95.410156"/>
      </g>
     </g>
    </g>
    <g id="xtick_3">
     <g id="line2d_3">
      <g>
       <use xlink:href="#md1933df5ad" x="448.042357" y="448.56" style="stroke: #000000; stroke-width: 0.8"/>
      </g>
     </g>
     <g id="text_3">
      <!-- 0.4 -->
      <g transform="translate(440.090795 463.158437) scale(0.1 -0.1)">
       <defs>
        <path id="DejaVuSans-34" d="M 2419 4116 
L 825 1625 
L 2419 1625 
L 2419 4116 
z
M 2253 4666 
L 3047 4666 
L 3047 1625 
L 3713 1625 
L 3713 1100 
L 3047 1100 
L 3047 0 
L 2419 0 
L 2419 1100 
L 313 1100 
L 313 1709 
L 2253 4666 
z
" transform="scale(0.015625)"/>
       </defs>
       <use xlink:href="#DejaVuSans-30"/>
       <use xlink:href="#DejaVuSans-2e" x="63.623047"/>
       <use xlink:href="#DejaVuSans-34" x="95.410156"/>
      </g>
     </g>
    </g>
    <g id="xtick_4">
     <g id="line2d_4">
      <g>
       <use xlink:href="#md1933df5ad" x="581.82829" y="448.56" style="stroke: #000000; stroke-width: 0.8"/>
      </g>
     </g>
     <g id="text_4">
      <!-- 0.6 -->
      <g transform="translate(573.876728 463.158437) scale(0.1 -0.1)">
       <defs>
        <path id="DejaVuSans-36" d="M 2113 2584 
Q 1688 2584 1439 2293 
Q 1191 2003 1191 1497 
Q 1191 994 1439 701 
Q 1688 409 2113 409 
Q 2538 409 2786 701 
Q 3034 994 3034 1497 
Q 3034 2003 2786 2293 
Q 2538 2584 2113 2584 
z
M 3366 4563 
L 3366 3988 
Q 3128 4100 2886 4159 
Q 2644 4219 2406 4219 
Q 1781 4219 1451 3797 
Q 1122 3375 1075 2522 
Q 1259 2794 1537 2939 
Q 1816 3084 2150 3084 
Q 2853 3084 3261 2657 
Q 3669 2231 3669 1497 
Q 3669 778 3244 343 
Q 2819 -91 2113 -91 
Q 1303 -91 875 529 
Q 447 1150 447 2328 
Q 447 3434 972 4092 
Q 1497 4750 2381 4750 
Q 2619 4750 2861 4703 
Q 3103 4656 3366 4563 
z
" transform="scale(0.015625)"/>
       </defs>
       <use xlink:href="#DejaVuSans-30"/>
       <use xlink:href="#DejaVuSans-2e" x="63.623047"/>
       <use xlink:href="#DejaVuSans-36" x="95.410156"/>
      </g>
     </g>
    </g>
    <g id="xtick_5">
     <g id="line2d_5">
      <g>
       <use xlink:href="#md1933df5ad" x="715.614224" y="448.56" style="stroke: #000000; stroke-width: 0.8"/>
      </g>
     </g>
     <g id="text_5">
      <!-- 0.8 -->
      <g transform="translate(707.662661 463.158437) scale(0.1 -0.1)">
       <defs>
        <path id="DejaVuSans-38" d="M 2034 2216 
Q 1584 2216 1326 1975 
Q 1069 1734 1069 1313 
Q 1069 891 1326 650 
Q 1584 409 2034 409 
Q 2484 409 2743 651 
Q 3003 894 3003 1313 
Q 3003 1734 2745 1975 
Q 2488 2216 2034 2216 
z
M 1403 2484 
Q 997 2584 770 2862 
Q 544 3141 544 3541 
Q 544 4100 942 4425 
Q 1341 4750 2034 4750 
Q 2731 4750 3128 4425 
Q 3525 4100 3525 3541 
Q 3525 3141 3298 2862 
Q 3072 2584 2669 2484 
Q 3125 2378 3379 2068 
Q 3634 1759 3634 1313 
Q 3634 634 3220 271 
Q 2806 -91 2034 -91 
Q 1263 -91 848 271 
Q 434 634 434 1313 
Q 434 1759 690 2068 
Q 947 2378 1403 2484 
z
M 1172 3481 
Q 1172 3119 1398 2916 
Q 1625 2713 2034 2713 
Q 2441 2713 2670 2916 
Q 2900 3119 2900 3481 
Q 2900 3844 2670 4047 
Q 2441 4250 2034 4250 
Q 1625 4250 1398 4047 
Q 1172 3844 1172 3481 
z
" transform="scale(0.015625)"/>
       </defs>
       <use xlink:href="#DejaVuSans-30"/>
       <use xlink:href="#DejaVuSans-2e" x="63.623047"/>
       <use xlink:href="#DejaVuSans-38" x="95.410156"/>
      </g>
     </g>
    </g>
    <g id="xtick_6">
     <g id="line2d_6">
      <g>
       <use xlink:href="#md1933df5ad" x="849.400157" y="448.56" style="stroke: #000000; stroke-width: 0.8"/>
      </g>
     </g>
     <g id="text_6">
      <!-- 1.0 -->
      <g transform="translate(841.448594 463.158437) scale(0.1 -0.1)">
       <defs>
        <path id="DejaVuSans-31" d="M 794 531 
L 1825 531 
L 1825 4091 
L 703 3866 
L 703 4441 
L 1819 4666 
L 2450 4666 
L 2450 531 
L 3481 531 
L 3481 0 
L 794 0 
L 794 531 
z
" transform="scale(0.015625)"/>
       </defs>
       <use xlink:href="#DejaVuSans-31"/>
       <use xlink:href="#DejaVuSans-2e" x="63.623047"/>
       <use xlink:href="#DejaVuSans-30" x="95.410156"/>
      </g>
     </g>
    </g>
    <g id="text_7">
     <!-- Scores of samples -->
     <g transform="translate(453.056406 479.875938) scale(0.14 -0.14)">
      <defs>
       <path id="DejaVuSans-53" d="M 3425 4513 
L 3425 3897 
Q 3066 4069 2747 4153 
Q 2428 4238 2131 4238 
Q 1616 4238 1336 4038 
Q 1056 3838 1056 3469 
Q 1056 3159 1242 3001 
Q 1428 2844 1947 2747 
L 2328 2669 
Q 3034 2534 3370 2195 
Q 3706 1856 3706 1288 
Q 3706 609 3251 259 
Q 2797 -91 1919 -91 
Q 1588 -91 1214 -16 
Q 841 59 441 206 
L 441 856 
Q 825 641 1194 531 
Q 1563 422 1919 422 
Q 2459 422 2753 634 
Q 3047 847 3047 1241 
Q 3047 1584 2836 1778 
Q 2625 1972 2144 2069 
L 1759 2144 
Q 1053 2284 737 2584 
Q 422 2884 422 3419 
Q 422 4038 858 4394 
Q 1294 4750 2059 4750 
Q 2388 4750 2728 4690 
Q 3069 4631 3425 4513 
z
" transform="scale(0.015625)"/>
       <path id="DejaVuSans-63" d="M 3122 3366 
L 3122 2828 
Q 2878 2963 2633 3030 
Q 2388 3097 2138 3097 
Q 1578 3097 1268 2742 
Q 959 2388 959 1747 
Q 959 1106 1268 751 
Q 1578 397 2138 397 
Q 2388 397 2633 464 
Q 2878 531 3122 666 
L 3122 134 
Q 2881 22 2623 -34 
Q 2366 -91 2075 -91 
Q 1284 -91 818 406 
Q 353 903 353 1747 
Q 353 2603 823 3093 
Q 1294 3584 2113 3584 
Q 2378 3584 2631 3529 
Q 2884 3475 3122 3366 
z
" transform="scale(0.015625)"/>
       <path id="DejaVuSans-6f" d="M 1959 3097 
Q 1497 3097 1228 2736 
Q 959 2375 959 1747 
Q 959 1119 1226 758 
Q 1494 397 1959 397 
Q 2419 397 2687 759 
Q 2956 1122 2956 1747 
Q 2956 2369 2687 2733 
Q 2419 3097 1959 3097 
z
M 1959 3584 
Q 2709 3584 3137 3096 
Q 3566 2609 3566 1747 
Q 3566 888 3137 398 
Q 2709 -91 1959 -91 
Q 1206 -91 779 398 
Q 353 888 353 1747 
Q 353 2609 779 3096 
Q 1206 3584 1959 3584 
z
" transform="scale(0.015625)"/>
       <path id="DejaVuSans-72" d="M 2631 2963 
Q 2534 3019 2420 3045 
Q 2306 3072 2169 3072 
Q 1681 3072 1420 2755 
Q 1159 2438 1159 1844 
L 1159 0 
L 581 0 
L 581 3500 
L 1159 3500 
L 1159 2956 
Q 1341 3275 1631 3429 
Q 1922 3584 2338 3584 
Q 2397 3584 2469 3576 
Q 2541 3569 2628 3553 
L 2631 2963 
z
" transform="scale(0.015625)"/>
       <path id="DejaVuSans-65" d="M 3597 1894 
L 3597 1613 
L 953 1613 
Q 991 1019 1311 708 
Q 1631 397 2203 397 
Q 2534 397 2845 478 
Q 3156 559 3463 722 
L 3463 178 
Q 3153 47 2828 -22 
Q 2503 -91 2169 -91 
Q 1331 -91 842 396 
Q 353 884 353 1716 
Q 353 2575 817 3079 
Q 1281 3584 2069 3584 
Q 2775 3584 3186 3129 
Q 3597 2675 3597 1894 
z
M 3022 2063 
Q 3016 2534 2758 2815 
Q 2500 3097 2075 3097 
Q 1594 3097 1305 2825 
Q 1016 2553 972 2059 
L 3022 2063 
z
" transform="scale(0.015625)"/>
       <path id="DejaVuSans-73" d="M 2834 3397 
L 2834 2853 
Q 2591 2978 2328 3040 
Q 2066 3103 1784 3103 
Q 1356 3103 1142 2972 
Q 928 2841 928 2578 
Q 928 2378 1081 2264 
Q 1234 2150 1697 2047 
L 1894 2003 
Q 2506 1872 2764 1633 
Q 3022 1394 3022 966 
Q 3022 478 2636 193 
Q 2250 -91 1575 -91 
Q 1294 -91 989 -36 
Q 684 19 347 128 
L 347 722 
Q 666 556 975 473 
Q 1284 391 1588 391 
Q 1994 391 2212 530 
Q 2431 669 2431 922 
Q 2431 1156 2273 1281 
Q 2116 1406 1581 1522 
L 1381 1569 
Q 847 1681 609 1914 
Q 372 2147 372 2553 
Q 372 3047 722 3315 
Q 1072 3584 1716 3584 
Q 2034 3584 2315 3537 
Q 2597 3491 2834 3397 
z
" transform="scale(0.015625)"/>
       <path id="DejaVuSans-20" transform="scale(0.015625)"/>
       <path id="DejaVuSans-66" d="M 2375 4863 
L 2375 4384 
L 1825 4384 
Q 1516 4384 1395 4259 
Q 1275 4134 1275 3809 
L 1275 3500 
L 2222 3500 
L 2222 3053 
L 1275 3053 
L 1275 0 
L 697 0 
L 697 3053 
L 147 3053 
L 147 3500 
L 697 3500 
L 697 3744 
Q 697 4328 969 4595 
Q 1241 4863 1831 4863 
L 2375 4863 
z
" transform="scale(0.015625)"/>
       <path id="DejaVuSans-61" d="M 2194 1759 
Q 1497 1759 1228 1600 
Q 959 1441 959 1056 
Q 959 750 1161 570 
Q 1363 391 1709 391 
Q 2188 391 2477 730 
Q 2766 1069 2766 1631 
L 2766 1759 
L 2194 1759 
z
M 3341 1997 
L 3341 0 
L 2766 0 
L 2766 531 
Q 2569 213 2275 61 
Q 1981 -91 1556 -91 
Q 1019 -91 701 211 
Q 384 513 384 1019 
Q 384 1609 779 1909 
Q 1175 2209 1959 2209 
L 2766 2209 
L 2766 2266 
Q 2766 2663 2505 2880 
Q 2244 3097 1772 3097 
Q 1472 3097 1187 3025 
Q 903 2953 641 2809 
L 641 3341 
Q 956 3463 1253 3523 
Q 1550 3584 1831 3584 
Q 2591 3584 2966 3190 
Q 3341 2797 3341 1997 
z
" transform="scale(0.015625)"/>
       <path id="DejaVuSans-6d" d="M 3328 2828 
Q 3544 3216 3844 3400 
Q 4144 3584 4550 3584 
Q 5097 3584 5394 3201 
Q 5691 2819 5691 2113 
L 5691 0 
L 5113 0 
L 5113 2094 
Q 5113 2597 4934 2840 
Q 4756 3084 4391 3084 
Q 3944 3084 3684 2787 
Q 3425 2491 3425 1978 
L 3425 0 
L 2847 0 
L 2847 2094 
Q 2847 2600 2669 2842 
Q 2491 3084 2119 3084 
Q 1678 3084 1418 2786 
Q 1159 2488 1159 1978 
L 1159 0 
L 581 0 
L 581 3500 
L 1159 3500 
L 1159 2956 
Q 1356 3278 1631 3431 
Q 1906 3584 2284 3584 
Q 2666 3584 2933 3390 
Q 3200 3197 3328 2828 
z
" transform="scale(0.015625)"/>
       <path id="DejaVuSans-70" d="M 1159 525 
L 1159 -1331 
L 581 -1331 
L 581 3500 
L 1159 3500 
L 1159 2969 
Q 1341 3281 1617 3432 
Q 1894 3584 2278 3584 
Q 2916 3584 3314 3078 
Q 3713 2572 3713 1747 
Q 3713 922 3314 415 
Q 2916 -91 2278 -91 
Q 1894 -91 1617 61 
Q 1341 213 1159 525 
z
M 3116 1747 
Q 3116 2381 2855 2742 
Q 2594 3103 2138 3103 
Q 1681 3103 1420 2742 
Q 1159 2381 1159 1747 
Q 1159 1113 1420 752 
Q 1681 391 2138 391 
Q 2594 391 2855 752 
Q 3116 1113 3116 1747 
z
" transform="scale(0.015625)"/>
       <path id="DejaVuSans-6c" d="M 603 4863 
L 1178 4863 
L 1178 0 
L 603 0 
L 603 4863 
z
" transform="scale(0.015625)"/>
      </defs>
      <use xlink:href="#DejaVuSans-53"/>
      <use xlink:href="#DejaVuSans-63" x="63.476562"/>
      <use xlink:href="#DejaVuSans-6f" x="118.457031"/>
      <use xlink:href="#DejaVuSans-72" x="179.638672"/>
      <use xlink:href="#DejaVuSans-65" x="218.501953"/>
      <use xlink:href="#DejaVuSans-73" x="280.025391"/>
      <use xlink:href="#DejaVuSans-20" x="332.125"/>
      <use xlink:href="#DejaVuSans-6f" x="363.912109"/>
      <use xlink:href="#DejaVuSans-66" x="425.09375"/>
      <use xlink:href="#DejaVuSans-20" x="460.298828"/>
      <use xlink:href="#DejaVuSans-73" x="492.085938"/>
      <use xlink:href="#DejaVuSans-61" x="544.185547"/>
      <use xlink:href="#DejaVuSans-6d" x="605.464844"/>
      <use xlink:href="#DejaVuSans-70" x="702.876953"/>
      <use xlink:href="#DejaVuSans-6c" x="766.353516"/>
      <use xlink:href="#DejaVuSans-65" x="794.136719"/>
      <use xlink:href="#DejaVuSans-73" x="855.660156"/>
     </g>
    </g>
   </g>
   <g id="matplotlib.axis_2">
    <g id="ytick_1">
     <g id="line2d_7">
      <defs>
       <path id="m4e52cec426" d="M 0 0 
L -3.5 0 
" style="stroke: #000000; stroke-width: 0.8"/>
      </defs>
      <g>
       <use xlink:href="#m4e52cec426" x="126" y="448.56" style="stroke: #000000; stroke-width: 0.8"/>
      </g>
     </g>
     <g id="text_8">
      <!-- 0 -->
      <g transform="translate(112.6375 452.359219) scale(0.1 -0.1)">
       <use xlink:href="#DejaVuSans-30"/>
      </g>
     </g>
    </g>
    <g id="ytick_2">
     <g id="line2d_8">
      <g>
       <use xlink:href="#m4e52cec426" x="126" y="381.452847" style="stroke: #000000; stroke-width: 0.8"/>
      </g>
     </g>
     <g id="text_9">
      <!-- 5 -->
      <g transform="translate(112.6375 385.252066) scale(0.1 -0.1)">
       <defs>
        <path id="DejaVuSans-35" d="M 691 4666 
L 3169 4666 
L 3169 4134 
L 1269 4134 
L 1269 2991 
Q 1406 3038 1543 3061 
Q 1681 3084 1819 3084 
Q 2600 3084 3056 2656 
Q 3513 2228 3513 1497 
Q 3513 744 3044 326 
Q 2575 -91 1722 -91 
Q 1428 -91 1123 -41 
Q 819 9 494 109 
L 494 744 
Q 775 591 1075 516 
Q 1375 441 1709 441 
Q 2250 441 2565 725 
Q 2881 1009 2881 1497 
Q 2881 1984 2565 2268 
Q 2250 2553 1709 2553 
Q 1456 2553 1204 2497 
Q 953 2441 691 2322 
L 691 4666 
z
" transform="scale(0.015625)"/>
       </defs>
       <use xlink:href="#DejaVuSans-35"/>
      </g>
     </g>
    </g>
    <g id="ytick_3">
     <g id="line2d_9">
      <g>
       <use xlink:href="#m4e52cec426" x="126" y="314.345694" style="stroke: #000000; stroke-width: 0.8"/>
      </g>
     </g>
     <g id="text_10">
      <!-- 10 -->
      <g transform="translate(106.275 318.144912) scale(0.1 -0.1)">
       <use xlink:href="#DejaVuSans-31"/>
       <use xlink:href="#DejaVuSans-30" x="63.623047"/>
      </g>
     </g>
    </g>
    <g id="ytick_4">
     <g id="line2d_10">
      <g>
       <use xlink:href="#m4e52cec426" x="126" y="247.238541" style="stroke: #000000; stroke-width: 0.8"/>
      </g>
     </g>
     <g id="text_11">
      <!-- 15 -->
      <g transform="translate(106.275 251.037759) scale(0.1 -0.1)">
       <use xlink:href="#DejaVuSans-31"/>
       <use xlink:href="#DejaVuSans-35" x="63.623047"/>
      </g>
     </g>
    </g>
    <g id="ytick_5">
     <g id="line2d_11">
      <g>
       <use xlink:href="#m4e52cec426" x="126" y="180.131387" style="stroke: #000000; stroke-width: 0.8"/>
      </g>
     </g>
     <g id="text_12">
      <!-- 20 -->
      <g transform="translate(106.275 183.930606) scale(0.1 -0.1)">
       <use xlink:href="#DejaVuSans-32"/>
       <use xlink:href="#DejaVuSans-30" x="63.623047"/>
      </g>
     </g>
    </g>
    <g id="ytick_6">
     <g id="line2d_12">
      <g>
       <use xlink:href="#m4e52cec426" x="126" y="113.024234" style="stroke: #000000; stroke-width: 0.8"/>
      </g>
     </g>
     <g id="text_13">
      <!-- 25 -->
      <g transform="translate(106.275 116.823453) scale(0.1 -0.1)">
       <use xlink:href="#DejaVuSans-32"/>
       <use xlink:href="#DejaVuSans-35" x="63.623047"/>
      </g>
     </g>
    </g>
    <g id="text_14">
     <!-- Densities of samples -->
     <g transform="translate(99.363438 327.181094) rotate(-90) scale(0.14 -0.14)">
      <defs>
       <path id="DejaVuSans-44" d="M 1259 4147 
L 1259 519 
L 2022 519 
Q 2988 519 3436 956 
Q 3884 1394 3884 2338 
Q 3884 3275 3436 3711 
Q 2988 4147 2022 4147 
L 1259 4147 
z
M 628 4666 
L 1925 4666 
Q 3281 4666 3915 4102 
Q 4550 3538 4550 2338 
Q 4550 1131 3912 565 
Q 3275 0 1925 0 
L 628 0 
L 628 4666 
z
" transform="scale(0.015625)"/>
       <path id="DejaVuSans-6e" d="M 3513 2113 
L 3513 0 
L 2938 0 
L 2938 2094 
Q 2938 2591 2744 2837 
Q 2550 3084 2163 3084 
Q 1697 3084 1428 2787 
Q 1159 2491 1159 1978 
L 1159 0 
L 581 0 
L 581 3500 
L 1159 3500 
L 1159 2956 
Q 1366 3272 1645 3428 
Q 1925 3584 2291 3584 
Q 2894 3584 3203 3211 
Q 3513 2838 3513 2113 
z
" transform="scale(0.015625)"/>
       <path id="DejaVuSans-69" d="M 603 3500 
L 1178 3500 
L 1178 0 
L 603 0 
L 603 3500 
z
M 603 4863 
L 1178 4863 
L 1178 4134 
L 603 4134 
L 603 4863 
z
" transform="scale(0.015625)"/>
       <path id="DejaVuSans-74" d="M 1172 4494 
L 1172 3500 
L 2356 3500 
L 2356 3053 
L 1172 3053 
L 1172 1153 
Q 1172 725 1289 603 
Q 1406 481 1766 481 
L 2356 481 
L 2356 0 
L 1766 0 
Q 1100 0 847 248 
Q 594 497 594 1153 
L 594 3053 
L 172 3053 
L 172 3500 
L 594 3500 
L 594 4494 
L 1172 4494 
z
" transform="scale(0.015625)"/>
      </defs>
      <use xlink:href="#DejaVuSans-44"/>
      <use xlink:href="#DejaVuSans-65" x="77.001953"/>
      <use xlink:href="#DejaVuSans-6e" x="138.525391"/>
      <use xlink:href="#DejaVuSans-73" x="201.904297"/>
      <use xlink:href="#DejaVuSans-69" x="254.003906"/>
      <use xlink:href="#DejaVuSans-74" x="281.787109"/>
      <use xlink:href="#DejaVuSans-69" x="320.996094"/>
      <use xlink:href="#DejaVuSans-65" x="348.779297"/>
      <use xlink:href="#DejaVuSans-73" x="410.302734"/>
      <use xlink:href="#DejaVuSans-20" x="462.402344"/>
      <use xlink:href="#DejaVuSans-6f" x="494.189453"/>
      <use xlink:href="#DejaVuSans-66" x="555.371094"/>
      <use xlink:href="#DejaVuSans-20" x="590.576172"/>
      <use xlink:href="#DejaVuSans-73" x="622.363281"/>
      <use xlink:href="#DejaVuSans-61" x="674.462891"/>
      <use xlink:href="#DejaVuSans-6d" x="735.742188"/>
      <use xlink:href="#DejaVuSans-70" x="833.154297"/>
      <use xlink:href="#DejaVuSans-6c" x="896.630859"/>
      <use xlink:href="#DejaVuSans-65" x="924.414062"/>
      <use xlink:href="#DejaVuSans-73" x="985.9375"/>
     </g>
    </g>
   </g>
   <g id="patch_3">
    <path d="M 126 448.56 
L 126 60.48 
" style="fill: none; stroke: #000000; stroke-width: 0.8; stroke-linejoin: miter; stroke-linecap: square"/>
   </g>
   <g id="patch_4">
    <path d="M 907.2 448.56 
L 907.2 60.48 
" style="fill: none; stroke: #000000; stroke-width: 0.8; stroke-linejoin: miter; stroke-linecap: square"/>
   </g>
   <g id="patch_5">
    <path d="M 126 448.56 
L 907.2 448.56 
" style="fill: none; stroke: #000000; stroke-width: 0.8; stroke-linejoin: miter; stroke-linecap: square"/>
   </g>
   <g id="patch_6">
    <path d="M 126 60.48 
L 907.2 60.48 
" style="fill: none; stroke: #000000; stroke-width: 0.8; stroke-linejoin: miter; stroke-linecap: square"/>
   </g>
   <g id="legend_1">
    <g id="patch_7">
     <path d="M 134.4 122.92125 
L 222.47625 122.92125 
Q 224.87625 122.92125 224.87625 120.52125 
L 224.87625 68.88 
Q 224.87625 66.48 222.47625 66.48 
L 134.4 66.48 
Q 132 66.48 132 68.88 
L 132 120.52125 
Q 132 122.92125 134.4 122.92125 
z
" style="fill: #ffffff; opacity: 0.8; stroke: #cccccc; stroke-linejoin: miter"/>
    </g>
    <g id="patch_8">
     <path d="M 136.8 80.398125 
L 160.8 80.398125 
L 160.8 71.998125 
L 136.8 71.998125 
z
" style="fill: #ffd700; fill-opacity: 0.8; stroke: #ffd700; stroke-linejoin: miter"/>
    </g>
    <g id="text_15">
     <!-- Random -->
     <g transform="translate(170.4 80.398125) scale(0.12 -0.12)">
      <defs>
       <path id="DejaVuSans-52" d="M 2841 2188 
Q 3044 2119 3236 1894 
Q 3428 1669 3622 1275 
L 4263 0 
L 3584 0 
L 2988 1197 
Q 2756 1666 2539 1819 
Q 2322 1972 1947 1972 
L 1259 1972 
L 1259 0 
L 628 0 
L 628 4666 
L 2053 4666 
Q 2853 4666 3247 4331 
Q 3641 3997 3641 3322 
Q 3641 2881 3436 2590 
Q 3231 2300 2841 2188 
z
M 1259 4147 
L 1259 2491 
L 2053 2491 
Q 2509 2491 2742 2702 
Q 2975 2913 2975 3322 
Q 2975 3731 2742 3939 
Q 2509 4147 2053 4147 
L 1259 4147 
z
" transform="scale(0.015625)"/>
       <path id="DejaVuSans-64" d="M 2906 2969 
L 2906 4863 
L 3481 4863 
L 3481 0 
L 2906 0 
L 2906 525 
Q 2725 213 2448 61 
Q 2172 -91 1784 -91 
Q 1150 -91 751 415 
Q 353 922 353 1747 
Q 353 2572 751 3078 
Q 1150 3584 1784 3584 
Q 2172 3584 2448 3432 
Q 2725 3281 2906 2969 
z
M 947 1747 
Q 947 1113 1208 752 
Q 1469 391 1925 391 
Q 2381 391 2643 752 
Q 2906 1113 2906 1747 
Q 2906 2381 2643 2742 
Q 2381 3103 1925 3103 
Q 1469 3103 1208 2742 
Q 947 2381 947 1747 
z
" transform="scale(0.015625)"/>
      </defs>
      <use xlink:href="#DejaVuSans-52"/>
      <use xlink:href="#DejaVuSans-61" x="67.232422"/>
      <use xlink:href="#DejaVuSans-6e" x="128.511719"/>
      <use xlink:href="#DejaVuSans-64" x="191.890625"/>
      <use xlink:href="#DejaVuSans-6f" x="255.367188"/>
      <use xlink:href="#DejaVuSans-6d" x="316.548828"/>
     </g>
    </g>
    <g id="patch_9">
     <path d="M 136.8 98.011875 
L 160.8 98.011875 
L 160.8 89.611875 
L 136.8 89.611875 
z
" style="fill: #32cd32; fill-opacity: 0.8; stroke: #32cd32; stroke-linejoin: miter"/>
    </g>
    <g id="text_16">
     <!-- Real -->
     <g transform="translate(170.4 98.011875) scale(0.12 -0.12)">
      <use xlink:href="#DejaVuSans-52"/>
      <use xlink:href="#DejaVuSans-65" x="64.982422"/>
      <use xlink:href="#DejaVuSans-61" x="126.505859"/>
      <use xlink:href="#DejaVuSans-6c" x="187.785156"/>
     </g>
    </g>
    <g id="patch_10">
     <path d="M 136.8 115.625625 
L 160.8 115.625625 
L 160.8 107.225625 
L 136.8 107.225625 
z
" style="fill: #4682b4; fill-opacity: 0.8; stroke: #4682b4; stroke-linejoin: miter"/>
    </g>
    <g id="text_17">
     <!-- Real' -->
     <g transform="translate(170.4 115.625625) scale(0.12 -0.12)">
      <defs>
       <path id="DejaVuSans-27" d="M 1147 4666 
L 1147 2931 
L 616 2931 
L 616 4666 
L 1147 4666 
z
" transform="scale(0.015625)"/>
      </defs>
      <use xlink:href="#DejaVuSans-52"/>
      <use xlink:href="#DejaVuSans-65" x="64.982422"/>
      <use xlink:href="#DejaVuSans-61" x="126.505859"/>
      <use xlink:href="#DejaVuSans-6c" x="187.785156"/>
      <use xlink:href="#DejaVuSans-27" x="215.568359"/>
     </g>
    </g>
   </g>
  </g>
 </g>
 <defs>
  <clipPath id="p6ab2b382b1">
   <rect x="126" y="60.48" width="781.2" height="388.08"/>
  </clipPath>
 </defs>
</svg>
