<?xml version="1.0" encoding="utf-8" standalone="no"?>
<!DOCTYPE svg PUBLIC "-//W3C//DTD SVG 1.1//EN"
  "http://www.w3.org/Graphics/SVG/1.1/DTD/svg11.dtd">
<svg xmlns:xlink="http://www.w3.org/1999/xlink" width="1008pt" height="504pt" viewBox="0 0 1008 504" xmlns="http://www.w3.org/2000/svg" version="1.1">
 <metadata>
  <rdf:RDF xmlns:dc="http://purl.org/dc/elements/1.1/" xmlns:cc="http://creativecommons.org/ns#" xmlns:rdf="http://www.w3.org/1999/02/22-rdf-syntax-ns#">
   <cc:Work>
    <dc:type rdf:resource="http://purl.org/dc/dcmitype/StillImage"/>
    <dc:date>2024-12-15T17:28:56.606955</dc:date>
    <dc:format>image/svg+xml</dc:format>
    <dc:creator>
     <cc:Agent>
      <dc:title>Matplotlib v3.7.2, https://matplotlib.org/</dc:title>
     </cc:Agent>
    </dc:creator>
   </cc:Work>
  </rdf:RDF>
 </metadata>
 <defs>
  <style type="text/css">*{stroke-linejoin: round; stroke-linecap: butt}</style>
 </defs>
 <g id="figure_1">
  <g id="patch_1">
   <path d="M 0 504 
L 1008 504 
L 1008 0 
L 0 0 
z
" style="fill: #ffffff"/>
  </g>
  <g id="axes_1">
   <g id="patch_2">
    <path d="M 126 448.56 
L 907.2 448.56 
L 907.2 60.48 
L 126 60.48 
z
" style="fill: #ffffff"/>
   </g>
   <g id="PolyCollection_1">
    <defs>
     <path id="m44d6c2be50" d="M 167.650509 -55.440032 
L 167.650509 -55.44 
L 171.130069 -55.44 
L 174.609629 -55.44 
L 178.089188 -55.44 
L 181.568748 -55.44 
L 185.048308 -55.44 
L 188.527868 -55.44 
L 192.007427 -55.44 
L 195.486987 -55.44 
L 198.966547 -55.44 
L 202.446107 -55.44 
L 205.925666 -55.44 
L 209.405226 -55.44 
L 212.884786 -55.44 
L 216.364346 -55.44 
L 219.843906 -55.44 
L 223.323465 -55.44 
L 226.803025 -55.44 
L 230.282585 -55.44 
L 233.762145 -55.44 
L 237.241704 -55.44 
L 240.721264 -55.44 
L 244.200824 -55.44 
L 247.680384 -55.44 
L 251.159943 -55.44 
L 254.639503 -55.44 
L 258.119063 -55.44 
L 261.598623 -55.44 
L 265.078183 -55.44 
L 268.557742 -55.44 
L 272.037302 -55.44 
L 275.516862 -55.44 
L 278.996422 -55.44 
L 282.475981 -55.44 
L 285.955541 -55.44 
L 289.435101 -55.44 
L 292.914661 -55.44 
L 296.39422 -55.44 
L 299.87378 -55.44 
L 303.35334 -55.44 
L 306.8329 -55.44 
L 310.31246 -55.44 
L 313.792019 -55.44 
L 317.271579 -55.44 
L 320.751139 -55.44 
L 324.230699 -55.44 
L 327.710258 -55.44 
L 331.189818 -55.44 
L 334.669378 -55.44 
L 338.148938 -55.44 
L 341.628497 -55.44 
L 345.108057 -55.44 
L 348.587617 -55.44 
L 352.067177 -55.44 
L 355.546736 -55.44 
L 359.026296 -55.44 
L 362.505856 -55.44 
L 365.985416 -55.44 
L 369.464976 -55.44 
L 372.944535 -55.44 
L 376.424095 -55.44 
L 379.903655 -55.44 
L 383.383215 -55.44 
L 386.862774 -55.44 
L 390.342334 -55.44 
L 393.821894 -55.44 
L 397.301454 -55.44 
L 400.781013 -55.44 
L 404.260573 -55.44 
L 407.740133 -55.44 
L 411.219693 -55.44 
L 414.699253 -55.44 
L 418.178812 -55.44 
L 421.658372 -55.44 
L 425.137932 -55.44 
L 428.617492 -55.44 
L 432.097051 -55.44 
L 435.576611 -55.44 
L 439.056171 -55.44 
L 442.535731 -55.44 
L 446.01529 -55.44 
L 449.49485 -55.44 
L 452.97441 -55.44 
L 456.45397 -55.44 
L 459.933529 -55.44 
L 463.413089 -55.44 
L 466.892649 -55.44 
L 470.372209 -55.44 
L 473.851769 -55.44 
L 477.331328 -55.44 
L 480.810888 -55.44 
L 484.290448 -55.44 
L 487.770008 -55.44 
L 491.249567 -55.44 
L 494.729127 -55.44 
L 498.208687 -55.44 
L 501.688247 -55.44 
L 505.167806 -55.44 
L 508.647366 -55.44 
L 512.126926 -55.44 
L 515.606486 -55.44 
L 519.086046 -55.44 
L 522.565605 -55.44 
L 526.045165 -55.44 
L 529.524725 -55.44 
L 533.004285 -55.44 
L 536.483844 -55.44 
L 539.963404 -55.44 
L 543.442964 -55.44 
L 546.922524 -55.44 
L 550.402083 -55.44 
L 553.881643 -55.44 
L 557.361203 -55.44 
L 560.840763 -55.44 
L 564.320323 -55.44 
L 567.799882 -55.44 
L 571.279442 -55.44 
L 574.759002 -55.44 
L 578.238562 -55.44 
L 581.718121 -55.44 
L 585.197681 -55.44 
L 588.677241 -55.44 
L 592.156801 -55.44 
L 595.63636 -55.44 
L 599.11592 -55.44 
L 602.59548 -55.44 
L 606.07504 -55.44 
L 609.554599 -55.44 
L 613.034159 -55.44 
L 616.513719 -55.44 
L 619.993279 -55.44 
L 623.472839 -55.44 
L 626.952398 -55.44 
L 630.431958 -55.44 
L 633.911518 -55.44 
L 637.391078 -55.44 
L 640.870637 -55.44 
L 644.350197 -55.44 
L 647.829757 -55.44 
L 651.309317 -55.44 
L 654.788876 -55.44 
L 658.268436 -55.44 
L 661.747996 -55.44 
L 665.227556 -55.44 
L 668.707116 -55.44 
L 672.186675 -55.44 
L 675.666235 -55.44 
L 679.145795 -55.44 
L 682.625355 -55.44 
L 686.104914 -55.44 
L 689.584474 -55.44 
L 693.064034 -55.44 
L 696.543594 -55.44 
L 700.023153 -55.44 
L 703.502713 -55.44 
L 706.982273 -55.44 
L 710.461833 -55.44 
L 713.941392 -55.44 
L 717.420952 -55.44 
L 720.900512 -55.44 
L 724.380072 -55.44 
L 727.859632 -55.44 
L 731.339191 -55.44 
L 734.818751 -55.44 
L 738.298311 -55.44 
L 741.777871 -55.44 
L 745.25743 -55.44 
L 748.73699 -55.44 
L 752.21655 -55.44 
L 755.69611 -55.44 
L 759.175669 -55.44 
L 762.655229 -55.44 
L 766.134789 -55.44 
L 769.614349 -55.44 
L 773.093909 -55.44 
L 776.573468 -55.44 
L 780.053028 -55.44 
L 783.532588 -55.44 
L 787.012148 -55.44 
L 790.491707 -55.44 
L 793.971267 -55.44 
L 797.450827 -55.44 
L 800.930387 -55.44 
L 804.409946 -55.44 
L 807.889506 -55.44 
L 811.369066 -55.44 
L 814.848626 -55.44 
L 818.328186 -55.44 
L 821.807745 -55.44 
L 825.287305 -55.44 
L 828.766865 -55.44 
L 832.246425 -55.44 
L 835.725984 -55.44 
L 839.205544 -55.44 
L 842.685104 -55.44 
L 846.164664 -55.44 
L 849.644223 -55.44 
L 853.123783 -55.44 
L 856.603343 -55.44 
L 860.082903 -55.44 
L 860.082903 -55.441805 
L 860.082903 -55.441805 
L 856.603343 -55.456144 
L 853.123783 -55.53756 
L 849.644223 -55.845396 
L 846.164664 -56.626353 
L 842.685104 -57.966047 
L 839.205544 -59.528867 
L 835.725984 -60.763117 
L 832.246425 -61.390249 
L 828.766865 -61.521376 
L 825.287305 -61.391118 
L 821.807745 -61.170312 
L 818.328186 -60.959897 
L 814.848626 -60.803947 
L 811.369066 -60.699713 
L 807.889506 -60.627923 
L 804.409946 -60.568292 
L 800.930387 -60.508148 
L 797.450827 -60.451326 
L 793.971267 -60.406789 
L 790.491707 -60.380714 
L 787.012148 -60.385082 
L 783.532588 -60.431936 
L 780.053028 -60.513488 
L 776.573468 -60.604748 
L 773.093909 -60.690776 
L 769.614349 -60.776586 
L 766.134789 -60.872379 
L 762.655229 -60.982842 
L 759.175669 -61.108182 
L 755.69611 -61.250106 
L 752.21655 -61.41468 
L 748.73699 -61.600755 
L 745.25743 -61.788873 
L 741.777871 -61.958707 
L 738.298311 -62.114698 
L 734.818751 -62.276093 
L 731.339191 -62.453259 
L 727.859632 -62.645525 
L 724.380072 -62.844858 
L 720.900512 -63.042614 
L 717.420952 -63.241628 
L 713.941392 -63.448839 
L 710.461833 -63.65749 
L 706.982273 -63.85408 
L 703.502713 -64.042237 
L 700.023153 -64.244508 
L 696.543594 -64.470137 
L 693.064034 -64.705048 
L 689.584474 -64.943122 
L 686.104914 -65.189532 
L 682.625355 -65.435965 
L 679.145795 -65.668855 
L 675.666235 -65.8936 
L 672.186675 -66.130519 
L 668.707116 -66.394295 
L 665.227556 -66.687332 
L 661.747996 -67.004176 
L 658.268436 -67.335791 
L 654.788876 -67.673859 
L 651.309317 -68.0079 
L 647.829757 -68.327451 
L 644.350197 -68.63825 
L 640.870637 -68.957357 
L 637.391078 -69.282735 
L 633.911518 -69.589922 
L 630.431958 -69.862922 
L 626.952398 -70.119445 
L 623.472839 -70.404341 
L 619.993279 -70.745141 
L 616.513719 -71.12359 
L 613.034159 -71.510368 
L 609.554599 -71.89733 
L 606.07504 -72.28597 
L 602.59548 -72.675736 
L 599.11592 -73.06421 
L 595.63636 -73.456434 
L 592.156801 -73.869447 
L 588.677241 -74.307913 
L 585.197681 -74.753353 
L 581.718121 -75.196878 
L 578.238562 -75.645235 
L 574.759002 -76.097683 
L 571.279442 -76.54762 
L 567.799882 -76.982382 
L 564.320323 -77.391437 
L 560.840763 -77.799877 
L 557.361203 -78.264125 
L 553.881643 -78.808191 
L 550.402083 -79.388609 
L 546.922524 -79.952858 
L 543.442964 -80.497944 
L 539.963404 -81.044617 
L 536.483844 -81.594577 
L 533.004285 -82.144518 
L 529.524725 -82.708684 
L 526.045165 -83.291227 
L 522.565605 -83.885339 
L 519.086046 -84.518907 
L 515.606486 -85.220565 
L 512.126926 -85.951629 
L 508.647366 -86.646127 
L 505.167806 -87.282081 
L 501.688247 -87.88229 
L 498.208687 -88.496517 
L 494.729127 -89.179592 
L 491.249567 -89.943539 
L 487.770008 -90.745733 
L 484.290448 -91.537202 
L 480.810888 -92.301142 
L 477.331328 -93.052351 
L 473.851769 -93.81799 
L 470.372209 -94.614815 
L 466.892649 -95.447547 
L 463.413089 -96.321576 
L 459.933529 -97.235658 
L 456.45397 -98.171156 
L 452.97441 -99.121118 
L 449.49485 -100.118456 
L 446.01529 -101.189774 
L 442.535731 -102.313542 
L 439.056171 -103.462806 
L 435.576611 -104.638931 
L 432.097051 -105.858407 
L 428.617492 -107.138724 
L 425.137932 -108.470091 
L 421.658372 -109.80995 
L 418.178812 -111.129269 
L 414.699253 -112.438368 
L 411.219693 -113.757486 
L 407.740133 -115.092548 
L 404.260573 -116.447809 
L 400.781013 -117.821364 
L 397.301454 -119.196412 
L 393.821894 -120.562821 
L 390.342334 -121.917681 
L 386.862774 -123.260656 
L 383.383215 -124.621469 
L 379.903655 -126.062171 
L 376.424095 -127.611844 
L 372.944535 -129.226198 
L 369.464976 -130.868895 
L 365.985416 -132.577492 
L 362.505856 -134.399372 
L 359.026296 -136.332623 
L 355.546736 -138.343979 
L 352.067177 -140.382437 
L 348.587617 -142.371041 
L 345.108057 -144.24847 
L 341.628497 -146.021872 
L 338.148938 -147.724471 
L 334.669378 -149.369225 
L 331.189818 -151.006822 
L 327.710258 -152.748859 
L 324.230699 -154.690209 
L 320.751139 -156.892142 
L 317.271579 -159.4357 
L 313.792019 -162.418804 
L 310.31246 -165.926826 
L 306.8329 -170.01052 
L 303.35334 -174.673215 
L 299.87378 -179.921886 
L 296.39422 -185.820111 
L 292.914661 -192.485184 
L 289.435101 -200.059046 
L 285.955541 -208.558594 
L 282.475981 -217.625697 
L 278.996422 -226.434134 
L 275.516862 -233.832735 
L 272.037302 -238.685732 
L 268.557742 -240.259148 
L 265.078183 -238.36 
L 261.598623 -233.292963 
L 258.119063 -225.830492 
L 254.639503 -217.099557 
L 251.159943 -208.256235 
L 247.680384 -200.107584 
L 244.200824 -193.052662 
L 240.721264 -187.259 
L 237.241704 -182.427679 
L 233.762145 -177.231632 
L 230.282585 -169.579941 
L 226.803025 -157.990094 
L 223.323465 -142.631934 
L 219.843906 -124.976197 
L 216.364346 -106.82769 
L 212.884786 -89.936202 
L 209.405226 -75.992986 
L 205.925666 -66.151299 
L 202.446107 -60.36772 
L 198.966547 -57.536608 
L 195.486987 -56.330444 
L 192.007427 -55.836162 
L 188.527868 -55.618245 
L 185.048308 -55.514435 
L 181.568748 -55.46664 
L 178.089188 -55.447686 
L 174.609629 -55.4417 
L 171.130069 -55.440276 
L 167.650509 -55.440032 
z
" style="stroke: #ffd700"/>
    </defs>
    <g clip-path="url(#p7db4a61672)">
     <use xlink:href="#m44d6c2be50" x="0" y="504" style="fill: #ffd700; fill-opacity: 0.8; stroke: #ffd700"/>
    </g>
   </g>
   <g id="PolyCollection_2">
    <defs>
     <path id="mbe60c54c6d" d="M 161.509091 -55.440006 
L 161.509091 -55.44 
L 165.060717 -55.44 
L 168.612343 -55.44 
L 172.163969 -55.44 
L 175.715595 -55.44 
L 179.267222 -55.44 
L 182.818848 -55.44 
L 186.370474 -55.44 
L 189.9221 -55.44 
L 193.473726 -55.44 
L 197.025352 -55.44 
L 200.576979 -55.44 
L 204.128605 -55.44 
L 207.680231 -55.44 
L 211.231857 -55.44 
L 214.783483 -55.44 
L 218.335109 -55.44 
L 221.886735 -55.44 
L 225.438362 -55.44 
L 228.989988 -55.44 
L 232.541614 -55.44 
L 236.09324 -55.44 
L 239.644866 -55.44 
L 243.196492 -55.44 
L 246.748118 -55.44 
L 250.299745 -55.44 
L 253.851371 -55.44 
L 257.402997 -55.44 
L 260.954623 -55.44 
L 264.506249 -55.44 
L 268.057875 -55.44 
L 271.609501 -55.44 
L 275.161128 -55.44 
L 278.712754 -55.44 
L 282.26438 -55.44 
L 285.816006 -55.44 
L 289.367632 -55.44 
L 292.919258 -55.44 
L 296.470884 -55.44 
L 300.022511 -55.44 
L 303.574137 -55.44 
L 307.125763 -55.44 
L 310.677389 -55.44 
L 314.229015 -55.44 
L 317.780641 -55.44 
L 321.332268 -55.44 
L 324.883894 -55.44 
L 328.43552 -55.44 
L 331.987146 -55.44 
L 335.538772 -55.44 
L 339.090398 -55.44 
L 342.642024 -55.44 
L 346.193651 -55.44 
L 349.745277 -55.44 
L 353.296903 -55.44 
L 356.848529 -55.44 
L 360.400155 -55.44 
L 363.951781 -55.44 
L 367.503407 -55.44 
L 371.055034 -55.44 
L 374.60666 -55.44 
L 378.158286 -55.44 
L 381.709912 -55.44 
L 385.261538 -55.44 
L 388.813164 -55.44 
L 392.36479 -55.44 
L 395.916417 -55.44 
L 399.468043 -55.44 
L 403.019669 -55.44 
L 406.571295 -55.44 
L 410.122921 -55.44 
L 413.674547 -55.44 
L 417.226173 -55.44 
L 420.7778 -55.44 
L 424.329426 -55.44 
L 427.881052 -55.44 
L 431.432678 -55.44 
L 434.984304 -55.44 
L 438.53593 -55.44 
L 442.087556 -55.44 
L 445.639183 -55.44 
L 449.190809 -55.44 
L 452.742435 -55.44 
L 456.294061 -55.44 
L 459.845687 -55.44 
L 463.397313 -55.44 
L 466.94894 -55.44 
L 470.500566 -55.44 
L 474.052192 -55.44 
L 477.603818 -55.44 
L 481.155444 -55.44 
L 484.70707 -55.44 
L 488.258696 -55.44 
L 491.810323 -55.44 
L 495.361949 -55.44 
L 498.913575 -55.44 
L 502.465201 -55.44 
L 506.016827 -55.44 
L 509.568453 -55.44 
L 513.120079 -55.44 
L 516.671706 -55.44 
L 520.223332 -55.44 
L 523.774958 -55.44 
L 527.326584 -55.44 
L 530.87821 -55.44 
L 534.429836 -55.44 
L 537.981462 -55.44 
L 541.533089 -55.44 
L 545.084715 -55.44 
L 548.636341 -55.44 
L 552.187967 -55.44 
L 555.739593 -55.44 
L 559.291219 -55.44 
L 562.842845 -55.44 
L 566.394472 -55.44 
L 569.946098 -55.44 
L 573.497724 -55.44 
L 577.04935 -55.44 
L 580.600976 -55.44 
L 584.152602 -55.44 
L 587.704229 -55.44 
L 591.255855 -55.44 
L 594.807481 -55.44 
L 598.359107 -55.44 
L 601.910733 -55.44 
L 605.462359 -55.44 
L 609.013985 -55.44 
L 612.565612 -55.44 
L 616.117238 -55.44 
L 619.668864 -55.44 
L 623.22049 -55.44 
L 626.772116 -55.44 
L 630.323742 -55.44 
L 633.875368 -55.44 
L 637.426995 -55.44 
L 640.978621 -55.44 
L 644.530247 -55.44 
L 648.081873 -55.44 
L 651.633499 -55.44 
L 655.185125 -55.44 
L 658.736751 -55.44 
L 662.288378 -55.44 
L 665.840004 -55.44 
L 669.39163 -55.44 
L 672.943256 -55.44 
L 676.494882 -55.44 
L 680.046508 -55.44 
L 683.598134 -55.44 
L 687.149761 -55.44 
L 690.701387 -55.44 
L 694.253013 -55.44 
L 697.804639 -55.44 
L 701.356265 -55.44 
L 704.907891 -55.44 
L 708.459517 -55.44 
L 712.011144 -55.44 
L 715.56277 -55.44 
L 719.114396 -55.44 
L 722.666022 -55.44 
L 726.217648 -55.44 
L 729.769274 -55.44 
L 733.320901 -55.44 
L 736.872527 -55.44 
L 740.424153 -55.44 
L 743.975779 -55.44 
L 747.527405 -55.44 
L 751.079031 -55.44 
L 754.630657 -55.44 
L 758.182284 -55.44 
L 761.73391 -55.44 
L 765.285536 -55.44 
L 768.837162 -55.44 
L 772.388788 -55.44 
L 775.940414 -55.44 
L 779.49204 -55.44 
L 783.043667 -55.44 
L 786.595293 -55.44 
L 790.146919 -55.44 
L 793.698545 -55.44 
L 797.250171 -55.44 
L 800.801797 -55.44 
L 804.353423 -55.44 
L 807.90505 -55.44 
L 811.456676 -55.44 
L 815.008302 -55.44 
L 818.559928 -55.44 
L 822.111554 -55.44 
L 825.66318 -55.44 
L 829.214806 -55.44 
L 832.766433 -55.44 
L 836.318059 -55.44 
L 839.869685 -55.44 
L 843.421311 -55.44 
L 846.972937 -55.44 
L 850.524563 -55.44 
L 854.07619 -55.44 
L 857.627816 -55.44 
L 861.179442 -55.44 
L 864.731068 -55.44 
L 868.282694 -55.44 
L 868.282694 -55.944276 
L 868.282694 -55.944276 
L 864.731068 -57.608644 
L 861.179442 -63.132226 
L 857.627816 -78.009046 
L 854.07619 -110.418169 
L 850.524563 -167.179485 
L 846.972937 -246.158466 
L 843.421311 -331.226378 
L 839.869685 -397.384647 
L 836.318059 -424.94151 
L 832.766433 -411.03438 
L 829.214806 -368.652899 
L 825.66318 -316.012713 
L 822.111554 -266.708452 
L 818.559928 -226.692122 
L 815.008302 -196.430005 
L 811.456676 -174.082362 
L 807.90505 -157.493636 
L 804.353423 -144.928679 
L 800.801797 -135.16833 
L 797.250171 -127.406133 
L 793.698545 -121.124631 
L 790.146919 -115.995169 
L 786.595293 -111.801926 
L 783.043667 -108.38548 
L 779.49204 -105.607372 
L 775.940414 -103.338297 
L 772.388788 -101.463035 
L 768.837162 -99.887767 
L 765.285536 -98.541081 
L 761.73391 -97.370224 
L 758.182284 -96.336511 
L 754.630657 -95.411218 
L 751.079031 -94.573209 
L 747.527405 -93.809681 
L 743.975779 -93.117238 
L 740.424153 -92.49799 
L 736.872527 -91.951013 
L 733.320901 -91.466629 
L 729.769274 -91.028589 
L 726.217648 -90.621153 
L 722.666022 -90.235067 
L 719.114396 -89.869811 
L 715.56277 -89.532471 
L 712.011144 -89.233487 
L 708.459517 -88.979455 
L 704.907891 -88.766326 
L 701.356265 -88.578888 
L 697.804639 -88.398277 
L 694.253013 -88.212322 
L 690.701387 -88.021872 
L 687.149761 -87.839616 
L 683.598134 -87.681921 
L 680.046508 -87.558478 
L 676.494882 -87.466562 
L 672.943256 -87.393902 
L 669.39163 -87.328219 
L 665.840004 -87.266465 
L 662.288378 -87.215772 
L 658.736751 -87.184146 
L 655.185125 -87.169439 
L 651.633499 -87.158453 
L 648.081873 -87.137402 
L 644.530247 -87.102094 
L 640.978621 -87.057794 
L 637.426995 -87.011763 
L 633.875368 -86.967377 
L 630.323742 -86.923115 
L 626.772116 -86.874813 
L 623.22049 -86.819705 
L 619.668864 -86.759343 
L 616.117238 -86.697661 
L 612.565612 -86.636148 
L 609.013985 -86.573471 
L 605.462359 -86.51173 
L 601.910733 -86.461314 
L 598.359107 -86.435657 
L 594.807481 -86.439175 
L 591.255855 -86.461629 
L 587.704229 -86.485586 
L 584.152602 -86.498293 
L 580.600976 -86.496657 
L 577.04935 -86.485451 
L 573.497724 -86.474512 
L 569.946098 -86.474742 
L 566.394472 -86.490854 
L 562.842845 -86.516103 
L 559.291219 -86.536389 
L 555.739593 -86.542013 
L 552.187967 -86.536852 
L 548.636341 -86.536391 
L 545.084715 -86.555413 
L 541.533089 -86.595658 
L 537.981462 -86.645161 
L 534.429836 -86.689967 
L 530.87821 -86.725949 
L 527.326584 -86.759311 
L 523.774958 -86.797043 
L 520.223332 -86.837675 
L 516.671706 -86.871199 
L 513.120079 -86.888187 
L 509.568453 -86.888988 
L 506.016827 -86.884059 
L 502.465201 -86.88627 
L 498.913575 -86.902629 
L 495.361949 -86.930426 
L 491.810323 -86.958734 
L 488.258696 -86.974181 
L 484.70707 -86.968381 
L 481.155444 -86.943588 
L 477.603818 -86.91315 
L 474.052192 -86.894239 
L 470.500566 -86.896238 
L 466.94894 -86.915632 
L 463.397313 -86.943746 
L 459.845687 -86.978094 
L 456.294061 -87.023185 
L 452.742435 -87.080603 
L 449.190809 -87.142097 
L 445.639183 -87.195909 
L 442.087556 -87.240153 
L 438.53593 -87.28703 
L 434.984304 -87.351696 
L 431.432678 -87.43822 
L 427.881052 -87.537388 
L 424.329426 -87.635461 
L 420.7778 -87.722599 
L 417.226173 -87.794891 
L 413.674547 -87.851804 
L 410.122921 -87.892134 
L 406.571295 -87.910633 
L 403.019669 -87.898036 
L 399.468043 -87.845784 
L 395.916417 -87.752187 
L 392.36479 -87.624533 
L 388.813164 -87.475765 
L 385.261538 -87.320045 
L 381.709912 -87.171238 
L 378.158286 -87.042685 
L 374.60666 -86.944214 
L 371.055034 -86.877013 
L 367.503407 -86.831922 
L 363.951781 -86.793993 
L 360.400155 -86.74908 
L 356.848529 -86.686495 
L 353.296903 -86.597455 
L 349.745277 -86.473354 
L 346.193651 -86.30587 
L 342.642024 -86.088091 
L 339.090398 -85.817158 
L 335.538772 -85.499263 
L 331.987146 -85.15375 
L 328.43552 -84.811174 
L 324.883894 -84.505521 
L 321.332268 -84.26616 
L 317.780641 -84.113263 
L 314.229015 -84.055765 
L 310.677389 -84.090806 
L 307.125763 -84.207127 
L 303.574137 -84.394787 
L 300.022511 -84.656411 
L 296.470884 -85.008677 
L 292.919258 -85.467419 
L 289.367632 -86.023229 
L 285.816006 -86.622599 
L 282.26438 -87.165505 
L 278.712754 -87.520332 
L 275.161128 -87.550286 
L 271.609501 -87.143854 
L 268.057875 -86.242443 
L 264.506249 -84.858302 
L 260.954623 -83.075548 
L 257.402997 -81.030417 
L 253.851371 -78.875821 
L 250.299745 -76.744763 
L 246.748118 -74.727512 
L 243.196492 -72.865352 
L 239.644866 -71.151496 
L 236.09324 -69.534003 
L 232.541614 -67.930523 
L 228.989988 -66.264134 
L 225.438362 -64.506905 
L 221.886735 -62.702042 
L 218.335109 -60.949383 
L 214.783483 -59.366464 
L 211.231857 -58.048995 
L 207.680231 -57.045849 
L 204.128605 -56.352058 
L 200.576979 -55.918572 
L 197.025352 -55.673983 
L 193.473726 -55.548292 
L 189.9221 -55.488285 
L 186.370474 -55.460915 
L 182.818848 -55.44872 
L 179.267222 -55.443417 
L 175.715595 -55.441224 
L 172.163969 -55.440392 
L 168.612343 -55.44011 
L 165.060717 -55.440027 
L 161.509091 -55.440006 
z
" style="stroke: #32cd32"/>
    </defs>
    <g clip-path="url(#p7db4a61672)">
     <use xlink:href="#mbe60c54c6d" x="0" y="504" style="fill: #32cd32; fill-opacity: 0.8; stroke: #32cd32"/>
    </g>
   </g>
   <g id="PolyCollection_3">
    <defs>
     <path id="m9b59edbcf0" d="M 164.6125 -55.440005 
L 164.6125 -55.44 
L 168.165658 -55.44 
L 171.718816 -55.44 
L 175.271974 -55.44 
L 178.825132 -55.44 
L 182.378289 -55.44 
L 185.931447 -55.44 
L 189.484605 -55.44 
L 193.037763 -55.44 
L 196.590921 -55.44 
L 200.144079 -55.44 
L 203.697236 -55.44 
L 207.250394 -55.44 
L 210.803552 -55.44 
L 214.35671 -55.44 
L 217.909868 -55.44 
L 221.463026 -55.44 
L 225.016183 -55.44 
L 228.569341 -55.44 
L 232.122499 -55.44 
L 235.675657 -55.44 
L 239.228815 -55.44 
L 242.781973 -55.44 
L 246.33513 -55.44 
L 249.888288 -55.44 
L 253.441446 -55.44 
L 256.994604 -55.44 
L 260.547762 -55.44 
L 264.10092 -55.44 
L 267.654077 -55.44 
L 271.207235 -55.44 
L 274.760393 -55.44 
L 278.313551 -55.44 
L 281.866709 -55.44 
L 285.419867 -55.44 
L 288.973024 -55.44 
L 292.526182 -55.44 
L 296.07934 -55.44 
L 299.632498 -55.44 
L 303.185656 -55.44 
L 306.738814 -55.44 
L 310.291971 -55.44 
L 313.845129 -55.44 
L 317.398287 -55.44 
L 320.951445 -55.44 
L 324.504603 -55.44 
L 328.057761 -55.44 
L 331.610918 -55.44 
L 335.164076 -55.44 
L 338.717234 -55.44 
L 342.270392 -55.44 
L 345.82355 -55.44 
L 349.376708 -55.44 
L 352.929865 -55.44 
L 356.483023 -55.44 
L 360.036181 -55.44 
L 363.589339 -55.44 
L 367.142497 -55.44 
L 370.695655 -55.44 
L 374.248812 -55.44 
L 377.80197 -55.44 
L 381.355128 -55.44 
L 384.908286 -55.44 
L 388.461444 -55.44 
L 392.014602 -55.44 
L 395.567759 -55.44 
L 399.120917 -55.44 
L 402.674075 -55.44 
L 406.227233 -55.44 
L 409.780391 -55.44 
L 413.333549 -55.44 
L 416.886706 -55.44 
L 420.439864 -55.44 
L 423.993022 -55.44 
L 427.54618 -55.44 
L 431.099338 -55.44 
L 434.652496 -55.44 
L 438.205653 -55.44 
L 441.758811 -55.44 
L 445.311969 -55.44 
L 448.865127 -55.44 
L 452.418285 -55.44 
L 455.971443 -55.44 
L 459.5246 -55.44 
L 463.077758 -55.44 
L 466.630916 -55.44 
L 470.184074 -55.44 
L 473.737232 -55.44 
L 477.29039 -55.44 
L 480.843547 -55.44 
L 484.396705 -55.44 
L 487.949863 -55.44 
L 491.503021 -55.44 
L 495.056179 -55.44 
L 498.609337 -55.44 
L 502.162494 -55.44 
L 505.715652 -55.44 
L 509.26881 -55.44 
L 512.821968 -55.44 
L 516.375126 -55.44 
L 519.928284 -55.44 
L 523.481441 -55.44 
L 527.034599 -55.44 
L 530.587757 -55.44 
L 534.140915 -55.44 
L 537.694073 -55.44 
L 541.247231 -55.44 
L 544.800388 -55.44 
L 548.353546 -55.44 
L 551.906704 -55.44 
L 555.459862 -55.44 
L 559.01302 -55.44 
L 562.566178 -55.44 
L 566.119335 -55.44 
L 569.672493 -55.44 
L 573.225651 -55.44 
L 576.778809 -55.44 
L 580.331967 -55.44 
L 583.885125 -55.44 
L 587.438282 -55.44 
L 590.99144 -55.44 
L 594.544598 -55.44 
L 598.097756 -55.44 
L 601.650914 -55.44 
L 605.204072 -55.44 
L 608.757229 -55.44 
L 612.310387 -55.44 
L 615.863545 -55.44 
L 619.416703 -55.44 
L 622.969861 -55.44 
L 626.523019 -55.44 
L 630.076176 -55.44 
L 633.629334 -55.44 
L 637.182492 -55.44 
L 640.73565 -55.44 
L 644.288808 -55.44 
L 647.841966 -55.44 
L 651.395123 -55.44 
L 654.948281 -55.44 
L 658.501439 -55.44 
L 662.054597 -55.44 
L 665.607755 -55.44 
L 669.160913 -55.44 
L 672.71407 -55.44 
L 676.267228 -55.44 
L 679.820386 -55.44 
L 683.373544 -55.44 
L 686.926702 -55.44 
L 690.47986 -55.44 
L 694.033017 -55.44 
L 697.586175 -55.44 
L 701.139333 -55.44 
L 704.692491 -55.44 
L 708.245649 -55.44 
L 711.798807 -55.44 
L 715.351964 -55.44 
L 718.905122 -55.44 
L 722.45828 -55.44 
L 726.011438 -55.44 
L 729.564596 -55.44 
L 733.117754 -55.44 
L 736.670911 -55.44 
L 740.224069 -55.44 
L 743.777227 -55.44 
L 747.330385 -55.44 
L 750.883543 -55.44 
L 754.436701 -55.44 
L 757.989858 -55.44 
L 761.543016 -55.44 
L 765.096174 -55.44 
L 768.649332 -55.44 
L 772.20249 -55.44 
L 775.755648 -55.44 
L 779.308805 -55.44 
L 782.861963 -55.44 
L 786.415121 -55.44 
L 789.968279 -55.44 
L 793.521437 -55.44 
L 797.074595 -55.44 
L 800.627752 -55.44 
L 804.18091 -55.44 
L 807.734068 -55.44 
L 811.287226 -55.44 
L 814.840384 -55.44 
L 818.393542 -55.44 
L 821.946699 -55.44 
L 825.499857 -55.44 
L 829.053015 -55.44 
L 832.606173 -55.44 
L 836.159331 -55.44 
L 839.712489 -55.44 
L 843.265646 -55.44 
L 846.818804 -55.44 
L 850.371962 -55.44 
L 853.92512 -55.44 
L 857.478278 -55.44 
L 861.031436 -55.44 
L 864.584593 -55.44 
L 868.137751 -55.44 
L 871.690909 -55.44 
L 871.690909 -55.938774 
L 871.690909 -55.938774 
L 868.137751 -57.589277 
L 864.584593 -63.07724 
L 861.031436 -77.883495 
L 857.478278 -110.188843 
L 853.92512 -166.848056 
L 850.371962 -245.789128 
L 846.818804 -330.932021 
L 843.265646 -397.268549 
L 839.712489 -425.04 
L 836.159331 -411.306454 
L 832.606173 -369.014271 
L 829.053015 -316.377346 
L 825.499857 -267.012608 
L 821.946699 -226.903102 
L 818.393542 -196.54683 
L 814.840384 -174.125686 
L 811.287226 -157.485752 
L 807.734068 -144.879187 
L 804.18091 -135.078389 
L 800.627752 -127.283426 
L 797.074595 -120.990792 
L 793.521437 -115.878442 
L 789.968279 -111.723266 
L 786.415121 -108.349846 
L 782.861963 -105.604728 
L 779.308805 -103.350947 
L 775.755648 -101.473826 
L 772.20249 -99.885926 
L 768.649332 -98.524828 
L 765.096174 -97.34641 
L 761.543016 -96.318155 
L 757.989858 -95.414228 
L 754.436701 -94.613219 
L 750.883543 -93.898466 
L 747.330385 -93.257402 
L 743.777227 -92.677236 
L 740.224069 -92.14136 
L 736.670911 -91.632536 
L 733.117754 -91.140278 
L 729.564596 -90.664296 
L 726.011438 -90.211827 
L 722.45828 -89.793693 
L 718.905122 -89.421635 
L 715.351964 -89.104283 
L 711.798807 -88.841262 
L 708.245649 -88.621447 
L 704.692491 -88.429712 
L 701.139333 -88.256289 
L 697.586175 -88.098728 
L 694.033017 -87.955802 
L 690.47986 -87.822585 
L 686.926702 -87.693067 
L 683.373544 -87.566121 
L 679.820386 -87.447195 
L 676.267228 -87.344768 
L 672.71407 -87.265896 
L 669.160913 -87.212543 
L 665.607755 -87.178551 
L 662.054597 -87.150861 
L 658.501439 -87.117584 
L 654.948281 -87.076253 
L 651.395123 -87.033093 
L 647.841966 -86.994421 
L 644.288808 -86.959813 
L 640.73565 -86.922853 
L 637.182492 -86.876858 
L 633.629334 -86.819915 
L 630.076176 -86.75591 
L 626.523019 -86.691882 
L 622.969861 -86.634305 
L 619.416703 -86.586905 
L 615.863545 -86.550714 
L 612.310387 -86.525822 
L 608.757229 -86.513609 
L 605.204072 -86.516669 
L 601.650914 -86.534685 
L 598.097756 -86.560413 
L 594.544598 -86.582263 
L 590.99144 -86.592182 
L 587.438282 -86.589738 
L 583.885125 -86.578413 
L 580.331967 -86.560571 
L 576.778809 -86.537736 
L 573.225651 -86.514071 
L 569.672493 -86.496973 
L 566.119335 -86.493318 
L 562.566178 -86.50513 
L 559.01302 -86.528583 
L 555.459862 -86.556863 
L 551.906704 -86.584342 
L 548.353546 -86.609015 
L 544.800388 -86.632242 
L 541.247231 -86.657075 
L 537.694073 -86.68655 
L 534.140915 -86.722186 
L 530.587757 -86.76227 
L 527.034599 -86.800964 
L 523.481441 -86.831472 
L 519.928284 -86.853354 
L 516.375126 -86.875867 
L 512.821968 -86.909884 
L 509.26881 -86.955378 
L 505.715652 -86.999604 
L 502.162494 -87.028458 
L 498.609337 -87.037432 
L 495.056179 -87.030944 
L 491.503021 -87.014253 
L 487.949863 -86.98928 
L 484.396705 -86.957512 
L 480.843547 -86.923392 
L 477.29039 -86.893654 
L 473.737232 -86.875579 
L 470.184074 -86.876364 
L 466.630916 -86.900523 
L 463.077758 -86.945422 
L 459.5246 -87.001859 
L 455.971443 -87.0622 
L 452.418285 -87.127057 
L 448.865127 -87.201723 
L 445.311969 -87.287215 
L 441.758811 -87.377695 
L 438.205653 -87.466039 
L 434.652496 -87.548054 
L 431.099338 -87.620314 
L 427.54618 -87.678308 
L 423.993022 -87.720599 
L 420.439864 -87.752632 
L 416.886706 -87.781363 
L 413.333549 -87.805096 
L 409.780391 -87.812278 
L 406.227233 -87.792441 
L 402.674075 -87.745498 
L 399.120917 -87.677219 
L 395.567759 -87.588234 
L 392.014602 -87.473406 
L 388.461444 -87.333523 
L 384.908286 -87.183315 
L 381.355128 -87.044399 
L 377.80197 -86.931567 
L 374.248812 -86.847455 
L 370.695655 -86.786987 
L 367.142497 -86.74164 
L 363.589339 -86.699289 
L 360.036181 -86.644279 
L 356.483023 -86.560341 
L 352.929865 -86.434011 
L 349.376708 -86.257654 
L 345.82355 -86.032578 
L 342.270392 -85.769038 
L 338.717234 -85.480592 
L 335.164076 -85.178366 
L 331.610918 -84.873074 
L 328.057761 -84.582498 
L 324.504603 -84.333909 
L 320.951445 -84.156887 
L 317.398287 -84.072808 
L 313.845129 -84.088871 
L 310.291971 -84.19922 
L 306.738814 -84.392589 
L 303.185656 -84.663552 
L 299.632498 -85.018948 
L 296.07934 -85.469965 
L 292.526182 -86.010468 
L 288.973024 -86.594219 
L 285.419867 -87.125345 
L 281.866709 -87.468954 
L 278.313551 -87.480017 
L 274.760393 -87.041564 
L 271.207235 -86.098768 
L 267.654077 -84.676117 
L 264.10092 -82.870906 
L 260.547762 -80.825136 
L 256.994604 -78.687521 
L 253.441446 -76.581967 
L 249.888288 -74.591841 
L 246.33513 -72.755546 
L 242.781973 -71.064121 
L 239.228815 -69.461895 
L 235.675657 -67.862998 
L 232.122499 -66.190381 
L 228.569341 -64.420747 
L 225.016183 -62.605001 
L 221.463026 -60.849803 
L 217.909868 -59.275233 
L 214.35671 -57.974648 
L 210.803552 -56.991665 
L 207.250394 -56.316087 
L 203.697236 -55.895937 
L 200.144079 -55.659744 
L 196.590921 -55.539122 
L 193.037763 -55.482465 
L 189.484605 -55.457511 
L 185.931447 -55.44698 
L 182.378289 -55.442663 
L 178.825132 -55.440951 
L 175.271974 -55.44031 
L 171.718816 -55.44009 
L 168.165658 -55.440023 
L 164.6125 -55.440005 
z
" style="stroke: #4682b4"/>
    </defs>
    <g clip-path="url(#p7db4a61672)">
     <use xlink:href="#m9b59edbcf0" x="0" y="504" style="fill: #4682b4; fill-opacity: 0.8; stroke: #4682b4"/>
    </g>
   </g>
   <g id="matplotlib.axis_1">
    <g id="xtick_1">
     <g id="line2d_1">
      <defs>
       <path id="med7cb9b658" d="M 0 0 
L 0 3.5 
" style="stroke: #000000; stroke-width: 0.8"/>
      </defs>
      <g>
       <use xlink:href="#med7cb9b658" x="169.156995" y="448.56" style="stroke: #000000; stroke-width: 0.8"/>
      </g>
     </g>
     <g id="text_1">
      <!-- 0.0 -->
      <g transform="translate(161.205432 463.158437) scale(0.1 -0.1)">
       <defs>
        <path id="DejaVuSans-30" d="M 2034 4250 
Q 1547 4250 1301 3770 
Q 1056 3291 1056 2328 
Q 1056 1369 1301 889 
Q 1547 409 2034 409 
Q 2525 409 2770 889 
Q 3016 1369 3016 2328 
Q 3016 3291 2770 3770 
Q 2525 4250 2034 4250 
z
M 2034 4750 
Q 2819 4750 3233 4129 
Q 3647 3509 3647 2328 
Q 3647 1150 3233 529 
Q 2819 -91 2034 -91 
Q 1250 -91 836 529 
Q 422 1150 422 2328 
Q 422 3509 836 4129 
Q 1250 4750 2034 4750 
z
" transform="scale(0.015625)"/>
        <path id="DejaVuSans-2e" d="M 684 794 
L 1344 794 
L 1344 0 
L 684 0 
L 684 794 
z
" transform="scale(0.015625)"/>
       </defs>
       <use xlink:href="#DejaVuSans-30"/>
       <use xlink:href="#DejaVuSans-2e" x="63.623047"/>
       <use xlink:href="#DejaVuSans-30" x="95.410156"/>
      </g>
     </g>
    </g>
    <g id="xtick_2">
     <g id="line2d_2">
      <g>
       <use xlink:href="#med7cb9b658" x="304.378154" y="448.56" style="stroke: #000000; stroke-width: 0.8"/>
      </g>
     </g>
     <g id="text_2">
      <!-- 0.2 -->
      <g transform="translate(296.426591 463.158437) scale(0.1 -0.1)">
       <defs>
        <path id="DejaVuSans-32" d="M 1228 531 
L 3431 531 
L 3431 0 
L 469 0 
L 469 531 
Q 828 903 1448 1529 
Q 2069 2156 2228 2338 
Q 2531 2678 2651 2914 
Q 2772 3150 2772 3378 
Q 2772 3750 2511 3984 
Q 2250 4219 1831 4219 
Q 1534 4219 1204 4116 
Q 875 4013 500 3803 
L 500 4441 
Q 881 4594 1212 4672 
Q 1544 4750 1819 4750 
Q 2544 4750 2975 4387 
Q 3406 4025 3406 3419 
Q 3406 3131 3298 2873 
Q 3191 2616 2906 2266 
Q 2828 2175 2409 1742 
Q 1991 1309 1228 531 
z
" transform="scale(0.015625)"/>
       </defs>
       <use xlink:href="#DejaVuSans-30"/>
       <use xlink:href="#DejaVuSans-2e" x="63.623047"/>
       <use xlink:href="#DejaVuSans-32" x="95.410156"/>
      </g>
     </g>
    </g>
    <g id="xtick_3">
     <g id="line2d_3">
      <g>
       <use xlink:href="#med7cb9b658" x="439.599312" y="448.56" style="stroke: #000000; stroke-width: 0.8"/>
      </g>
     </g>
     <g id="text_3">
      <!-- 0.4 -->
      <g transform="translate(431.64775 463.158437) scale(0.1 -0.1)">
       <defs>
        <path id="DejaVuSans-34" d="M 2419 4116 
L 825 1625 
L 2419 1625 
L 2419 4116 
z
M 2253 4666 
L 3047 4666 
L 3047 1625 
L 3713 1625 
L 3713 1100 
L 3047 1100 
L 3047 0 
L 2419 0 
L 2419 1100 
L 313 1100 
L 313 1709 
L 2253 4666 
z
" transform="scale(0.015625)"/>
       </defs>
       <use xlink:href="#DejaVuSans-30"/>
       <use xlink:href="#DejaVuSans-2e" x="63.623047"/>
       <use xlink:href="#DejaVuSans-34" x="95.410156"/>
      </g>
     </g>
    </g>
    <g id="xtick_4">
     <g id="line2d_4">
      <g>
       <use xlink:href="#med7cb9b658" x="574.820471" y="448.56" style="stroke: #000000; stroke-width: 0.8"/>
      </g>
     </g>
     <g id="text_4">
      <!-- 0.6 -->
      <g transform="translate(566.868908 463.158437) scale(0.1 -0.1)">
       <defs>
        <path id="DejaVuSans-36" d="M 2113 2584 
Q 1688 2584 1439 2293 
Q 1191 2003 1191 1497 
Q 1191 994 1439 701 
Q 1688 409 2113 409 
Q 2538 409 2786 701 
Q 3034 994 3034 1497 
Q 3034 2003 2786 2293 
Q 2538 2584 2113 2584 
z
M 3366 4563 
L 3366 3988 
Q 3128 4100 2886 4159 
Q 2644 4219 2406 4219 
Q 1781 4219 1451 3797 
Q 1122 3375 1075 2522 
Q 1259 2794 1537 2939 
Q 1816 3084 2150 3084 
Q 2853 3084 3261 2657 
Q 3669 2231 3669 1497 
Q 3669 778 3244 343 
Q 2819 -91 2113 -91 
Q 1303 -91 875 529 
Q 447 1150 447 2328 
Q 447 3434 972 4092 
Q 1497 4750 2381 4750 
Q 2619 4750 2861 4703 
Q 3103 4656 3366 4563 
z
" transform="scale(0.015625)"/>
       </defs>
       <use xlink:href="#DejaVuSans-30"/>
       <use xlink:href="#DejaVuSans-2e" x="63.623047"/>
       <use xlink:href="#DejaVuSans-36" x="95.410156"/>
      </g>
     </g>
    </g>
    <g id="xtick_5">
     <g id="line2d_5">
      <g>
       <use xlink:href="#med7cb9b658" x="710.04163" y="448.56" style="stroke: #000000; stroke-width: 0.8"/>
      </g>
     </g>
     <g id="text_5">
      <!-- 0.8 -->
      <g transform="translate(702.090067 463.158437) scale(0.1 -0.1)">
       <defs>
        <path id="DejaVuSans-38" d="M 2034 2216 
Q 1584 2216 1326 1975 
Q 1069 1734 1069 1313 
Q 1069 891 1326 650 
Q 1584 409 2034 409 
Q 2484 409 2743 651 
Q 3003 894 3003 1313 
Q 3003 1734 2745 1975 
Q 2488 2216 2034 2216 
z
M 1403 2484 
Q 997 2584 770 2862 
Q 544 3141 544 3541 
Q 544 4100 942 4425 
Q 1341 4750 2034 4750 
Q 2731 4750 3128 4425 
Q 3525 4100 3525 3541 
Q 3525 3141 3298 2862 
Q 3072 2584 2669 2484 
Q 3125 2378 3379 2068 
Q 3634 1759 3634 1313 
Q 3634 634 3220 271 
Q 2806 -91 2034 -91 
Q 1263 -91 848 271 
Q 434 634 434 1313 
Q 434 1759 690 2068 
Q 947 2378 1403 2484 
z
M 1172 3481 
Q 1172 3119 1398 2916 
Q 1625 2713 2034 2713 
Q 2441 2713 2670 2916 
Q 2900 3119 2900 3481 
Q 2900 3844 2670 4047 
Q 2441 4250 2034 4250 
Q 1625 4250 1398 4047 
Q 1172 3844 1172 3481 
z
" transform="scale(0.015625)"/>
       </defs>
       <use xlink:href="#DejaVuSans-30"/>
       <use xlink:href="#DejaVuSans-2e" x="63.623047"/>
       <use xlink:href="#DejaVuSans-38" x="95.410156"/>
      </g>
     </g>
    </g>
    <g id="xtick_6">
     <g id="line2d_6">
      <g>
       <use xlink:href="#med7cb9b658" x="845.262788" y="448.56" style="stroke: #000000; stroke-width: 0.8"/>
      </g>
     </g>
     <g id="text_6">
      <!-- 1.0 -->
      <g transform="translate(837.311226 463.158437) scale(0.1 -0.1)">
       <defs>
        <path id="DejaVuSans-31" d="M 794 531 
L 1825 531 
L 1825 4091 
L 703 3866 
L 703 4441 
L 1819 4666 
L 2450 4666 
L 2450 531 
L 3481 531 
L 3481 0 
L 794 0 
L 794 531 
z
" transform="scale(0.015625)"/>
       </defs>
       <use xlink:href="#DejaVuSans-31"/>
       <use xlink:href="#DejaVuSans-2e" x="63.623047"/>
       <use xlink:href="#DejaVuSans-30" x="95.410156"/>
      </g>
     </g>
    </g>
    <g id="text_7">
     <!-- Scores of samples -->
     <g transform="translate(453.056406 479.875938) scale(0.14 -0.14)">
      <defs>
       <path id="DejaVuSans-53" d="M 3425 4513 
L 3425 3897 
Q 3066 4069 2747 4153 
Q 2428 4238 2131 4238 
Q 1616 4238 1336 4038 
Q 1056 3838 1056 3469 
Q 1056 3159 1242 3001 
Q 1428 2844 1947 2747 
L 2328 2669 
Q 3034 2534 3370 2195 
Q 3706 1856 3706 1288 
Q 3706 609 3251 259 
Q 2797 -91 1919 -91 
Q 1588 -91 1214 -16 
Q 841 59 441 206 
L 441 856 
Q 825 641 1194 531 
Q 1563 422 1919 422 
Q 2459 422 2753 634 
Q 3047 847 3047 1241 
Q 3047 1584 2836 1778 
Q 2625 1972 2144 2069 
L 1759 2144 
Q 1053 2284 737 2584 
Q 422 2884 422 3419 
Q 422 4038 858 4394 
Q 1294 4750 2059 4750 
Q 2388 4750 2728 4690 
Q 3069 4631 3425 4513 
z
" transform="scale(0.015625)"/>
       <path id="DejaVuSans-63" d="M 3122 3366 
L 3122 2828 
Q 2878 2963 2633 3030 
Q 2388 3097 2138 3097 
Q 1578 3097 1268 2742 
Q 959 2388 959 1747 
Q 959 1106 1268 751 
Q 1578 397 2138 397 
Q 2388 397 2633 464 
Q 2878 531 3122 666 
L 3122 134 
Q 2881 22 2623 -34 
Q 2366 -91 2075 -91 
Q 1284 -91 818 406 
Q 353 903 353 1747 
Q 353 2603 823 3093 
Q 1294 3584 2113 3584 
Q 2378 3584 2631 3529 
Q 2884 3475 3122 3366 
z
" transform="scale(0.015625)"/>
       <path id="DejaVuSans-6f" d="M 1959 3097 
Q 1497 3097 1228 2736 
Q 959 2375 959 1747 
Q 959 1119 1226 758 
Q 1494 397 1959 397 
Q 2419 397 2687 759 
Q 2956 1122 2956 1747 
Q 2956 2369 2687 2733 
Q 2419 3097 1959 3097 
z
M 1959 3584 
Q 2709 3584 3137 3096 
Q 3566 2609 3566 1747 
Q 3566 888 3137 398 
Q 2709 -91 1959 -91 
Q 1206 -91 779 398 
Q 353 888 353 1747 
Q 353 2609 779 3096 
Q 1206 3584 1959 3584 
z
" transform="scale(0.015625)"/>
       <path id="DejaVuSans-72" d="M 2631 2963 
Q 2534 3019 2420 3045 
Q 2306 3072 2169 3072 
Q 1681 3072 1420 2755 
Q 1159 2438 1159 1844 
L 1159 0 
L 581 0 
L 581 3500 
L 1159 3500 
L 1159 2956 
Q 1341 3275 1631 3429 
Q 1922 3584 2338 3584 
Q 2397 3584 2469 3576 
Q 2541 3569 2628 3553 
L 2631 2963 
z
" transform="scale(0.015625)"/>
       <path id="DejaVuSans-65" d="M 3597 1894 
L 3597 1613 
L 953 1613 
Q 991 1019 1311 708 
Q 1631 397 2203 397 
Q 2534 397 2845 478 
Q 3156 559 3463 722 
L 3463 178 
Q 3153 47 2828 -22 
Q 2503 -91 2169 -91 
Q 1331 -91 842 396 
Q 353 884 353 1716 
Q 353 2575 817 3079 
Q 1281 3584 2069 3584 
Q 2775 3584 3186 3129 
Q 3597 2675 3597 1894 
z
M 3022 2063 
Q 3016 2534 2758 2815 
Q 2500 3097 2075 3097 
Q 1594 3097 1305 2825 
Q 1016 2553 972 2059 
L 3022 2063 
z
" transform="scale(0.015625)"/>
       <path id="DejaVuSans-73" d="M 2834 3397 
L 2834 2853 
Q 2591 2978 2328 3040 
Q 2066 3103 1784 3103 
Q 1356 3103 1142 2972 
Q 928 2841 928 2578 
Q 928 2378 1081 2264 
Q 1234 2150 1697 2047 
L 1894 2003 
Q 2506 1872 2764 1633 
Q 3022 1394 3022 966 
Q 3022 478 2636 193 
Q 2250 -91 1575 -91 
Q 1294 -91 989 -36 
Q 684 19 347 128 
L 347 722 
Q 666 556 975 473 
Q 1284 391 1588 391 
Q 1994 391 2212 530 
Q 2431 669 2431 922 
Q 2431 1156 2273 1281 
Q 2116 1406 1581 1522 
L 1381 1569 
Q 847 1681 609 1914 
Q 372 2147 372 2553 
Q 372 3047 722 3315 
Q 1072 3584 1716 3584 
Q 2034 3584 2315 3537 
Q 2597 3491 2834 3397 
z
" transform="scale(0.015625)"/>
       <path id="DejaVuSans-20" transform="scale(0.015625)"/>
       <path id="DejaVuSans-66" d="M 2375 4863 
L 2375 4384 
L 1825 4384 
Q 1516 4384 1395 4259 
Q 1275 4134 1275 3809 
L 1275 3500 
L 2222 3500 
L 2222 3053 
L 1275 3053 
L 1275 0 
L 697 0 
L 697 3053 
L 147 3053 
L 147 3500 
L 697 3500 
L 697 3744 
Q 697 4328 969 4595 
Q 1241 4863 1831 4863 
L 2375 4863 
z
" transform="scale(0.015625)"/>
       <path id="DejaVuSans-61" d="M 2194 1759 
Q 1497 1759 1228 1600 
Q 959 1441 959 1056 
Q 959 750 1161 570 
Q 1363 391 1709 391 
Q 2188 391 2477 730 
Q 2766 1069 2766 1631 
L 2766 1759 
L 2194 1759 
z
M 3341 1997 
L 3341 0 
L 2766 0 
L 2766 531 
Q 2569 213 2275 61 
Q 1981 -91 1556 -91 
Q 1019 -91 701 211 
Q 384 513 384 1019 
Q 384 1609 779 1909 
Q 1175 2209 1959 2209 
L 2766 2209 
L 2766 2266 
Q 2766 2663 2505 2880 
Q 2244 3097 1772 3097 
Q 1472 3097 1187 3025 
Q 903 2953 641 2809 
L 641 3341 
Q 956 3463 1253 3523 
Q 1550 3584 1831 3584 
Q 2591 3584 2966 3190 
Q 3341 2797 3341 1997 
z
" transform="scale(0.015625)"/>
       <path id="DejaVuSans-6d" d="M 3328 2828 
Q 3544 3216 3844 3400 
Q 4144 3584 4550 3584 
Q 5097 3584 5394 3201 
Q 5691 2819 5691 2113 
L 5691 0 
L 5113 0 
L 5113 2094 
Q 5113 2597 4934 2840 
Q 4756 3084 4391 3084 
Q 3944 3084 3684 2787 
Q 3425 2491 3425 1978 
L 3425 0 
L 2847 0 
L 2847 2094 
Q 2847 2600 2669 2842 
Q 2491 3084 2119 3084 
Q 1678 3084 1418 2786 
Q 1159 2488 1159 1978 
L 1159 0 
L 581 0 
L 581 3500 
L 1159 3500 
L 1159 2956 
Q 1356 3278 1631 3431 
Q 1906 3584 2284 3584 
Q 2666 3584 2933 3390 
Q 3200 3197 3328 2828 
z
" transform="scale(0.015625)"/>
       <path id="DejaVuSans-70" d="M 1159 525 
L 1159 -1331 
L 581 -1331 
L 581 3500 
L 1159 3500 
L 1159 2969 
Q 1341 3281 1617 3432 
Q 1894 3584 2278 3584 
Q 2916 3584 3314 3078 
Q 3713 2572 3713 1747 
Q 3713 922 3314 415 
Q 2916 -91 2278 -91 
Q 1894 -91 1617 61 
Q 1341 213 1159 525 
z
M 3116 1747 
Q 3116 2381 2855 2742 
Q 2594 3103 2138 3103 
Q 1681 3103 1420 2742 
Q 1159 2381 1159 1747 
Q 1159 1113 1420 752 
Q 1681 391 2138 391 
Q 2594 391 2855 752 
Q 3116 1113 3116 1747 
z
" transform="scale(0.015625)"/>
       <path id="DejaVuSans-6c" d="M 603 4863 
L 1178 4863 
L 1178 0 
L 603 0 
L 603 4863 
z
" transform="scale(0.015625)"/>
      </defs>
      <use xlink:href="#DejaVuSans-53"/>
      <use xlink:href="#DejaVuSans-63" x="63.476562"/>
      <use xlink:href="#DejaVuSans-6f" x="118.457031"/>
      <use xlink:href="#DejaVuSans-72" x="179.638672"/>
      <use xlink:href="#DejaVuSans-65" x="218.501953"/>
      <use xlink:href="#DejaVuSans-73" x="280.025391"/>
      <use xlink:href="#DejaVuSans-20" x="332.125"/>
      <use xlink:href="#DejaVuSans-6f" x="363.912109"/>
      <use xlink:href="#DejaVuSans-66" x="425.09375"/>
      <use xlink:href="#DejaVuSans-20" x="460.298828"/>
      <use xlink:href="#DejaVuSans-73" x="492.085938"/>
      <use xlink:href="#DejaVuSans-61" x="544.185547"/>
      <use xlink:href="#DejaVuSans-6d" x="605.464844"/>
      <use xlink:href="#DejaVuSans-70" x="702.876953"/>
      <use xlink:href="#DejaVuSans-6c" x="766.353516"/>
      <use xlink:href="#DejaVuSans-65" x="794.136719"/>
      <use xlink:href="#DejaVuSans-73" x="855.660156"/>
     </g>
    </g>
   </g>
   <g id="matplotlib.axis_2">
    <g id="ytick_1">
     <g id="line2d_7">
      <defs>
       <path id="m267ca67a1a" d="M 0 0 
L -3.5 0 
" style="stroke: #000000; stroke-width: 0.8"/>
      </defs>
      <g>
       <use xlink:href="#m267ca67a1a" x="126" y="448.56" style="stroke: #000000; stroke-width: 0.8"/>
      </g>
     </g>
     <g id="text_8">
      <!-- 0 -->
      <g transform="translate(112.6375 452.359219) scale(0.1 -0.1)">
       <use xlink:href="#DejaVuSans-30"/>
      </g>
     </g>
    </g>
    <g id="ytick_2">
     <g id="line2d_8">
      <g>
       <use xlink:href="#m267ca67a1a" x="126" y="403.995936" style="stroke: #000000; stroke-width: 0.8"/>
      </g>
     </g>
     <g id="text_9">
      <!-- 1 -->
      <g transform="translate(112.6375 407.795155) scale(0.1 -0.1)">
       <use xlink:href="#DejaVuSans-31"/>
      </g>
     </g>
    </g>
    <g id="ytick_3">
     <g id="line2d_9">
      <g>
       <use xlink:href="#m267ca67a1a" x="126" y="359.431872" style="stroke: #000000; stroke-width: 0.8"/>
      </g>
     </g>
     <g id="text_10">
      <!-- 2 -->
      <g transform="translate(112.6375 363.23109) scale(0.1 -0.1)">
       <use xlink:href="#DejaVuSans-32"/>
      </g>
     </g>
    </g>
    <g id="ytick_4">
     <g id="line2d_10">
      <g>
       <use xlink:href="#m267ca67a1a" x="126" y="314.867808" style="stroke: #000000; stroke-width: 0.8"/>
      </g>
     </g>
     <g id="text_11">
      <!-- 3 -->
      <g transform="translate(112.6375 318.667026) scale(0.1 -0.1)">
       <defs>
        <path id="DejaVuSans-33" d="M 2597 2516 
Q 3050 2419 3304 2112 
Q 3559 1806 3559 1356 
Q 3559 666 3084 287 
Q 2609 -91 1734 -91 
Q 1441 -91 1130 -33 
Q 819 25 488 141 
L 488 750 
Q 750 597 1062 519 
Q 1375 441 1716 441 
Q 2309 441 2620 675 
Q 2931 909 2931 1356 
Q 2931 1769 2642 2001 
Q 2353 2234 1838 2234 
L 1294 2234 
L 1294 2753 
L 1863 2753 
Q 2328 2753 2575 2939 
Q 2822 3125 2822 3475 
Q 2822 3834 2567 4026 
Q 2313 4219 1838 4219 
Q 1578 4219 1281 4162 
Q 984 4106 628 3988 
L 628 4550 
Q 988 4650 1302 4700 
Q 1616 4750 1894 4750 
Q 2613 4750 3031 4423 
Q 3450 4097 3450 3541 
Q 3450 3153 3228 2886 
Q 3006 2619 2597 2516 
z
" transform="scale(0.015625)"/>
       </defs>
       <use xlink:href="#DejaVuSans-33"/>
      </g>
     </g>
    </g>
    <g id="ytick_5">
     <g id="line2d_11">
      <g>
       <use xlink:href="#m267ca67a1a" x="126" y="270.303743" style="stroke: #000000; stroke-width: 0.8"/>
      </g>
     </g>
     <g id="text_12">
      <!-- 4 -->
      <g transform="translate(112.6375 274.102962) scale(0.1 -0.1)">
       <use xlink:href="#DejaVuSans-34"/>
      </g>
     </g>
    </g>
    <g id="ytick_6">
     <g id="line2d_12">
      <g>
       <use xlink:href="#m267ca67a1a" x="126" y="225.739679" style="stroke: #000000; stroke-width: 0.8"/>
      </g>
     </g>
     <g id="text_13">
      <!-- 5 -->
      <g transform="translate(112.6375 229.538898) scale(0.1 -0.1)">
       <defs>
        <path id="DejaVuSans-35" d="M 691 4666 
L 3169 4666 
L 3169 4134 
L 1269 4134 
L 1269 2991 
Q 1406 3038 1543 3061 
Q 1681 3084 1819 3084 
Q 2600 3084 3056 2656 
Q 3513 2228 3513 1497 
Q 3513 744 3044 326 
Q 2575 -91 1722 -91 
Q 1428 -91 1123 -41 
Q 819 9 494 109 
L 494 744 
Q 775 591 1075 516 
Q 1375 441 1709 441 
Q 2250 441 2565 725 
Q 2881 1009 2881 1497 
Q 2881 1984 2565 2268 
Q 2250 2553 1709 2553 
Q 1456 2553 1204 2497 
Q 953 2441 691 2322 
L 691 4666 
z
" transform="scale(0.015625)"/>
       </defs>
       <use xlink:href="#DejaVuSans-35"/>
      </g>
     </g>
    </g>
    <g id="ytick_7">
     <g id="line2d_13">
      <g>
       <use xlink:href="#m267ca67a1a" x="126" y="181.175615" style="stroke: #000000; stroke-width: 0.8"/>
      </g>
     </g>
     <g id="text_14">
      <!-- 6 -->
      <g transform="translate(112.6375 184.974834) scale(0.1 -0.1)">
       <use xlink:href="#DejaVuSans-36"/>
      </g>
     </g>
    </g>
    <g id="ytick_8">
     <g id="line2d_14">
      <g>
       <use xlink:href="#m267ca67a1a" x="126" y="136.611551" style="stroke: #000000; stroke-width: 0.8"/>
      </g>
     </g>
     <g id="text_15">
      <!-- 7 -->
      <g transform="translate(112.6375 140.41077) scale(0.1 -0.1)">
       <defs>
        <path id="DejaVuSans-37" d="M 525 4666 
L 3525 4666 
L 3525 4397 
L 1831 0 
L 1172 0 
L 2766 4134 
L 525 4134 
L 525 4666 
z
" transform="scale(0.015625)"/>
       </defs>
       <use xlink:href="#DejaVuSans-37"/>
      </g>
     </g>
    </g>
    <g id="ytick_9">
     <g id="line2d_15">
      <g>
       <use xlink:href="#m267ca67a1a" x="126" y="92.047487" style="stroke: #000000; stroke-width: 0.8"/>
      </g>
     </g>
     <g id="text_16">
      <!-- 8 -->
      <g transform="translate(112.6375 95.846706) scale(0.1 -0.1)">
       <use xlink:href="#DejaVuSans-38"/>
      </g>
     </g>
    </g>
    <g id="text_17">
     <!-- Densities of samples -->
     <g transform="translate(105.725938 327.181094) rotate(-90) scale(0.14 -0.14)">
      <defs>
       <path id="DejaVuSans-44" d="M 1259 4147 
L 1259 519 
L 2022 519 
Q 2988 519 3436 956 
Q 3884 1394 3884 2338 
Q 3884 3275 3436 3711 
Q 2988 4147 2022 4147 
L 1259 4147 
z
M 628 4666 
L 1925 4666 
Q 3281 4666 3915 4102 
Q 4550 3538 4550 2338 
Q 4550 1131 3912 565 
Q 3275 0 1925 0 
L 628 0 
L 628 4666 
z
" transform="scale(0.015625)"/>
       <path id="DejaVuSans-6e" d="M 3513 2113 
L 3513 0 
L 2938 0 
L 2938 2094 
Q 2938 2591 2744 2837 
Q 2550 3084 2163 3084 
Q 1697 3084 1428 2787 
Q 1159 2491 1159 1978 
L 1159 0 
L 581 0 
L 581 3500 
L 1159 3500 
L 1159 2956 
Q 1366 3272 1645 3428 
Q 1925 3584 2291 3584 
Q 2894 3584 3203 3211 
Q 3513 2838 3513 2113 
z
" transform="scale(0.015625)"/>
       <path id="DejaVuSans-69" d="M 603 3500 
L 1178 3500 
L 1178 0 
L 603 0 
L 603 3500 
z
M 603 4863 
L 1178 4863 
L 1178 4134 
L 603 4134 
L 603 4863 
z
" transform="scale(0.015625)"/>
       <path id="DejaVuSans-74" d="M 1172 4494 
L 1172 3500 
L 2356 3500 
L 2356 3053 
L 1172 3053 
L 1172 1153 
Q 1172 725 1289 603 
Q 1406 481 1766 481 
L 2356 481 
L 2356 0 
L 1766 0 
Q 1100 0 847 248 
Q 594 497 594 1153 
L 594 3053 
L 172 3053 
L 172 3500 
L 594 3500 
L 594 4494 
L 1172 4494 
z
" transform="scale(0.015625)"/>
      </defs>
      <use xlink:href="#DejaVuSans-44"/>
      <use xlink:href="#DejaVuSans-65" x="77.001953"/>
      <use xlink:href="#DejaVuSans-6e" x="138.525391"/>
      <use xlink:href="#DejaVuSans-73" x="201.904297"/>
      <use xlink:href="#DejaVuSans-69" x="254.003906"/>
      <use xlink:href="#DejaVuSans-74" x="281.787109"/>
      <use xlink:href="#DejaVuSans-69" x="320.996094"/>
      <use xlink:href="#DejaVuSans-65" x="348.779297"/>
      <use xlink:href="#DejaVuSans-73" x="410.302734"/>
      <use xlink:href="#DejaVuSans-20" x="462.402344"/>
      <use xlink:href="#DejaVuSans-6f" x="494.189453"/>
      <use xlink:href="#DejaVuSans-66" x="555.371094"/>
      <use xlink:href="#DejaVuSans-20" x="590.576172"/>
      <use xlink:href="#DejaVuSans-73" x="622.363281"/>
      <use xlink:href="#DejaVuSans-61" x="674.462891"/>
      <use xlink:href="#DejaVuSans-6d" x="735.742188"/>
      <use xlink:href="#DejaVuSans-70" x="833.154297"/>
      <use xlink:href="#DejaVuSans-6c" x="896.630859"/>
      <use xlink:href="#DejaVuSans-65" x="924.414062"/>
      <use xlink:href="#DejaVuSans-73" x="985.9375"/>
     </g>
    </g>
   </g>
   <g id="patch_3">
    <path d="M 126 448.56 
L 126 60.48 
" style="fill: none; stroke: #000000; stroke-width: 0.8; stroke-linejoin: miter; stroke-linecap: square"/>
   </g>
   <g id="patch_4">
    <path d="M 907.2 448.56 
L 907.2 60.48 
" style="fill: none; stroke: #000000; stroke-width: 0.8; stroke-linejoin: miter; stroke-linecap: square"/>
   </g>
   <g id="patch_5">
    <path d="M 126 448.56 
L 907.2 448.56 
" style="fill: none; stroke: #000000; stroke-width: 0.8; stroke-linejoin: miter; stroke-linecap: square"/>
   </g>
   <g id="patch_6">
    <path d="M 126 60.48 
L 907.2 60.48 
" style="fill: none; stroke: #000000; stroke-width: 0.8; stroke-linejoin: miter; stroke-linecap: square"/>
   </g>
   <g id="legend_1">
    <g id="patch_7">
     <path d="M 134.4 122.92125 
L 222.47625 122.92125 
Q 224.87625 122.92125 224.87625 120.52125 
L 224.87625 68.88 
Q 224.87625 66.48 222.47625 66.48 
L 134.4 66.48 
Q 132 66.48 132 68.88 
L 132 120.52125 
Q 132 122.92125 134.4 122.92125 
z
" style="fill: #ffffff; opacity: 0.8; stroke: #cccccc; stroke-linejoin: miter"/>
    </g>
    <g id="patch_8">
     <path d="M 136.8 80.398125 
L 160.8 80.398125 
L 160.8 71.998125 
L 136.8 71.998125 
z
" style="fill: #ffd700; fill-opacity: 0.8; stroke: #ffd700; stroke-linejoin: miter"/>
    </g>
    <g id="text_18">
     <!-- Random -->
     <g transform="translate(170.4 80.398125) scale(0.12 -0.12)">
      <defs>
       <path id="DejaVuSans-52" d="M 2841 2188 
Q 3044 2119 3236 1894 
Q 3428 1669 3622 1275 
L 4263 0 
L 3584 0 
L 2988 1197 
Q 2756 1666 2539 1819 
Q 2322 1972 1947 1972 
L 1259 1972 
L 1259 0 
L 628 0 
L 628 4666 
L 2053 4666 
Q 2853 4666 3247 4331 
Q 3641 3997 3641 3322 
Q 3641 2881 3436 2590 
Q 3231 2300 2841 2188 
z
M 1259 4147 
L 1259 2491 
L 2053 2491 
Q 2509 2491 2742 2702 
Q 2975 2913 2975 3322 
Q 2975 3731 2742 3939 
Q 2509 4147 2053 4147 
L 1259 4147 
z
" transform="scale(0.015625)"/>
       <path id="DejaVuSans-64" d="M 2906 2969 
L 2906 4863 
L 3481 4863 
L 3481 0 
L 2906 0 
L 2906 525 
Q 2725 213 2448 61 
Q 2172 -91 1784 -91 
Q 1150 -91 751 415 
Q 353 922 353 1747 
Q 353 2572 751 3078 
Q 1150 3584 1784 3584 
Q 2172 3584 2448 3432 
Q 2725 3281 2906 2969 
z
M 947 1747 
Q 947 1113 1208 752 
Q 1469 391 1925 391 
Q 2381 391 2643 752 
Q 2906 1113 2906 1747 
Q 2906 2381 2643 2742 
Q 2381 3103 1925 3103 
Q 1469 3103 1208 2742 
Q 947 2381 947 1747 
z
" transform="scale(0.015625)"/>
      </defs>
      <use xlink:href="#DejaVuSans-52"/>
      <use xlink:href="#DejaVuSans-61" x="67.232422"/>
      <use xlink:href="#DejaVuSans-6e" x="128.511719"/>
      <use xlink:href="#DejaVuSans-64" x="191.890625"/>
      <use xlink:href="#DejaVuSans-6f" x="255.367188"/>
      <use xlink:href="#DejaVuSans-6d" x="316.548828"/>
     </g>
    </g>
    <g id="patch_9">
     <path d="M 136.8 98.011875 
L 160.8 98.011875 
L 160.8 89.611875 
L 136.8 89.611875 
z
" style="fill: #32cd32; fill-opacity: 0.8; stroke: #32cd32; stroke-linejoin: miter"/>
    </g>
    <g id="text_19">
     <!-- Real -->
     <g transform="translate(170.4 98.011875) scale(0.12 -0.12)">
      <use xlink:href="#DejaVuSans-52"/>
      <use xlink:href="#DejaVuSans-65" x="64.982422"/>
      <use xlink:href="#DejaVuSans-61" x="126.505859"/>
      <use xlink:href="#DejaVuSans-6c" x="187.785156"/>
     </g>
    </g>
    <g id="patch_10">
     <path d="M 136.8 115.625625 
L 160.8 115.625625 
L 160.8 107.225625 
L 136.8 107.225625 
z
" style="fill: #4682b4; fill-opacity: 0.8; stroke: #4682b4; stroke-linejoin: miter"/>
    </g>
    <g id="text_20">
     <!-- Real' -->
     <g transform="translate(170.4 115.625625) scale(0.12 -0.12)">
      <defs>
       <path id="DejaVuSans-27" d="M 1147 4666 
L 1147 2931 
L 616 2931 
L 616 4666 
L 1147 4666 
z
" transform="scale(0.015625)"/>
      </defs>
      <use xlink:href="#DejaVuSans-52"/>
      <use xlink:href="#DejaVuSans-65" x="64.982422"/>
      <use xlink:href="#DejaVuSans-61" x="126.505859"/>
      <use xlink:href="#DejaVuSans-6c" x="187.785156"/>
      <use xlink:href="#DejaVuSans-27" x="215.568359"/>
     </g>
    </g>
   </g>
  </g>
 </g>
 <defs>
  <clipPath id="p7db4a61672">
   <rect x="126" y="60.48" width="781.2" height="388.08"/>
  </clipPath>
 </defs>
</svg>
