<?xml version="1.0" encoding="utf-8" standalone="no"?>
<!DOCTYPE svg PUBLIC "-//W3C//DTD SVG 1.1//EN"
  "http://www.w3.org/Graphics/SVG/1.1/DTD/svg11.dtd">
<svg xmlns:xlink="http://www.w3.org/1999/xlink" width="1008pt" height="504pt" viewBox="0 0 1008 504" xmlns="http://www.w3.org/2000/svg" version="1.1">
 <metadata>
  <rdf:RDF xmlns:dc="http://purl.org/dc/elements/1.1/" xmlns:cc="http://creativecommons.org/ns#" xmlns:rdf="http://www.w3.org/1999/02/22-rdf-syntax-ns#">
   <cc:Work>
    <dc:type rdf:resource="http://purl.org/dc/dcmitype/StillImage"/>
    <dc:date>2024-12-15T17:38:44.713467</dc:date>
    <dc:format>image/svg+xml</dc:format>
    <dc:creator>
     <cc:Agent>
      <dc:title>Matplotlib v3.7.2, https://matplotlib.org/</dc:title>
     </cc:Agent>
    </dc:creator>
   </cc:Work>
  </rdf:RDF>
 </metadata>
 <defs>
  <style type="text/css">*{stroke-linejoin: round; stroke-linecap: butt}</style>
 </defs>
 <g id="figure_1">
  <g id="patch_1">
   <path d="M 0 504 
L 1008 504 
L 1008 0 
L 0 0 
z
" style="fill: #ffffff"/>
  </g>
  <g id="axes_1">
   <g id="patch_2">
    <path d="M 126 448.56 
L 907.2 448.56 
L 907.2 60.48 
L 126 60.48 
z
" style="fill: #ffffff"/>
   </g>
   <g id="PolyCollection_1">
    <defs>
     <path id="m1582a1eefe" d="M 161.509091 -55.440008 
L 161.509091 -55.44 
L 165.017142 -55.44 
L 168.525193 -55.44 
L 172.033245 -55.44 
L 175.541296 -55.44 
L 179.049347 -55.44 
L 182.557398 -55.44 
L 186.06545 -55.44 
L 189.573501 -55.44 
L 193.081552 -55.44 
L 196.589603 -55.44 
L 200.097655 -55.44 
L 203.605706 -55.44 
L 207.113757 -55.44 
L 210.621808 -55.44 
L 214.12986 -55.44 
L 217.637911 -55.44 
L 221.145962 -55.44 
L 224.654013 -55.44 
L 228.162065 -55.44 
L 231.670116 -55.44 
L 235.178167 -55.44 
L 238.686218 -55.44 
L 242.194269 -55.44 
L 245.702321 -55.44 
L 249.210372 -55.44 
L 252.718423 -55.44 
L 256.226474 -55.44 
L 259.734526 -55.44 
L 263.242577 -55.44 
L 266.750628 -55.44 
L 270.258679 -55.44 
L 273.766731 -55.44 
L 277.274782 -55.44 
L 280.782833 -55.44 
L 284.290884 -55.44 
L 287.798936 -55.44 
L 291.306987 -55.44 
L 294.815038 -55.44 
L 298.323089 -55.44 
L 301.831141 -55.44 
L 305.339192 -55.44 
L 308.847243 -55.44 
L 312.355294 -55.44 
L 315.863346 -55.44 
L 319.371397 -55.44 
L 322.879448 -55.44 
L 326.387499 -55.44 
L 329.895551 -55.44 
L 333.403602 -55.44 
L 336.911653 -55.44 
L 340.419704 -55.44 
L 343.927756 -55.44 
L 347.435807 -55.44 
L 350.943858 -55.44 
L 354.451909 -55.44 
L 357.95996 -55.44 
L 361.468012 -55.44 
L 364.976063 -55.44 
L 368.484114 -55.44 
L 371.992165 -55.44 
L 375.500217 -55.44 
L 379.008268 -55.44 
L 382.516319 -55.44 
L 386.02437 -55.44 
L 389.532422 -55.44 
L 393.040473 -55.44 
L 396.548524 -55.44 
L 400.056575 -55.44 
L 403.564627 -55.44 
L 407.072678 -55.44 
L 410.580729 -55.44 
L 414.08878 -55.44 
L 417.596832 -55.44 
L 421.104883 -55.44 
L 424.612934 -55.44 
L 428.120985 -55.44 
L 431.629037 -55.44 
L 435.137088 -55.44 
L 438.645139 -55.44 
L 442.15319 -55.44 
L 445.661242 -55.44 
L 449.169293 -55.44 
L 452.677344 -55.44 
L 456.185395 -55.44 
L 459.693447 -55.44 
L 463.201498 -55.44 
L 466.709549 -55.44 
L 470.2176 -55.44 
L 473.725651 -55.44 
L 477.233703 -55.44 
L 480.741754 -55.44 
L 484.249805 -55.44 
L 487.757856 -55.44 
L 491.265908 -55.44 
L 494.773959 -55.44 
L 498.28201 -55.44 
L 501.790061 -55.44 
L 505.298113 -55.44 
L 508.806164 -55.44 
L 512.314215 -55.44 
L 515.822266 -55.44 
L 519.330318 -55.44 
L 522.838369 -55.44 
L 526.34642 -55.44 
L 529.854471 -55.44 
L 533.362523 -55.44 
L 536.870574 -55.44 
L 540.378625 -55.44 
L 543.886676 -55.44 
L 547.394728 -55.44 
L 550.902779 -55.44 
L 554.41083 -55.44 
L 557.918881 -55.44 
L 561.426933 -55.44 
L 564.934984 -55.44 
L 568.443035 -55.44 
L 571.951086 -55.44 
L 575.459138 -55.44 
L 578.967189 -55.44 
L 582.47524 -55.44 
L 585.983291 -55.44 
L 589.491343 -55.44 
L 592.999394 -55.44 
L 596.507445 -55.44 
L 600.015496 -55.44 
L 603.523547 -55.44 
L 607.031599 -55.44 
L 610.53965 -55.44 
L 614.047701 -55.44 
L 617.555752 -55.44 
L 621.063804 -55.44 
L 624.571855 -55.44 
L 628.079906 -55.44 
L 631.587957 -55.44 
L 635.096009 -55.44 
L 638.60406 -55.44 
L 642.112111 -55.44 
L 645.620162 -55.44 
L 649.128214 -55.44 
L 652.636265 -55.44 
L 656.144316 -55.44 
L 659.652367 -55.44 
L 663.160419 -55.44 
L 666.66847 -55.44 
L 670.176521 -55.44 
L 673.684572 -55.44 
L 677.192624 -55.44 
L 680.700675 -55.44 
L 684.208726 -55.44 
L 687.716777 -55.44 
L 691.224829 -55.44 
L 694.73288 -55.44 
L 698.240931 -55.44 
L 701.748982 -55.44 
L 705.257034 -55.44 
L 708.765085 -55.44 
L 712.273136 -55.44 
L 715.781187 -55.44 
L 719.289238 -55.44 
L 722.79729 -55.44 
L 726.305341 -55.44 
L 729.813392 -55.44 
L 733.321443 -55.44 
L 736.829495 -55.44 
L 740.337546 -55.44 
L 743.845597 -55.44 
L 747.353648 -55.44 
L 750.8617 -55.44 
L 754.369751 -55.44 
L 757.877802 -55.44 
L 761.385853 -55.44 
L 764.893905 -55.44 
L 768.401956 -55.44 
L 771.910007 -55.44 
L 775.418058 -55.44 
L 778.92611 -55.44 
L 782.434161 -55.44 
L 785.942212 -55.44 
L 789.450263 -55.44 
L 792.958315 -55.44 
L 796.466366 -55.44 
L 799.974417 -55.44 
L 803.482468 -55.44 
L 806.99052 -55.44 
L 810.498571 -55.44 
L 814.006622 -55.44 
L 817.514673 -55.44 
L 821.022725 -55.44 
L 824.530776 -55.44 
L 828.038827 -55.44 
L 831.546878 -55.44 
L 835.054929 -55.44 
L 838.562981 -55.44 
L 842.071032 -55.44 
L 845.579083 -55.44 
L 849.087134 -55.44 
L 852.595186 -55.44 
L 856.103237 -55.44 
L 859.611288 -55.44 
L 859.611288 -55.440023 
L 859.611288 -55.440023 
L 856.103237 -55.440311 
L 852.595186 -55.441911 
L 849.087134 -55.445697 
L 845.579083 -55.450607 
L 842.071032 -55.459345 
L 838.562981 -55.478192 
L 835.054929 -55.50999 
L 831.546878 -55.55732 
L 828.038827 -55.627842 
L 824.530776 -55.726709 
L 821.022725 -55.84017 
L 817.514673 -55.966173 
L 814.006622 -56.126642 
L 810.498571 -56.327011 
L 806.99052 -56.544141 
L 803.482468 -56.769675 
L 799.974417 -57.021857 
L 796.466366 -57.281176 
L 792.958315 -57.554175 
L 789.450263 -57.910432 
L 785.942212 -58.330579 
L 782.434161 -58.731375 
L 778.92611 -59.110432 
L 775.418058 -59.53313 
L 771.910007 -60.025665 
L 768.401956 -60.560051 
L 764.893905 -61.106821 
L 761.385853 -61.635082 
L 757.877802 -62.151639 
L 754.369751 -62.699467 
L 750.8617 -63.294963 
L 747.353648 -63.909834 
L 743.845597 -64.544975 
L 740.337546 -65.250387 
L 736.829495 -66.02378 
L 733.321443 -66.835158 
L 729.813392 -67.693338 
L 726.305341 -68.569534 
L 722.79729 -69.444296 
L 719.289238 -70.344889 
L 715.781187 -71.330687 
L 712.273136 -72.39582 
L 708.765085 -73.438756 
L 705.257034 -74.471548 
L 701.748982 -75.599753 
L 698.240931 -76.767499 
L 694.73288 -77.854111 
L 691.224829 -78.905599 
L 687.716777 -80.006059 
L 684.208726 -81.09075 
L 680.700675 -82.148983 
L 677.192624 -83.340545 
L 673.684572 -84.613775 
L 670.176521 -85.822317 
L 666.66847 -87.04357 
L 663.160419 -88.394581 
L 659.652367 -89.858866 
L 656.144316 -91.342656 
L 652.636265 -92.866406 
L 649.128214 -94.367227 
L 645.620162 -96.018307 
L 642.112111 -97.98297 
L 638.60406 -100.022571 
L 635.096009 -101.987611 
L 631.587957 -103.968701 
L 628.079906 -106.002267 
L 624.571855 -108.069189 
L 621.063804 -110.167533 
L 617.555752 -112.290454 
L 614.047701 -114.432374 
L 610.53965 -116.6023 
L 607.031599 -118.834771 
L 603.523547 -121.281758 
L 600.015496 -123.826118 
L 596.507445 -126.214636 
L 592.999394 -128.523596 
L 589.491343 -130.758777 
L 585.983291 -132.995948 
L 582.47524 -135.619575 
L 578.967189 -138.499344 
L 575.459138 -141.222129 
L 571.951086 -144.012081 
L 568.443035 -147.043033 
L 564.934984 -150.028816 
L 561.426933 -152.902229 
L 557.918881 -155.971195 
L 554.41083 -159.359533 
L 550.902779 -162.740151 
L 547.394728 -165.976884 
L 543.886676 -169.240934 
L 540.378625 -172.71779 
L 536.870574 -176.545638 
L 533.362523 -180.598374 
L 529.854471 -184.639247 
L 526.34642 -188.776381 
L 522.838369 -193.096297 
L 519.330318 -197.338972 
L 515.822266 -201.613265 
L 512.314215 -206.092454 
L 508.806164 -210.623187 
L 505.298113 -214.990914 
L 501.790061 -219.298598 
L 498.28201 -223.771955 
L 494.773959 -228.333504 
L 491.265908 -232.908987 
L 487.757856 -237.722107 
L 484.249805 -242.59191 
L 480.741754 -247.15755 
L 477.233703 -251.834662 
L 473.725651 -256.897233 
L 470.2176 -262.011098 
L 466.709549 -267.047137 
L 463.201498 -272.3442 
L 459.693447 -277.969404 
L 456.185395 -283.800531 
L 452.677344 -289.995615 
L 449.169293 -296.543979 
L 445.661242 -303.185289 
L 442.15319 -309.92837 
L 438.645139 -316.790575 
L 435.137088 -323.811829 
L 431.629037 -330.811821 
L 428.120985 -337.805086 
L 424.612934 -345.302073 
L 421.104883 -352.979634 
L 417.596832 -360.287582 
L 414.08878 -367.73488 
L 410.580729 -375.464094 
L 407.072678 -383.158386 
L 403.564627 -391.096381 
L 400.056575 -399.038987 
L 396.548524 -406.441857 
L 393.040473 -413.060753 
L 389.532422 -418.182869 
L 386.02437 -421.424645 
L 382.516319 -423.659981 
L 379.008268 -425.04 
L 375.500217 -424.528974 
L 371.992165 -421.281099 
L 368.484114 -415.193966 
L 364.976063 -405.277388 
L 361.468012 -390.245828 
L 357.95996 -369.871445 
L 354.451909 -345.549242 
L 350.943858 -320.683068 
L 347.435807 -298.254826 
L 343.927756 -279.265958 
L 340.419704 -263.315318 
L 336.911653 -249.416083 
L 333.403602 -236.510875 
L 329.895551 -223.468937 
L 326.387499 -209.660888 
L 322.879448 -194.977593 
L 319.371397 -179.300191 
L 315.863346 -162.787599 
L 312.355294 -146.074421 
L 308.847243 -129.842197 
L 305.339192 -115.004668 
L 301.831141 -102.19182 
L 298.323089 -91.542068 
L 294.815038 -83.210654 
L 291.306987 -76.978506 
L 287.798936 -72.392185 
L 284.290884 -68.940825 
L 280.782833 -66.239032 
L 277.274782 -64.113975 
L 273.766731 -62.469916 
L 270.258679 -61.184675 
L 266.750628 -60.145808 
L 263.242577 -59.302689 
L 259.734526 -58.627111 
L 256.226474 -58.111713 
L 252.718423 -57.720085 
L 249.210372 -57.39054 
L 245.702321 -57.08799 
L 242.194269 -56.843347 
L 238.686218 -56.670337 
L 235.178167 -56.500653 
L 231.670116 -56.325389 
L 228.162065 -56.171446 
L 224.654013 -56.025507 
L 221.145962 -55.89775 
L 217.637911 -55.79684 
L 214.12986 -55.729115 
L 210.621808 -55.690728 
L 207.113757 -55.65178 
L 203.605706 -55.605212 
L 200.097655 -55.564623 
L 196.589603 -55.532313 
L 193.081552 -55.505853 
L 189.573501 -55.485457 
L 186.06545 -55.469885 
L 182.557398 -55.458049 
L 179.049347 -55.448733 
L 175.541296 -55.443401 
L 172.033245 -55.441358 
L 168.525193 -55.44047 
L 165.017142 -55.440091 
L 161.509091 -55.440008 
z
" style="stroke: #ffd700"/>
    </defs>
    <g clip-path="url(#pa602f96b05)">
     <use xlink:href="#m1582a1eefe" x="0" y="504" style="fill: #ffd700; fill-opacity: 0.8; stroke: #ffd700"/>
    </g>
   </g>
   <g id="PolyCollection_2">
    <defs>
     <path id="m3aca2bbd31" d="M 171.205772 -55.440016 
L 171.205772 -55.44 
L 174.704778 -55.44 
L 178.203785 -55.44 
L 181.702792 -55.44 
L 185.201799 -55.44 
L 188.700805 -55.44 
L 192.199812 -55.44 
L 195.698819 -55.44 
L 199.197825 -55.44 
L 202.696832 -55.44 
L 206.195839 -55.44 
L 209.694846 -55.44 
L 213.193852 -55.44 
L 216.692859 -55.44 
L 220.191866 -55.44 
L 223.690873 -55.44 
L 227.189879 -55.44 
L 230.688886 -55.44 
L 234.187893 -55.44 
L 237.6869 -55.44 
L 241.185906 -55.44 
L 244.684913 -55.44 
L 248.18392 -55.44 
L 251.682927 -55.44 
L 255.181933 -55.44 
L 258.68094 -55.44 
L 262.179947 -55.44 
L 265.678954 -55.44 
L 269.17796 -55.44 
L 272.676967 -55.44 
L 276.175974 -55.44 
L 279.674981 -55.44 
L 283.173987 -55.44 
L 286.672994 -55.44 
L 290.172001 -55.44 
L 293.671007 -55.44 
L 297.170014 -55.44 
L 300.669021 -55.44 
L 304.168028 -55.44 
L 307.667034 -55.44 
L 311.166041 -55.44 
L 314.665048 -55.44 
L 318.164055 -55.44 
L 321.663061 -55.44 
L 325.162068 -55.44 
L 328.661075 -55.44 
L 332.160082 -55.44 
L 335.659088 -55.44 
L 339.158095 -55.44 
L 342.657102 -55.44 
L 346.156109 -55.44 
L 349.655115 -55.44 
L 353.154122 -55.44 
L 356.653129 -55.44 
L 360.152136 -55.44 
L 363.651142 -55.44 
L 367.150149 -55.44 
L 370.649156 -55.44 
L 374.148162 -55.44 
L 377.647169 -55.44 
L 381.146176 -55.44 
L 384.645183 -55.44 
L 388.144189 -55.44 
L 391.643196 -55.44 
L 395.142203 -55.44 
L 398.64121 -55.44 
L 402.140216 -55.44 
L 405.639223 -55.44 
L 409.13823 -55.44 
L 412.637237 -55.44 
L 416.136243 -55.44 
L 419.63525 -55.44 
L 423.134257 -55.44 
L 426.633264 -55.44 
L 430.13227 -55.44 
L 433.631277 -55.44 
L 437.130284 -55.44 
L 440.629291 -55.44 
L 444.128297 -55.44 
L 447.627304 -55.44 
L 451.126311 -55.44 
L 454.625318 -55.44 
L 458.124324 -55.44 
L 461.623331 -55.44 
L 465.122338 -55.44 
L 468.621344 -55.44 
L 472.120351 -55.44 
L 475.619358 -55.44 
L 479.118365 -55.44 
L 482.617371 -55.44 
L 486.116378 -55.44 
L 489.615385 -55.44 
L 493.114392 -55.44 
L 496.613398 -55.44 
L 500.112405 -55.44 
L 503.611412 -55.44 
L 507.110419 -55.44 
L 510.609425 -55.44 
L 514.108432 -55.44 
L 517.607439 -55.44 
L 521.106446 -55.44 
L 524.605452 -55.44 
L 528.104459 -55.44 
L 531.603466 -55.44 
L 535.102473 -55.44 
L 538.601479 -55.44 
L 542.100486 -55.44 
L 545.599493 -55.44 
L 549.0985 -55.44 
L 552.597506 -55.44 
L 556.096513 -55.44 
L 559.59552 -55.44 
L 563.094526 -55.44 
L 566.593533 -55.44 
L 570.09254 -55.44 
L 573.591547 -55.44 
L 577.090553 -55.44 
L 580.58956 -55.44 
L 584.088567 -55.44 
L 587.587574 -55.44 
L 591.08658 -55.44 
L 594.585587 -55.44 
L 598.084594 -55.44 
L 601.583601 -55.44 
L 605.082607 -55.44 
L 608.581614 -55.44 
L 612.080621 -55.44 
L 615.579628 -55.44 
L 619.078634 -55.44 
L 622.577641 -55.44 
L 626.076648 -55.44 
L 629.575655 -55.44 
L 633.074661 -55.44 
L 636.573668 -55.44 
L 640.072675 -55.44 
L 643.571681 -55.44 
L 647.070688 -55.44 
L 650.569695 -55.44 
L 654.068702 -55.44 
L 657.567708 -55.44 
L 661.066715 -55.44 
L 664.565722 -55.44 
L 668.064729 -55.44 
L 671.563735 -55.44 
L 675.062742 -55.44 
L 678.561749 -55.44 
L 682.060756 -55.44 
L 685.559762 -55.44 
L 689.058769 -55.44 
L 692.557776 -55.44 
L 696.056783 -55.44 
L 699.555789 -55.44 
L 703.054796 -55.44 
L 706.553803 -55.44 
L 710.05281 -55.44 
L 713.551816 -55.44 
L 717.050823 -55.44 
L 720.54983 -55.44 
L 724.048837 -55.44 
L 727.547843 -55.44 
L 731.04685 -55.44 
L 734.545857 -55.44 
L 738.044863 -55.44 
L 741.54387 -55.44 
L 745.042877 -55.44 
L 748.541884 -55.44 
L 752.04089 -55.44 
L 755.539897 -55.44 
L 759.038904 -55.44 
L 762.537911 -55.44 
L 766.036917 -55.44 
L 769.535924 -55.44 
L 773.034931 -55.44 
L 776.533938 -55.44 
L 780.032944 -55.44 
L 783.531951 -55.44 
L 787.030958 -55.44 
L 790.529965 -55.44 
L 794.028971 -55.44 
L 797.527978 -55.44 
L 801.026985 -55.44 
L 804.525992 -55.44 
L 808.024998 -55.44 
L 811.524005 -55.44 
L 815.023012 -55.44 
L 818.522018 -55.44 
L 822.021025 -55.44 
L 825.520032 -55.44 
L 829.019039 -55.44 
L 832.518045 -55.44 
L 836.017052 -55.44 
L 839.516059 -55.44 
L 843.015066 -55.44 
L 846.514072 -55.44 
L 850.013079 -55.44 
L 853.512086 -55.44 
L 857.011093 -55.44 
L 860.510099 -55.44 
L 864.009106 -55.44 
L 867.508113 -55.44 
L 867.508113 -55.440021 
L 867.508113 -55.440021 
L 864.009106 -55.440236 
L 860.510099 -55.441766 
L 857.011093 -55.449109 
L 853.512086 -55.473459 
L 850.013079 -55.532636 
L 846.514072 -55.650733 
L 843.015066 -55.866282 
L 839.516059 -56.229821 
L 836.017052 -56.784236 
L 832.518045 -57.564366 
L 829.019039 -58.595675 
L 825.520032 -59.869953 
L 822.021025 -61.344778 
L 818.522018 -62.964271 
L 815.023012 -64.672399 
L 811.524005 -66.427259 
L 808.024998 -68.225448 
L 804.525992 -70.101176 
L 801.026985 -72.071293 
L 797.527978 -74.110688 
L 794.028971 -76.19144 
L 790.529965 -78.279707 
L 787.030958 -80.347144 
L 783.531951 -82.448447 
L 780.032944 -84.670993 
L 776.533938 -86.963561 
L 773.034931 -89.170153 
L 769.535924 -91.258514 
L 766.036917 -93.329095 
L 762.537911 -95.419263 
L 759.038904 -97.471371 
L 755.539897 -99.405855 
L 752.04089 -101.220011 
L 748.541884 -103.037516 
L 745.042877 -104.935435 
L 741.54387 -106.839765 
L 738.044863 -108.714985 
L 734.545857 -110.654622 
L 731.04685 -112.684786 
L 727.547843 -114.735572 
L 724.048837 -116.84607 
L 720.54983 -119.155854 
L 717.050823 -121.68596 
L 713.551816 -124.262937 
L 710.05281 -126.712921 
L 706.553803 -129.055242 
L 703.054796 -131.34859 
L 699.555789 -133.498609 
L 696.056783 -135.404283 
L 692.557776 -137.109252 
L 689.058769 -138.720548 
L 685.559762 -140.289026 
L 682.060756 -141.782965 
L 678.561749 -143.204574 
L 675.062742 -144.645144 
L 671.563735 -146.150558 
L 668.064729 -147.727496 
L 664.565722 -149.407692 
L 661.066715 -151.192214 
L 657.567708 -153.060233 
L 654.068702 -155.009848 
L 650.569695 -157.077229 
L 647.070688 -159.237352 
L 643.571681 -161.335384 
L 640.072675 -163.365546 
L 636.573668 -165.510589 
L 633.074661 -167.853725 
L 629.575655 -170.275422 
L 626.076648 -172.516578 
L 622.577641 -174.493212 
L 619.078634 -176.414961 
L 615.579628 -178.448965 
L 612.080621 -180.570607 
L 608.581614 -182.679563 
L 605.082607 -184.73117 
L 601.583601 -186.738278 
L 598.084594 -188.660845 
L 594.585587 -190.438161 
L 591.08658 -192.144465 
L 587.587574 -193.94199 
L 584.088567 -195.831133 
L 580.58956 -197.692622 
L 577.090553 -199.497721 
L 573.591547 -201.303984 
L 570.09254 -203.151055 
L 566.593533 -205.003276 
L 563.094526 -206.797421 
L 559.59552 -208.577923 
L 556.096513 -210.461841 
L 552.597506 -212.4594 
L 549.0985 -214.499546 
L 545.599493 -216.538196 
L 542.100486 -218.558515 
L 538.601479 -220.604329 
L 535.102473 -222.701681 
L 531.603466 -224.744118 
L 528.104459 -226.739455 
L 524.605452 -228.88126 
L 521.106446 -231.119602 
L 517.607439 -233.168653 
L 514.108432 -234.994213 
L 510.609425 -236.764435 
L 507.110419 -238.552488 
L 503.611412 -240.392431 
L 500.112405 -242.230658 
L 496.613398 -243.872405 
L 493.114392 -245.311378 
L 489.615385 -246.775247 
L 486.116378 -248.272379 
L 482.617371 -249.588836 
L 479.118365 -250.694697 
L 475.619358 -251.678237 
L 472.120351 -252.595055 
L 468.621344 -253.60221 
L 465.122338 -254.833026 
L 461.623331 -256.270611 
L 458.124324 -257.843728 
L 454.625318 -259.533271 
L 451.126311 -261.339634 
L 447.627304 -263.203855 
L 444.128297 -265.162324 
L 440.629291 -267.279814 
L 437.130284 -269.424945 
L 433.631277 -271.446176 
L 430.13227 -273.370943 
L 426.633264 -275.222421 
L 423.134257 -276.865629 
L 419.63525 -278.279653 
L 416.136243 -279.687831 
L 412.637237 -281.184666 
L 409.13823 -282.677466 
L 405.639223 -284.070466 
L 402.140216 -285.24766 
L 398.64121 -286.105535 
L 395.142203 -286.498421 
L 391.643196 -286.224284 
L 388.144189 -285.151106 
L 384.645183 -283.134807 
L 381.146176 -279.94592 
L 377.647169 -275.564681 
L 374.148162 -270.129678 
L 370.649156 -263.498798 
L 367.150149 -255.278962 
L 363.651142 -245.014782 
L 360.152136 -232.404677 
L 356.653129 -217.755208 
L 353.154122 -202.198095 
L 349.655115 -187.265839 
L 346.156109 -174.076956 
L 342.657102 -162.909745 
L 339.158095 -153.379807 
L 335.659088 -144.854488 
L 332.160082 -136.858017 
L 328.661075 -129.121053 
L 325.162068 -121.379045 
L 321.663061 -113.498921 
L 318.164055 -105.625276 
L 314.665048 -97.958638 
L 311.166041 -90.619359 
L 307.667034 -83.7503 
L 304.168028 -77.586378 
L 300.669021 -72.38061 
L 297.170014 -68.252758 
L 293.671007 -65.133752 
L 290.172001 -62.838782 
L 286.672994 -61.149852 
L 283.173987 -59.888625 
L 279.674981 -58.951782 
L 276.175974 -58.249083 
L 272.676967 -57.68133 
L 269.17796 -57.208719 
L 265.678954 -56.844666 
L 262.179947 -56.581241 
L 258.68094 -56.376744 
L 255.181933 -56.203238 
L 251.682927 -56.064518 
L 248.18392 -55.960402 
L 244.684913 -55.872877 
L 241.185906 -55.794078 
L 237.6869 -55.727743 
L 234.187893 -55.671866 
L 230.688886 -55.624598 
L 227.189879 -55.587366 
L 223.690873 -55.557002 
L 220.191866 -55.530732 
L 216.692859 -55.509236 
L 213.193852 -55.492214 
L 209.694846 -55.47922 
L 206.195839 -55.470547 
L 202.696832 -55.464594 
L 199.197825 -55.459442 
L 195.698819 -55.455269 
L 192.199812 -55.452319 
L 188.700805 -55.449358 
L 185.201799 -55.445768 
L 181.702792 -55.442572 
L 178.203785 -55.440765 
L 174.704778 -55.440143 
L 171.205772 -55.440016 
z
" style="stroke: #32cd32"/>
    </defs>
    <g clip-path="url(#pa602f96b05)">
     <use xlink:href="#m3aca2bbd31" x="0" y="504" style="fill: #32cd32; fill-opacity: 0.8; stroke: #32cd32"/>
    </g>
   </g>
   <g id="PolyCollection_3">
    <defs>
     <path id="m1842d052db" d="M 170.078404 -55.440007 
L 170.078404 -55.44 
L 173.604095 -55.44 
L 177.129786 -55.44 
L 180.655477 -55.44 
L 184.181168 -55.44 
L 187.706859 -55.44 
L 191.23255 -55.44 
L 194.758241 -55.44 
L 198.283932 -55.44 
L 201.809623 -55.44 
L 205.335314 -55.44 
L 208.861005 -55.44 
L 212.386696 -55.44 
L 215.912387 -55.44 
L 219.438078 -55.44 
L 222.963769 -55.44 
L 226.489459 -55.44 
L 230.01515 -55.44 
L 233.540841 -55.44 
L 237.066532 -55.44 
L 240.592223 -55.44 
L 244.117914 -55.44 
L 247.643605 -55.44 
L 251.169296 -55.44 
L 254.694987 -55.44 
L 258.220678 -55.44 
L 261.746369 -55.44 
L 265.27206 -55.44 
L 268.797751 -55.44 
L 272.323442 -55.44 
L 275.849133 -55.44 
L 279.374824 -55.44 
L 282.900515 -55.44 
L 286.426206 -55.44 
L 289.951897 -55.44 
L 293.477588 -55.44 
L 297.003279 -55.44 
L 300.52897 -55.44 
L 304.054661 -55.44 
L 307.580352 -55.44 
L 311.106043 -55.44 
L 314.631734 -55.44 
L 318.157425 -55.44 
L 321.683116 -55.44 
L 325.208807 -55.44 
L 328.734498 -55.44 
L 332.260189 -55.44 
L 335.78588 -55.44 
L 339.311571 -55.44 
L 342.837262 -55.44 
L 346.362953 -55.44 
L 349.888644 -55.44 
L 353.414335 -55.44 
L 356.940026 -55.44 
L 360.465717 -55.44 
L 363.991408 -55.44 
L 367.517099 -55.44 
L 371.04279 -55.44 
L 374.568481 -55.44 
L 378.094172 -55.44 
L 381.619863 -55.44 
L 385.145554 -55.44 
L 388.671245 -55.44 
L 392.196936 -55.44 
L 395.722627 -55.44 
L 399.248318 -55.44 
L 402.774009 -55.44 
L 406.2997 -55.44 
L 409.825391 -55.44 
L 413.351082 -55.44 
L 416.876772 -55.44 
L 420.402463 -55.44 
L 423.928154 -55.44 
L 427.453845 -55.44 
L 430.979536 -55.44 
L 434.505227 -55.44 
L 438.030918 -55.44 
L 441.556609 -55.44 
L 445.0823 -55.44 
L 448.607991 -55.44 
L 452.133682 -55.44 
L 455.659373 -55.44 
L 459.185064 -55.44 
L 462.710755 -55.44 
L 466.236446 -55.44 
L 469.762137 -55.44 
L 473.287828 -55.44 
L 476.813519 -55.44 
L 480.33921 -55.44 
L 483.864901 -55.44 
L 487.390592 -55.44 
L 490.916283 -55.44 
L 494.441974 -55.44 
L 497.967665 -55.44 
L 501.493356 -55.44 
L 505.019047 -55.44 
L 508.544738 -55.44 
L 512.070429 -55.44 
L 515.59612 -55.44 
L 519.121811 -55.44 
L 522.647502 -55.44 
L 526.173193 -55.44 
L 529.698884 -55.44 
L 533.224575 -55.44 
L 536.750266 -55.44 
L 540.275957 -55.44 
L 543.801648 -55.44 
L 547.327339 -55.44 
L 550.85303 -55.44 
L 554.378721 -55.44 
L 557.904412 -55.44 
L 561.430103 -55.44 
L 564.955794 -55.44 
L 568.481485 -55.44 
L 572.007176 -55.44 
L 575.532867 -55.44 
L 579.058558 -55.44 
L 582.584249 -55.44 
L 586.10994 -55.44 
L 589.635631 -55.44 
L 593.161322 -55.44 
L 596.687013 -55.44 
L 600.212704 -55.44 
L 603.738395 -55.44 
L 607.264085 -55.44 
L 610.789776 -55.44 
L 614.315467 -55.44 
L 617.841158 -55.44 
L 621.366849 -55.44 
L 624.89254 -55.44 
L 628.418231 -55.44 
L 631.943922 -55.44 
L 635.469613 -55.44 
L 638.995304 -55.44 
L 642.520995 -55.44 
L 646.046686 -55.44 
L 649.572377 -55.44 
L 653.098068 -55.44 
L 656.623759 -55.44 
L 660.14945 -55.44 
L 663.675141 -55.44 
L 667.200832 -55.44 
L 670.726523 -55.44 
L 674.252214 -55.44 
L 677.777905 -55.44 
L 681.303596 -55.44 
L 684.829287 -55.44 
L 688.354978 -55.44 
L 691.880669 -55.44 
L 695.40636 -55.44 
L 698.932051 -55.44 
L 702.457742 -55.44 
L 705.983433 -55.44 
L 709.509124 -55.44 
L 713.034815 -55.44 
L 716.560506 -55.44 
L 720.086197 -55.44 
L 723.611888 -55.44 
L 727.137579 -55.44 
L 730.66327 -55.44 
L 734.188961 -55.44 
L 737.714652 -55.44 
L 741.240343 -55.44 
L 744.766034 -55.44 
L 748.291725 -55.44 
L 751.817416 -55.44 
L 755.343107 -55.44 
L 758.868798 -55.44 
L 762.394489 -55.44 
L 765.92018 -55.44 
L 769.445871 -55.44 
L 772.971562 -55.44 
L 776.497253 -55.44 
L 780.022944 -55.44 
L 783.548635 -55.44 
L 787.074326 -55.44 
L 790.600017 -55.44 
L 794.125707 -55.44 
L 797.651398 -55.44 
L 801.177089 -55.44 
L 804.70278 -55.44 
L 808.228471 -55.44 
L 811.754162 -55.44 
L 815.279853 -55.44 
L 818.805544 -55.44 
L 822.331235 -55.44 
L 825.856926 -55.44 
L 829.382617 -55.44 
L 832.908308 -55.44 
L 836.433999 -55.44 
L 839.95969 -55.44 
L 843.485381 -55.44 
L 847.011072 -55.44 
L 850.536763 -55.44 
L 854.062454 -55.44 
L 857.588145 -55.44 
L 861.113836 -55.44 
L 864.639527 -55.44 
L 868.165218 -55.44 
L 871.690909 -55.44 
L 871.690909 -55.440019 
L 871.690909 -55.440019 
L 868.165218 -55.440214 
L 864.639527 -55.441647 
L 861.113836 -55.44863 
L 857.588145 -55.472106 
L 854.062454 -55.530493 
L 850.536763 -55.650122 
L 847.011072 -55.870015 
L 843.485381 -56.236631 
L 839.95969 -56.788431 
L 836.433999 -57.561206 
L 832.908308 -58.588465 
L 829.382617 -59.863349 
L 825.856926 -61.342596 
L 822.331235 -62.99177 
L 818.805544 -64.770833 
L 815.279853 -66.60413 
L 811.754162 -68.435786 
L 808.228471 -70.290568 
L 804.70278 -72.221603 
L 801.177089 -74.246673 
L 797.651398 -76.335218 
L 794.125707 -78.437955 
L 790.600017 -80.576934 
L 787.074326 -82.791902 
L 783.548635 -85.019539 
L 780.022944 -87.22699 
L 776.497253 -89.487787 
L 772.971562 -91.798675 
L 769.445871 -94.023914 
L 765.92018 -96.087754 
L 762.394489 -98.016355 
L 758.868798 -99.824254 
L 755.343107 -101.540566 
L 751.817416 -103.239144 
L 748.291725 -104.999042 
L 744.766034 -106.882185 
L 741.240343 -108.916224 
L 737.714652 -111.051825 
L 734.188961 -113.200539 
L 730.66327 -115.324651 
L 727.137579 -117.465391 
L 723.611888 -119.753363 
L 720.086197 -122.245462 
L 716.560506 -124.780104 
L 713.034815 -127.214802 
L 709.509124 -129.546991 
L 705.983433 -131.766422 
L 702.457742 -133.860295 
L 698.932051 -135.848948 
L 695.40636 -137.726686 
L 691.880669 -139.428849 
L 688.354978 -140.90465 
L 684.829287 -142.250251 
L 681.303596 -143.64193 
L 677.777905 -145.181167 
L 674.252214 -146.873613 
L 670.726523 -148.652186 
L 667.200832 -150.426368 
L 663.675141 -152.154769 
L 660.14945 -153.902077 
L 656.623759 -155.744709 
L 653.098068 -157.682332 
L 649.572377 -159.732292 
L 646.046686 -161.879145 
L 642.520995 -164.047621 
L 638.995304 -166.251332 
L 635.469613 -168.586909 
L 631.943922 -171.091624 
L 628.418231 -173.610271 
L 624.89254 -175.891996 
L 621.366849 -177.855205 
L 617.841158 -179.682726 
L 614.315467 -181.591267 
L 610.789776 -183.555621 
L 607.264085 -185.419335 
L 603.738395 -187.275193 
L 600.212704 -189.302691 
L 596.687013 -191.364973 
L 593.161322 -193.277995 
L 589.635631 -195.073288 
L 586.10994 -196.805226 
L 582.584249 -198.49504 
L 579.058558 -200.212853 
L 575.532867 -202.004548 
L 572.007176 -203.923654 
L 568.481485 -206.020489 
L 564.955794 -208.150197 
L 561.430103 -210.074371 
L 557.904412 -211.858839 
L 554.378721 -213.845531 
L 550.85303 -216.068585 
L 547.327339 -218.252649 
L 543.801648 -220.341611 
L 540.275957 -222.418242 
L 536.750266 -224.371193 
L 533.224575 -226.184173 
L 529.698884 -228.129342 
L 526.173193 -230.299423 
L 522.647502 -232.471246 
L 519.121811 -234.49944 
L 515.59612 -236.380235 
L 512.070429 -238.164747 
L 508.544738 -239.947608 
L 505.019047 -241.786365 
L 501.493356 -243.60616 
L 497.967665 -245.15193 
L 494.441974 -246.343373 
L 490.916283 -247.479701 
L 487.390592 -248.805851 
L 483.864901 -250.222049 
L 480.33921 -251.581464 
L 476.813519 -252.868531 
L 473.287828 -254.090616 
L 469.762137 -255.344517 
L 466.236446 -256.738587 
L 462.710755 -258.195096 
L 459.185064 -259.689239 
L 455.659373 -261.351641 
L 452.133682 -263.177175 
L 448.607991 -265.009578 
L 445.0823 -266.829481 
L 441.556609 -268.83855 
L 438.030918 -271.080717 
L 434.505227 -273.23346 
L 430.979536 -275.004205 
L 427.453845 -276.522938 
L 423.928154 -278.052182 
L 420.402463 -279.609195 
L 416.876772 -281.179931 
L 413.351082 -282.752472 
L 409.825391 -284.21019 
L 406.2997 -285.442864 
L 402.774009 -286.383016 
L 399.248318 -286.851344 
L 395.722627 -286.517455 
L 392.196936 -285.141419 
L 388.671245 -282.749674 
L 385.145554 -279.544299 
L 381.619863 -275.573145 
L 378.094172 -270.502308 
L 374.568481 -263.829884 
L 371.04279 -255.273062 
L 367.517099 -244.669666 
L 363.991408 -231.767727 
L 360.465717 -216.811273 
L 356.940026 -201.060537 
L 353.414335 -186.114201 
L 349.888644 -172.981089 
L 346.362953 -161.826461 
L 342.837262 -152.255397 
L 339.311571 -143.726397 
L 335.78588 -135.728778 
L 332.260189 -127.892851 
L 328.734498 -120.06621 
L 325.208807 -112.233575 
L 321.683116 -104.429206 
L 318.157425 -96.745401 
L 314.631734 -89.35332 
L 311.106043 -82.538353 
L 307.580352 -76.603178 
L 304.054661 -71.683166 
L 300.52897 -67.774678 
L 297.003279 -64.790612 
L 293.477588 -62.548243 
L 289.951897 -60.864334 
L 286.426206 -59.621325 
L 282.900515 -58.718912 
L 279.374824 -58.045521 
L 275.849133 -57.514581 
L 272.323442 -57.089891 
L 268.797751 -56.760521 
L 265.27206 -56.50572 
L 261.746369 -56.302037 
L 258.220678 -56.142547 
L 254.694987 -56.020231 
L 251.169296 -55.922581 
L 247.643605 -55.841414 
L 244.117914 -55.770517 
L 240.592223 -55.707465 
L 237.066532 -55.65491 
L 233.540841 -55.613832 
L 230.01515 -55.580971 
L 226.489459 -55.552504 
L 222.963769 -55.527666 
L 219.438078 -55.5076 
L 215.912387 -55.49111 
L 212.386696 -55.477191 
L 208.861005 -55.467209 
L 205.335314 -55.460876 
L 201.809623 -55.455663 
L 198.283932 -55.451002 
L 194.758241 -55.447777 
L 191.23255 -55.445496 
L 187.706859 -55.443491 
L 184.181168 -55.441878 
L 180.655477 -55.440812 
L 177.129786 -55.440256 
L 173.604095 -55.440053 
L 170.078404 -55.440007 
z
" style="stroke: #4682b4"/>
    </defs>
    <g clip-path="url(#pa602f96b05)">
     <use xlink:href="#m1842d052db" x="0" y="504" style="fill: #4682b4; fill-opacity: 0.8; stroke: #4682b4"/>
    </g>
   </g>
   <g id="matplotlib.axis_1">
    <g id="xtick_1">
     <g id="line2d_1">
      <defs>
       <path id="ma0546ad7ca" d="M 0 0 
L 0 3.5 
" style="stroke: #000000; stroke-width: 0.8"/>
      </defs>
      <g>
       <use xlink:href="#ma0546ad7ca" x="238.504087" y="448.56" style="stroke: #000000; stroke-width: 0.8"/>
      </g>
     </g>
     <g id="text_1">
      <!-- 0.2 -->
      <g transform="translate(230.552524 463.158437) scale(0.1 -0.1)">
       <defs>
        <path id="DejaVuSans-30" d="M 2034 4250 
Q 1547 4250 1301 3770 
Q 1056 3291 1056 2328 
Q 1056 1369 1301 889 
Q 1547 409 2034 409 
Q 2525 409 2770 889 
Q 3016 1369 3016 2328 
Q 3016 3291 2770 3770 
Q 2525 4250 2034 4250 
z
M 2034 4750 
Q 2819 4750 3233 4129 
Q 3647 3509 3647 2328 
Q 3647 1150 3233 529 
Q 2819 -91 2034 -91 
Q 1250 -91 836 529 
Q 422 1150 422 2328 
Q 422 3509 836 4129 
Q 1250 4750 2034 4750 
z
" transform="scale(0.015625)"/>
        <path id="DejaVuSans-2e" d="M 684 794 
L 1344 794 
L 1344 0 
L 684 0 
L 684 794 
z
" transform="scale(0.015625)"/>
        <path id="DejaVuSans-32" d="M 1228 531 
L 3431 531 
L 3431 0 
L 469 0 
L 469 531 
Q 828 903 1448 1529 
Q 2069 2156 2228 2338 
Q 2531 2678 2651 2914 
Q 2772 3150 2772 3378 
Q 2772 3750 2511 3984 
Q 2250 4219 1831 4219 
Q 1534 4219 1204 4116 
Q 875 4013 500 3803 
L 500 4441 
Q 881 4594 1212 4672 
Q 1544 4750 1819 4750 
Q 2544 4750 2975 4387 
Q 3406 4025 3406 3419 
Q 3406 3131 3298 2873 
Q 3191 2616 2906 2266 
Q 2828 2175 2409 1742 
Q 1991 1309 1228 531 
z
" transform="scale(0.015625)"/>
       </defs>
       <use xlink:href="#DejaVuSans-30"/>
       <use xlink:href="#DejaVuSans-2e" x="63.623047"/>
       <use xlink:href="#DejaVuSans-32" x="95.410156"/>
      </g>
     </g>
    </g>
    <g id="xtick_2">
     <g id="line2d_2">
      <g>
       <use xlink:href="#ma0546ad7ca" x="397.752242" y="448.56" style="stroke: #000000; stroke-width: 0.8"/>
      </g>
     </g>
     <g id="text_2">
      <!-- 0.4 -->
      <g transform="translate(389.80068 463.158437) scale(0.1 -0.1)">
       <defs>
        <path id="DejaVuSans-34" d="M 2419 4116 
L 825 1625 
L 2419 1625 
L 2419 4116 
z
M 2253 4666 
L 3047 4666 
L 3047 1625 
L 3713 1625 
L 3713 1100 
L 3047 1100 
L 3047 0 
L 2419 0 
L 2419 1100 
L 313 1100 
L 313 1709 
L 2253 4666 
z
" transform="scale(0.015625)"/>
       </defs>
       <use xlink:href="#DejaVuSans-30"/>
       <use xlink:href="#DejaVuSans-2e" x="63.623047"/>
       <use xlink:href="#DejaVuSans-34" x="95.410156"/>
      </g>
     </g>
    </g>
    <g id="xtick_3">
     <g id="line2d_3">
      <g>
       <use xlink:href="#ma0546ad7ca" x="557.000398" y="448.56" style="stroke: #000000; stroke-width: 0.8"/>
      </g>
     </g>
     <g id="text_3">
      <!-- 0.6 -->
      <g transform="translate(549.048835 463.158437) scale(0.1 -0.1)">
       <defs>
        <path id="DejaVuSans-36" d="M 2113 2584 
Q 1688 2584 1439 2293 
Q 1191 2003 1191 1497 
Q 1191 994 1439 701 
Q 1688 409 2113 409 
Q 2538 409 2786 701 
Q 3034 994 3034 1497 
Q 3034 2003 2786 2293 
Q 2538 2584 2113 2584 
z
M 3366 4563 
L 3366 3988 
Q 3128 4100 2886 4159 
Q 2644 4219 2406 4219 
Q 1781 4219 1451 3797 
Q 1122 3375 1075 2522 
Q 1259 2794 1537 2939 
Q 1816 3084 2150 3084 
Q 2853 3084 3261 2657 
Q 3669 2231 3669 1497 
Q 3669 778 3244 343 
Q 2819 -91 2113 -91 
Q 1303 -91 875 529 
Q 447 1150 447 2328 
Q 447 3434 972 4092 
Q 1497 4750 2381 4750 
Q 2619 4750 2861 4703 
Q 3103 4656 3366 4563 
z
" transform="scale(0.015625)"/>
       </defs>
       <use xlink:href="#DejaVuSans-30"/>
       <use xlink:href="#DejaVuSans-2e" x="63.623047"/>
       <use xlink:href="#DejaVuSans-36" x="95.410156"/>
      </g>
     </g>
    </g>
    <g id="xtick_4">
     <g id="line2d_4">
      <g>
       <use xlink:href="#ma0546ad7ca" x="716.248553" y="448.56" style="stroke: #000000; stroke-width: 0.8"/>
      </g>
     </g>
     <g id="text_4">
      <!-- 0.8 -->
      <g transform="translate(708.296991 463.158437) scale(0.1 -0.1)">
       <defs>
        <path id="DejaVuSans-38" d="M 2034 2216 
Q 1584 2216 1326 1975 
Q 1069 1734 1069 1313 
Q 1069 891 1326 650 
Q 1584 409 2034 409 
Q 2484 409 2743 651 
Q 3003 894 3003 1313 
Q 3003 1734 2745 1975 
Q 2488 2216 2034 2216 
z
M 1403 2484 
Q 997 2584 770 2862 
Q 544 3141 544 3541 
Q 544 4100 942 4425 
Q 1341 4750 2034 4750 
Q 2731 4750 3128 4425 
Q 3525 4100 3525 3541 
Q 3525 3141 3298 2862 
Q 3072 2584 2669 2484 
Q 3125 2378 3379 2068 
Q 3634 1759 3634 1313 
Q 3634 634 3220 271 
Q 2806 -91 2034 -91 
Q 1263 -91 848 271 
Q 434 634 434 1313 
Q 434 1759 690 2068 
Q 947 2378 1403 2484 
z
M 1172 3481 
Q 1172 3119 1398 2916 
Q 1625 2713 2034 2713 
Q 2441 2713 2670 2916 
Q 2900 3119 2900 3481 
Q 2900 3844 2670 4047 
Q 2441 4250 2034 4250 
Q 1625 4250 1398 4047 
Q 1172 3844 1172 3481 
z
" transform="scale(0.015625)"/>
       </defs>
       <use xlink:href="#DejaVuSans-30"/>
       <use xlink:href="#DejaVuSans-2e" x="63.623047"/>
       <use xlink:href="#DejaVuSans-38" x="95.410156"/>
      </g>
     </g>
    </g>
    <g id="xtick_5">
     <g id="line2d_5">
      <g>
       <use xlink:href="#ma0546ad7ca" x="875.496709" y="448.56" style="stroke: #000000; stroke-width: 0.8"/>
      </g>
     </g>
     <g id="text_5">
      <!-- 1.0 -->
      <g transform="translate(867.545146 463.158437) scale(0.1 -0.1)">
       <defs>
        <path id="DejaVuSans-31" d="M 794 531 
L 1825 531 
L 1825 4091 
L 703 3866 
L 703 4441 
L 1819 4666 
L 2450 4666 
L 2450 531 
L 3481 531 
L 3481 0 
L 794 0 
L 794 531 
z
" transform="scale(0.015625)"/>
       </defs>
       <use xlink:href="#DejaVuSans-31"/>
       <use xlink:href="#DejaVuSans-2e" x="63.623047"/>
       <use xlink:href="#DejaVuSans-30" x="95.410156"/>
      </g>
     </g>
    </g>
    <g id="text_6">
     <!-- Scores of samples -->
     <g transform="translate(453.056406 479.875938) scale(0.14 -0.14)">
      <defs>
       <path id="DejaVuSans-53" d="M 3425 4513 
L 3425 3897 
Q 3066 4069 2747 4153 
Q 2428 4238 2131 4238 
Q 1616 4238 1336 4038 
Q 1056 3838 1056 3469 
Q 1056 3159 1242 3001 
Q 1428 2844 1947 2747 
L 2328 2669 
Q 3034 2534 3370 2195 
Q 3706 1856 3706 1288 
Q 3706 609 3251 259 
Q 2797 -91 1919 -91 
Q 1588 -91 1214 -16 
Q 841 59 441 206 
L 441 856 
Q 825 641 1194 531 
Q 1563 422 1919 422 
Q 2459 422 2753 634 
Q 3047 847 3047 1241 
Q 3047 1584 2836 1778 
Q 2625 1972 2144 2069 
L 1759 2144 
Q 1053 2284 737 2584 
Q 422 2884 422 3419 
Q 422 4038 858 4394 
Q 1294 4750 2059 4750 
Q 2388 4750 2728 4690 
Q 3069 4631 3425 4513 
z
" transform="scale(0.015625)"/>
       <path id="DejaVuSans-63" d="M 3122 3366 
L 3122 2828 
Q 2878 2963 2633 3030 
Q 2388 3097 2138 3097 
Q 1578 3097 1268 2742 
Q 959 2388 959 1747 
Q 959 1106 1268 751 
Q 1578 397 2138 397 
Q 2388 397 2633 464 
Q 2878 531 3122 666 
L 3122 134 
Q 2881 22 2623 -34 
Q 2366 -91 2075 -91 
Q 1284 -91 818 406 
Q 353 903 353 1747 
Q 353 2603 823 3093 
Q 1294 3584 2113 3584 
Q 2378 3584 2631 3529 
Q 2884 3475 3122 3366 
z
" transform="scale(0.015625)"/>
       <path id="DejaVuSans-6f" d="M 1959 3097 
Q 1497 3097 1228 2736 
Q 959 2375 959 1747 
Q 959 1119 1226 758 
Q 1494 397 1959 397 
Q 2419 397 2687 759 
Q 2956 1122 2956 1747 
Q 2956 2369 2687 2733 
Q 2419 3097 1959 3097 
z
M 1959 3584 
Q 2709 3584 3137 3096 
Q 3566 2609 3566 1747 
Q 3566 888 3137 398 
Q 2709 -91 1959 -91 
Q 1206 -91 779 398 
Q 353 888 353 1747 
Q 353 2609 779 3096 
Q 1206 3584 1959 3584 
z
" transform="scale(0.015625)"/>
       <path id="DejaVuSans-72" d="M 2631 2963 
Q 2534 3019 2420 3045 
Q 2306 3072 2169 3072 
Q 1681 3072 1420 2755 
Q 1159 2438 1159 1844 
L 1159 0 
L 581 0 
L 581 3500 
L 1159 3500 
L 1159 2956 
Q 1341 3275 1631 3429 
Q 1922 3584 2338 3584 
Q 2397 3584 2469 3576 
Q 2541 3569 2628 3553 
L 2631 2963 
z
" transform="scale(0.015625)"/>
       <path id="DejaVuSans-65" d="M 3597 1894 
L 3597 1613 
L 953 1613 
Q 991 1019 1311 708 
Q 1631 397 2203 397 
Q 2534 397 2845 478 
Q 3156 559 3463 722 
L 3463 178 
Q 3153 47 2828 -22 
Q 2503 -91 2169 -91 
Q 1331 -91 842 396 
Q 353 884 353 1716 
Q 353 2575 817 3079 
Q 1281 3584 2069 3584 
Q 2775 3584 3186 3129 
Q 3597 2675 3597 1894 
z
M 3022 2063 
Q 3016 2534 2758 2815 
Q 2500 3097 2075 3097 
Q 1594 3097 1305 2825 
Q 1016 2553 972 2059 
L 3022 2063 
z
" transform="scale(0.015625)"/>
       <path id="DejaVuSans-73" d="M 2834 3397 
L 2834 2853 
Q 2591 2978 2328 3040 
Q 2066 3103 1784 3103 
Q 1356 3103 1142 2972 
Q 928 2841 928 2578 
Q 928 2378 1081 2264 
Q 1234 2150 1697 2047 
L 1894 2003 
Q 2506 1872 2764 1633 
Q 3022 1394 3022 966 
Q 3022 478 2636 193 
Q 2250 -91 1575 -91 
Q 1294 -91 989 -36 
Q 684 19 347 128 
L 347 722 
Q 666 556 975 473 
Q 1284 391 1588 391 
Q 1994 391 2212 530 
Q 2431 669 2431 922 
Q 2431 1156 2273 1281 
Q 2116 1406 1581 1522 
L 1381 1569 
Q 847 1681 609 1914 
Q 372 2147 372 2553 
Q 372 3047 722 3315 
Q 1072 3584 1716 3584 
Q 2034 3584 2315 3537 
Q 2597 3491 2834 3397 
z
" transform="scale(0.015625)"/>
       <path id="DejaVuSans-20" transform="scale(0.015625)"/>
       <path id="DejaVuSans-66" d="M 2375 4863 
L 2375 4384 
L 1825 4384 
Q 1516 4384 1395 4259 
Q 1275 4134 1275 3809 
L 1275 3500 
L 2222 3500 
L 2222 3053 
L 1275 3053 
L 1275 0 
L 697 0 
L 697 3053 
L 147 3053 
L 147 3500 
L 697 3500 
L 697 3744 
Q 697 4328 969 4595 
Q 1241 4863 1831 4863 
L 2375 4863 
z
" transform="scale(0.015625)"/>
       <path id="DejaVuSans-61" d="M 2194 1759 
Q 1497 1759 1228 1600 
Q 959 1441 959 1056 
Q 959 750 1161 570 
Q 1363 391 1709 391 
Q 2188 391 2477 730 
Q 2766 1069 2766 1631 
L 2766 1759 
L 2194 1759 
z
M 3341 1997 
L 3341 0 
L 2766 0 
L 2766 531 
Q 2569 213 2275 61 
Q 1981 -91 1556 -91 
Q 1019 -91 701 211 
Q 384 513 384 1019 
Q 384 1609 779 1909 
Q 1175 2209 1959 2209 
L 2766 2209 
L 2766 2266 
Q 2766 2663 2505 2880 
Q 2244 3097 1772 3097 
Q 1472 3097 1187 3025 
Q 903 2953 641 2809 
L 641 3341 
Q 956 3463 1253 3523 
Q 1550 3584 1831 3584 
Q 2591 3584 2966 3190 
Q 3341 2797 3341 1997 
z
" transform="scale(0.015625)"/>
       <path id="DejaVuSans-6d" d="M 3328 2828 
Q 3544 3216 3844 3400 
Q 4144 3584 4550 3584 
Q 5097 3584 5394 3201 
Q 5691 2819 5691 2113 
L 5691 0 
L 5113 0 
L 5113 2094 
Q 5113 2597 4934 2840 
Q 4756 3084 4391 3084 
Q 3944 3084 3684 2787 
Q 3425 2491 3425 1978 
L 3425 0 
L 2847 0 
L 2847 2094 
Q 2847 2600 2669 2842 
Q 2491 3084 2119 3084 
Q 1678 3084 1418 2786 
Q 1159 2488 1159 1978 
L 1159 0 
L 581 0 
L 581 3500 
L 1159 3500 
L 1159 2956 
Q 1356 3278 1631 3431 
Q 1906 3584 2284 3584 
Q 2666 3584 2933 3390 
Q 3200 3197 3328 2828 
z
" transform="scale(0.015625)"/>
       <path id="DejaVuSans-70" d="M 1159 525 
L 1159 -1331 
L 581 -1331 
L 581 3500 
L 1159 3500 
L 1159 2969 
Q 1341 3281 1617 3432 
Q 1894 3584 2278 3584 
Q 2916 3584 3314 3078 
Q 3713 2572 3713 1747 
Q 3713 922 3314 415 
Q 2916 -91 2278 -91 
Q 1894 -91 1617 61 
Q 1341 213 1159 525 
z
M 3116 1747 
Q 3116 2381 2855 2742 
Q 2594 3103 2138 3103 
Q 1681 3103 1420 2742 
Q 1159 2381 1159 1747 
Q 1159 1113 1420 752 
Q 1681 391 2138 391 
Q 2594 391 2855 752 
Q 3116 1113 3116 1747 
z
" transform="scale(0.015625)"/>
       <path id="DejaVuSans-6c" d="M 603 4863 
L 1178 4863 
L 1178 0 
L 603 0 
L 603 4863 
z
" transform="scale(0.015625)"/>
      </defs>
      <use xlink:href="#DejaVuSans-53"/>
      <use xlink:href="#DejaVuSans-63" x="63.476562"/>
      <use xlink:href="#DejaVuSans-6f" x="118.457031"/>
      <use xlink:href="#DejaVuSans-72" x="179.638672"/>
      <use xlink:href="#DejaVuSans-65" x="218.501953"/>
      <use xlink:href="#DejaVuSans-73" x="280.025391"/>
      <use xlink:href="#DejaVuSans-20" x="332.125"/>
      <use xlink:href="#DejaVuSans-6f" x="363.912109"/>
      <use xlink:href="#DejaVuSans-66" x="425.09375"/>
      <use xlink:href="#DejaVuSans-20" x="460.298828"/>
      <use xlink:href="#DejaVuSans-73" x="492.085938"/>
      <use xlink:href="#DejaVuSans-61" x="544.185547"/>
      <use xlink:href="#DejaVuSans-6d" x="605.464844"/>
      <use xlink:href="#DejaVuSans-70" x="702.876953"/>
      <use xlink:href="#DejaVuSans-6c" x="766.353516"/>
      <use xlink:href="#DejaVuSans-65" x="794.136719"/>
      <use xlink:href="#DejaVuSans-73" x="855.660156"/>
     </g>
    </g>
   </g>
   <g id="matplotlib.axis_2">
    <g id="ytick_1">
     <g id="line2d_6">
      <defs>
       <path id="mfb26307bc9" d="M 0 0 
L -3.5 0 
" style="stroke: #000000; stroke-width: 0.8"/>
      </defs>
      <g>
       <use xlink:href="#mfb26307bc9" x="126" y="448.56" style="stroke: #000000; stroke-width: 0.8"/>
      </g>
     </g>
     <g id="text_7">
      <!-- 0 -->
      <g transform="translate(112.6375 452.359219) scale(0.1 -0.1)">
       <use xlink:href="#DejaVuSans-30"/>
      </g>
     </g>
    </g>
    <g id="ytick_2">
     <g id="line2d_7">
      <g>
       <use xlink:href="#mfb26307bc9" x="126" y="365.849769" style="stroke: #000000; stroke-width: 0.8"/>
      </g>
     </g>
     <g id="text_8">
      <!-- 1 -->
      <g transform="translate(112.6375 369.648988) scale(0.1 -0.1)">
       <use xlink:href="#DejaVuSans-31"/>
      </g>
     </g>
    </g>
    <g id="ytick_3">
     <g id="line2d_8">
      <g>
       <use xlink:href="#mfb26307bc9" x="126" y="283.139538" style="stroke: #000000; stroke-width: 0.8"/>
      </g>
     </g>
     <g id="text_9">
      <!-- 2 -->
      <g transform="translate(112.6375 286.938756) scale(0.1 -0.1)">
       <use xlink:href="#DejaVuSans-32"/>
      </g>
     </g>
    </g>
    <g id="ytick_4">
     <g id="line2d_9">
      <g>
       <use xlink:href="#mfb26307bc9" x="126" y="200.429307" style="stroke: #000000; stroke-width: 0.8"/>
      </g>
     </g>
     <g id="text_10">
      <!-- 3 -->
      <g transform="translate(112.6375 204.228525) scale(0.1 -0.1)">
       <defs>
        <path id="DejaVuSans-33" d="M 2597 2516 
Q 3050 2419 3304 2112 
Q 3559 1806 3559 1356 
Q 3559 666 3084 287 
Q 2609 -91 1734 -91 
Q 1441 -91 1130 -33 
Q 819 25 488 141 
L 488 750 
Q 750 597 1062 519 
Q 1375 441 1716 441 
Q 2309 441 2620 675 
Q 2931 909 2931 1356 
Q 2931 1769 2642 2001 
Q 2353 2234 1838 2234 
L 1294 2234 
L 1294 2753 
L 1863 2753 
Q 2328 2753 2575 2939 
Q 2822 3125 2822 3475 
Q 2822 3834 2567 4026 
Q 2313 4219 1838 4219 
Q 1578 4219 1281 4162 
Q 984 4106 628 3988 
L 628 4550 
Q 988 4650 1302 4700 
Q 1616 4750 1894 4750 
Q 2613 4750 3031 4423 
Q 3450 4097 3450 3541 
Q 3450 3153 3228 2886 
Q 3006 2619 2597 2516 
z
" transform="scale(0.015625)"/>
       </defs>
       <use xlink:href="#DejaVuSans-33"/>
      </g>
     </g>
    </g>
    <g id="ytick_5">
     <g id="line2d_10">
      <g>
       <use xlink:href="#mfb26307bc9" x="126" y="117.719075" style="stroke: #000000; stroke-width: 0.8"/>
      </g>
     </g>
     <g id="text_11">
      <!-- 4 -->
      <g transform="translate(112.6375 121.518294) scale(0.1 -0.1)">
       <use xlink:href="#DejaVuSans-34"/>
      </g>
     </g>
    </g>
    <g id="text_12">
     <!-- Densities of samples -->
     <g transform="translate(105.725938 327.181094) rotate(-90) scale(0.14 -0.14)">
      <defs>
       <path id="DejaVuSans-44" d="M 1259 4147 
L 1259 519 
L 2022 519 
Q 2988 519 3436 956 
Q 3884 1394 3884 2338 
Q 3884 3275 3436 3711 
Q 2988 4147 2022 4147 
L 1259 4147 
z
M 628 4666 
L 1925 4666 
Q 3281 4666 3915 4102 
Q 4550 3538 4550 2338 
Q 4550 1131 3912 565 
Q 3275 0 1925 0 
L 628 0 
L 628 4666 
z
" transform="scale(0.015625)"/>
       <path id="DejaVuSans-6e" d="M 3513 2113 
L 3513 0 
L 2938 0 
L 2938 2094 
Q 2938 2591 2744 2837 
Q 2550 3084 2163 3084 
Q 1697 3084 1428 2787 
Q 1159 2491 1159 1978 
L 1159 0 
L 581 0 
L 581 3500 
L 1159 3500 
L 1159 2956 
Q 1366 3272 1645 3428 
Q 1925 3584 2291 3584 
Q 2894 3584 3203 3211 
Q 3513 2838 3513 2113 
z
" transform="scale(0.015625)"/>
       <path id="DejaVuSans-69" d="M 603 3500 
L 1178 3500 
L 1178 0 
L 603 0 
L 603 3500 
z
M 603 4863 
L 1178 4863 
L 1178 4134 
L 603 4134 
L 603 4863 
z
" transform="scale(0.015625)"/>
       <path id="DejaVuSans-74" d="M 1172 4494 
L 1172 3500 
L 2356 3500 
L 2356 3053 
L 1172 3053 
L 1172 1153 
Q 1172 725 1289 603 
Q 1406 481 1766 481 
L 2356 481 
L 2356 0 
L 1766 0 
Q 1100 0 847 248 
Q 594 497 594 1153 
L 594 3053 
L 172 3053 
L 172 3500 
L 594 3500 
L 594 4494 
L 1172 4494 
z
" transform="scale(0.015625)"/>
      </defs>
      <use xlink:href="#DejaVuSans-44"/>
      <use xlink:href="#DejaVuSans-65" x="77.001953"/>
      <use xlink:href="#DejaVuSans-6e" x="138.525391"/>
      <use xlink:href="#DejaVuSans-73" x="201.904297"/>
      <use xlink:href="#DejaVuSans-69" x="254.003906"/>
      <use xlink:href="#DejaVuSans-74" x="281.787109"/>
      <use xlink:href="#DejaVuSans-69" x="320.996094"/>
      <use xlink:href="#DejaVuSans-65" x="348.779297"/>
      <use xlink:href="#DejaVuSans-73" x="410.302734"/>
      <use xlink:href="#DejaVuSans-20" x="462.402344"/>
      <use xlink:href="#DejaVuSans-6f" x="494.189453"/>
      <use xlink:href="#DejaVuSans-66" x="555.371094"/>
      <use xlink:href="#DejaVuSans-20" x="590.576172"/>
      <use xlink:href="#DejaVuSans-73" x="622.363281"/>
      <use xlink:href="#DejaVuSans-61" x="674.462891"/>
      <use xlink:href="#DejaVuSans-6d" x="735.742188"/>
      <use xlink:href="#DejaVuSans-70" x="833.154297"/>
      <use xlink:href="#DejaVuSans-6c" x="896.630859"/>
      <use xlink:href="#DejaVuSans-65" x="924.414062"/>
      <use xlink:href="#DejaVuSans-73" x="985.9375"/>
     </g>
    </g>
   </g>
   <g id="patch_3">
    <path d="M 126 448.56 
L 126 60.48 
" style="fill: none; stroke: #000000; stroke-width: 0.8; stroke-linejoin: miter; stroke-linecap: square"/>
   </g>
   <g id="patch_4">
    <path d="M 907.2 448.56 
L 907.2 60.48 
" style="fill: none; stroke: #000000; stroke-width: 0.8; stroke-linejoin: miter; stroke-linecap: square"/>
   </g>
   <g id="patch_5">
    <path d="M 126 448.56 
L 907.2 448.56 
" style="fill: none; stroke: #000000; stroke-width: 0.8; stroke-linejoin: miter; stroke-linecap: square"/>
   </g>
   <g id="patch_6">
    <path d="M 126 60.48 
L 907.2 60.48 
" style="fill: none; stroke: #000000; stroke-width: 0.8; stroke-linejoin: miter; stroke-linecap: square"/>
   </g>
   <g id="legend_1">
    <g id="patch_7">
     <path d="M 134.4 122.92125 
L 222.47625 122.92125 
Q 224.87625 122.92125 224.87625 120.52125 
L 224.87625 68.88 
Q 224.87625 66.48 222.47625 66.48 
L 134.4 66.48 
Q 132 66.48 132 68.88 
L 132 120.52125 
Q 132 122.92125 134.4 122.92125 
z
" style="fill: #ffffff; opacity: 0.8; stroke: #cccccc; stroke-linejoin: miter"/>
    </g>
    <g id="patch_8">
     <path d="M 136.8 80.398125 
L 160.8 80.398125 
L 160.8 71.998125 
L 136.8 71.998125 
z
" style="fill: #ffd700; fill-opacity: 0.8; stroke: #ffd700; stroke-linejoin: miter"/>
    </g>
    <g id="text_13">
     <!-- Random -->
     <g transform="translate(170.4 80.398125) scale(0.12 -0.12)">
      <defs>
       <path id="DejaVuSans-52" d="M 2841 2188 
Q 3044 2119 3236 1894 
Q 3428 1669 3622 1275 
L 4263 0 
L 3584 0 
L 2988 1197 
Q 2756 1666 2539 1819 
Q 2322 1972 1947 1972 
L 1259 1972 
L 1259 0 
L 628 0 
L 628 4666 
L 2053 4666 
Q 2853 4666 3247 4331 
Q 3641 3997 3641 3322 
Q 3641 2881 3436 2590 
Q 3231 2300 2841 2188 
z
M 1259 4147 
L 1259 2491 
L 2053 2491 
Q 2509 2491 2742 2702 
Q 2975 2913 2975 3322 
Q 2975 3731 2742 3939 
Q 2509 4147 2053 4147 
L 1259 4147 
z
" transform="scale(0.015625)"/>
       <path id="DejaVuSans-64" d="M 2906 2969 
L 2906 4863 
L 3481 4863 
L 3481 0 
L 2906 0 
L 2906 525 
Q 2725 213 2448 61 
Q 2172 -91 1784 -91 
Q 1150 -91 751 415 
Q 353 922 353 1747 
Q 353 2572 751 3078 
Q 1150 3584 1784 3584 
Q 2172 3584 2448 3432 
Q 2725 3281 2906 2969 
z
M 947 1747 
Q 947 1113 1208 752 
Q 1469 391 1925 391 
Q 2381 391 2643 752 
Q 2906 1113 2906 1747 
Q 2906 2381 2643 2742 
Q 2381 3103 1925 3103 
Q 1469 3103 1208 2742 
Q 947 2381 947 1747 
z
" transform="scale(0.015625)"/>
      </defs>
      <use xlink:href="#DejaVuSans-52"/>
      <use xlink:href="#DejaVuSans-61" x="67.232422"/>
      <use xlink:href="#DejaVuSans-6e" x="128.511719"/>
      <use xlink:href="#DejaVuSans-64" x="191.890625"/>
      <use xlink:href="#DejaVuSans-6f" x="255.367188"/>
      <use xlink:href="#DejaVuSans-6d" x="316.548828"/>
     </g>
    </g>
    <g id="patch_9">
     <path d="M 136.8 98.011875 
L 160.8 98.011875 
L 160.8 89.611875 
L 136.8 89.611875 
z
" style="fill: #32cd32; fill-opacity: 0.8; stroke: #32cd32; stroke-linejoin: miter"/>
    </g>
    <g id="text_14">
     <!-- Real -->
     <g transform="translate(170.4 98.011875) scale(0.12 -0.12)">
      <use xlink:href="#DejaVuSans-52"/>
      <use xlink:href="#DejaVuSans-65" x="64.982422"/>
      <use xlink:href="#DejaVuSans-61" x="126.505859"/>
      <use xlink:href="#DejaVuSans-6c" x="187.785156"/>
     </g>
    </g>
    <g id="patch_10">
     <path d="M 136.8 115.625625 
L 160.8 115.625625 
L 160.8 107.225625 
L 136.8 107.225625 
z
" style="fill: #4682b4; fill-opacity: 0.8; stroke: #4682b4; stroke-linejoin: miter"/>
    </g>
    <g id="text_15">
     <!-- Real' -->
     <g transform="translate(170.4 115.625625) scale(0.12 -0.12)">
      <defs>
       <path id="DejaVuSans-27" d="M 1147 4666 
L 1147 2931 
L 616 2931 
L 616 4666 
L 1147 4666 
z
" transform="scale(0.015625)"/>
      </defs>
      <use xlink:href="#DejaVuSans-52"/>
      <use xlink:href="#DejaVuSans-65" x="64.982422"/>
      <use xlink:href="#DejaVuSans-61" x="126.505859"/>
      <use xlink:href="#DejaVuSans-6c" x="187.785156"/>
      <use xlink:href="#DejaVuSans-27" x="215.568359"/>
     </g>
    </g>
   </g>
  </g>
 </g>
 <defs>
  <clipPath id="pa602f96b05">
   <rect x="126" y="60.48" width="781.2" height="388.08"/>
  </clipPath>
 </defs>
</svg>
